<?xml version="1.0" standalone="no"?>
<!DOCTYPE svg PUBLIC "-//W3C//DTD SVG 20010904//EN"
 "http://www.w3.org/TR/2001/REC-SVG-20010904/DTD/svg10.dtd">
<svg version="1.0" xmlns="http://www.w3.org/2000/svg"
 width="225.000000pt" height="225.000000pt" viewBox="0 0 225.000000 225.000000"
 preserveAspectRatio="xMidYMid meet">

<g transform="translate(0.000000,225.000000) scale(0.100000,-0.100000)"
fill="#000000" stroke="none">
<path d="M164 1926 c-28 -13 -65 -41 -82 -62 -62 -74 -62 -77 -62 -730 0 -391
4 -610 11 -644 15 -69 62 -129 128 -163 l55 -27 912 0 912 0 53 28 c66 34 114
94 128 162 15 70 15 1200 0 1270 -14 68 -62 128 -128 162 l-53 28 -912 0 -911
0 -51 -24z m1892 -86 c82 -40 79 -11 79 -715 0 -704 3 -675 -79 -715 -42 -20
-56 -20 -931 -20 -875 0 -889 0 -931 20 -82 40 -79 11 -79 715 0 703 -3 674
78 714 41 21 53 21 931 21 876 0 890 0 932 -20z"/>
<path d="M352 1699 c-93 -46 -126 -176 -67 -260 38 -53 86 -79 148 -79 61 0
106 19 139 58 78 93 51 230 -54 281 -56 27 -111 27 -166 0z"/>
<path d="M1242 1379 c-161 -137 -297 -249 -302 -249 -4 0 -56 39 -115 86 -61
49 -112 83 -120 80 -8 -3 -113 -84 -235 -182 l-220 -176 0 -204 0 -204 875 0
875 0 0 343 0 342 -211 190 c-116 105 -221 197 -232 206 -21 16 -30 9 -315
-232z"/>
</g>
</svg>
