<?xml version="1.0" standalone="no"?>
<!DOCTYPE svg PUBLIC "-//W3C//DTD SVG 20010904//EN"
 "http://www.w3.org/TR/2001/REC-SVG-20010904/DTD/svg10.dtd">
<svg version="1.0" xmlns="http://www.w3.org/2000/svg"
 width="840.000000pt" height="833.000000pt" viewBox="0 0 840.000000 833.000000"
 preserveAspectRatio="xMidYMid meet">

<g transform="translate(0.000000,833.000000) scale(0.100000,-0.100000)"
fill="#000000" stroke="none">
<path d="M352 7911 c-66 -23 -98 -52 -128 -116 -44 -93 -23 -197 51 -263 24
-21 61 -44 83 -50 28 -9 176 -12 500 -12 260 0 463 -4 466 -9 6 -9 29 -124
186 -936 50 -258 111 -571 135 -695 24 -124 85 -436 135 -695 50 -258 108
-560 130 -670 51 -258 155 -798 270 -1390 49 -258 95 -489 100 -513 19 -77 66
-134 149 -177 33 -16 159 -17 2450 -16 1656 1 2429 5 2456 12 26 7 56 27 86
59 116 119 77 304 -78 373 -22 9 -540 13 -2338 17 l-2310 5 -22 115 c-12 63
-53 279 -92 478 -39 200 -71 366 -71 368 0 2 1065 4 2366 4 1730 0 2377 3
2404 11 49 15 129 75 153 116 19 33 28 65 187 658 116 433 235 874 420 1560
83 308 154 583 157 611 9 83 -36 167 -117 217 l-35 22 -3080 5 -3079 5 -8 40
c-4 22 -37 194 -74 383 -56 289 -71 349 -93 382 -30 45 -90 92 -140 109 -24 8
-200 11 -600 11 -521 -1 -570 -2 -619 -19z m7313 -1383 c-3 -7 -43 -157 -91
-333 -87 -325 -109 -407 -369 -1374 -80 -300 -148 -549 -151 -553 -3 -4 -1046
-8 -2319 -8 -2195 0 -2314 1 -2319 18 -2 9 -7 31 -10 47 -15 82 -286 1482
-372 1918 -30 152 -54 282 -54 287 0 7 1001 10 2845 10 2271 0 2843 -3 2840
-12z" fill="#c8c9ca"/>
<path d="M2984 1985 c-142 -31 -262 -96 -378 -205 -183 -173 -265 -377 -253
-630 6 -132 29 -215 88 -331 154 -296 485 -473 812 -431 355 45 630 297 704
646 23 111 14 298 -21 401 -93 275 -308 476 -580 545 -94 24 -276 26 -372 5z
m301 -466 c73 -27 156 -104 192 -177 24 -50 28 -69 28 -147 0 -78 -4 -98 -28
-150 -92 -197 -338 -261 -517 -136 -185 129 -201 391 -32 543 22 20 51 42 64
49 80 43 205 51 293 18z" fill="#c8c9ca"/>
<path d="M6240 1979 c-523 -136 -771 -717 -507 -1189 50 -90 194 -239 279
-288 171 -101 368 -141 548 -111 307 49 554 261 652 559 29 88 31 106 32 235
1 118 -3 152 -22 220 -84 290 -326 520 -611 581 -97 20 -279 17 -371 -7z m353
-474 c147 -73 226 -247 183 -401 -31 -106 -93 -178 -196 -228 -56 -27 -75 -31
-145 -30 -69 0 -89 5 -147 32 -119 57 -188 161 -196 293 -9 160 68 283 217
346 80 34 201 29 284 -12z" fill="#c8c9ca"/>
</g>
</svg>
