<svg id="svg" version="1.1" xmlns="http://www.w3.org/2000/svg" xmlns:xlink="http://www.w3.org/1999/xlink" width="400" height="400" viewBox="0, 0, 400,400"><g id="svgg"><path id="path0" d="M194.600 14.790 C 183.779 17.521,175.667 25.694,167.002 42.600 C 164.445 47.588,158.181 59.675,155.290 65.200 C 153.966 67.730,151.137 73.220,149.003 77.400 C 146.868 81.580,143.889 87.340,142.381 90.200 C 140.873 93.060,138.171 98.280,136.376 101.800 C 134.582 105.320,132.165 110.000,131.006 112.200 C 129.847 114.400,127.511 118.900,125.816 122.200 C 124.121 125.500,121.454 130.630,119.890 133.600 C 116.992 139.105,114.352 144.166,111.025 150.600 C 110.001 152.580,109.007 154.470,108.815 154.800 C 108.624 155.130,107.928 156.480,107.271 157.800 C 105.746 160.859,101.763 168.586,98.921 174.000 C 97.708 176.310,95.010 181.530,92.925 185.600 C 86.876 197.406,81.895 207.042,79.278 212.000 C 77.943 214.530,76.020 218.220,75.005 220.200 C 73.990 222.180,73.012 224.070,72.831 224.400 C 72.650 224.730,71.735 226.507,70.797 228.349 C 69.859 230.191,68.139 233.521,66.974 235.749 C 65.809 237.977,64.011 241.420,62.979 243.400 C 61.946 245.380,60.133 248.800,58.950 251.000 C 57.767 253.200,56.699 255.270,56.577 255.600 C 56.265 256.440,51.456 265.782,47.001 274.200 C 45.837 276.400,43.755 280.450,42.374 283.200 C 40.993 285.950,39.759 288.290,39.632 288.400 C 39.504 288.510,37.997 291.390,36.283 294.800 C 34.568 298.210,31.377 304.420,29.191 308.600 C 27.006 312.780,24.303 318.000,23.186 320.200 C 22.068 322.400,21.011 324.470,20.836 324.800 C 20.453 325.523,19.047 328.611,18.468 330.000 C 18.239 330.550,17.707 331.816,17.287 332.814 C 16.866 333.811,16.388 335.341,16.225 336.214 C 16.062 337.086,15.785 337.980,15.609 338.200 C 15.434 338.420,15.069 340.040,14.799 341.800 C 12.645 355.822,15.395 365.873,23.637 374.102 C 27.608 378.067,30.305 379.763,37.800 383.008 C 39.291 383.653,41.467 384.227,46.600 385.329 L 50.600 386.188 200.000 386.188 L 349.400 386.188 353.400 385.329 C 360.766 383.748,361.092 383.638,366.800 380.835 C 372.011 378.275,374.121 376.795,376.788 373.831 C 377.565 372.968,378.477 371.978,378.816 371.631 C 381.834 368.538,384.310 362.632,385.657 355.313 L 386.557 350.425 385.616 344.513 C 385.099 341.261,384.540 338.420,384.374 338.200 C 384.208 337.980,383.940 337.097,383.779 336.237 C 383.619 335.378,383.244 334.208,382.946 333.637 C 382.648 333.067,382.404 332.379,382.402 332.109 C 382.401 331.839,381.797 330.309,381.060 328.709 C 380.323 327.109,379.603 325.530,379.460 325.200 C 379.317 324.870,377.685 321.720,375.835 318.200 C 373.984 314.680,371.329 309.550,369.935 306.800 C 368.541 304.050,367.301 301.710,367.181 301.600 C 367.060 301.490,365.261 297.980,363.184 293.800 C 361.107 289.620,359.296 286.110,359.161 286.000 C 359.026 285.890,358.063 284.090,357.021 282.000 C 354.265 276.470,350.144 268.521,348.781 266.106 C 348.132 264.954,347.600 263.754,347.600 263.439 C 347.600 263.124,347.455 262.807,347.278 262.733 C 347.100 262.660,346.092 260.890,345.036 258.800 C 343.980 256.710,342.329 253.470,341.365 251.600 C 340.402 249.730,339.611 247.990,339.607 247.733 C 339.603 247.477,339.449 247.207,339.264 247.133 C 339.079 247.060,337.521 244.300,335.800 241.000 C 334.080 237.700,332.432 234.550,332.139 234.000 C 331.845 233.450,331.604 232.790,331.602 232.533 C 331.601 232.277,331.451 232.007,331.269 231.933 C 331.086 231.860,330.141 230.180,329.169 228.200 C 328.196 226.220,327.305 224.510,327.190 224.400 C 326.816 224.045,323.600 217.551,323.600 217.152 C 323.600 216.940,323.401 216.549,323.158 216.283 C 322.756 215.842,318.766 208.267,312.372 195.800 C 311.018 193.160,309.393 190.010,308.762 188.800 C 308.130 187.590,307.610 186.390,307.607 186.133 C 307.603 185.877,307.455 185.607,307.278 185.533 C 307.100 185.460,306.096 183.690,305.045 181.600 C 303.994 179.510,302.049 175.730,300.723 173.200 C 297.244 166.560,291.225 154.962,288.372 149.400 C 287.018 146.760,285.393 143.610,284.762 142.400 C 284.130 141.190,283.610 139.975,283.607 139.700 C 283.603 139.425,283.465 139.200,283.300 139.199 C 283.135 139.199,281.290 135.824,279.200 131.699 C 277.110 127.575,275.298 124.110,275.172 124.000 C 275.047 123.890,273.565 121.045,271.879 117.678 C 270.194 114.310,268.541 111.165,268.207 110.689 C 267.873 110.212,267.600 109.502,267.600 109.111 C 267.600 108.720,267.465 108.398,267.300 108.397 C 267.135 108.395,266.190 106.732,265.200 104.703 C 264.210 102.673,263.257 100.829,263.081 100.606 C 262.758 100.193,261.948 98.623,255.200 85.317 C 253.110 81.196,251.256 77.639,251.080 77.412 C 250.905 77.185,249.625 74.750,248.237 72.000 C 246.849 69.250,244.300 64.300,242.574 61.000 C 237.458 51.225,234.998 46.470,232.534 41.600 C 231.254 39.070,229.911 36.550,229.550 36.000 C 229.189 35.450,227.850 33.401,226.574 31.446 C 218.069 18.416,205.721 11.983,194.600 14.790 M203.152 84.752 C 204.020 85.620,206.552 90.118,209.933 96.800 C 210.879 98.670,211.808 100.470,211.998 100.800 C 212.187 101.130,212.449 101.670,212.580 102.000 C 212.711 102.330,213.781 104.400,214.959 106.600 C 216.137 108.800,218.851 114.020,220.991 118.200 C 223.131 122.380,226.384 128.680,228.220 132.200 C 230.057 135.720,232.754 140.940,234.214 143.800 C 235.675 146.660,237.823 150.800,238.987 153.000 C 240.152 155.200,242.583 159.880,244.389 163.400 C 246.196 166.920,248.897 172.140,250.393 175.000 C 255.983 185.689,256.955 187.560,260.365 194.200 C 262.286 197.940,265.497 204.150,267.500 208.000 C 269.504 211.850,272.101 216.882,273.271 219.181 C 274.442 221.481,275.539 223.551,275.710 223.781 C 276.033 224.219,278.955 229.916,284.232 240.400 C 285.949 243.810,287.454 246.690,287.577 246.800 C 287.699 246.910,288.942 249.250,290.337 252.000 C 291.733 254.750,293.823 258.800,294.981 261.000 C 296.140 263.200,298.834 268.420,300.968 272.600 C 303.102 276.780,306.363 283.080,308.215 286.600 C 310.066 290.120,312.440 294.710,313.491 296.800 C 314.541 298.890,315.496 300.690,315.613 300.800 C 315.730 300.910,316.955 303.250,318.335 306.000 C 319.716 308.750,321.794 312.800,322.954 315.000 C 333.685 335.350,333.799 335.685,331.031 338.706 L 329.661 340.200 200.227 340.302 L 70.792 340.404 69.296 339.033 C 66.936 336.869,68.076 329.225,71.180 326.400 C 71.301 326.290,72.205 324.580,73.190 322.600 C 74.174 320.620,75.119 318.940,75.290 318.867 C 75.460 318.793,75.600 318.522,75.600 318.263 C 75.600 318.005,76.081 316.895,76.668 315.797 C 78.569 312.244,83.092 303.501,85.046 299.600 C 86.093 297.510,87.051 295.710,87.175 295.600 C 87.299 295.490,88.206 293.780,89.191 291.800 C 90.176 289.820,91.121 288.140,91.291 288.067 C 91.461 287.993,91.600 287.628,91.600 287.256 C 91.600 286.883,91.845 286.223,92.145 285.789 C 92.731 284.942,95.884 278.937,101.802 267.400 C 103.834 263.440,106.447 258.400,107.610 256.200 C 108.772 254.000,110.880 249.950,112.293 247.200 C 113.706 244.450,116.724 238.600,118.998 234.200 C 121.273 229.800,123.993 224.490,125.042 222.400 C 126.091 220.310,127.051 218.510,127.175 218.400 C 127.299 218.290,128.585 215.860,130.033 213.000 C 131.481 210.140,134.620 204.020,137.008 199.400 C 139.396 194.780,141.711 190.280,142.153 189.400 C 142.594 188.520,143.055 187.710,143.178 187.600 C 143.300 187.490,144.581 185.060,146.025 182.200 C 147.469 179.340,150.608 173.220,153.000 168.600 C 155.392 163.980,157.711 159.480,158.152 158.600 C 158.594 157.720,159.055 156.910,159.178 156.800 C 159.300 156.690,160.582 154.260,162.026 151.400 C 165.391 144.736,172.680 130.547,176.307 123.600 C 177.858 120.630,179.988 116.490,181.041 114.400 C 182.094 112.310,183.100 110.540,183.278 110.467 C 183.455 110.393,183.601 110.123,183.602 109.867 C 183.604 109.610,183.891 108.860,184.240 108.200 C 185.788 105.277,190.727 95.770,193.074 91.200 C 196.930 83.688,200.076 81.676,203.152 84.752 M195.600 131.054 C 195.050 131.160,194.033 131.506,193.340 131.823 C 192.646 132.140,191.881 132.400,191.638 132.400 C 190.579 132.400,185.717 135.506,183.999 137.281 C 181.918 139.430,179.366 143.615,178.439 146.400 L 177.573 149.000 177.686 189.400 C 177.772 219.690,177.919 230.000,178.275 230.600 C 178.536 231.040,179.162 232.300,179.666 233.400 C 181.320 237.012,184.742 240.912,187.794 242.663 C 196.382 247.590,203.618 247.590,212.206 242.663 C 215.199 240.946,218.755 236.953,220.277 233.600 C 220.726 232.610,221.433 231.080,221.847 230.200 C 222.569 228.667,222.600 226.935,222.600 188.600 L 222.600 148.600 221.605 146.200 C 218.559 138.856,214.522 134.799,207.400 131.924 C 205.414 131.123,198.064 130.581,195.600 131.054 M195.000 271.187 C 187.348 273.429,182.700 277.378,179.137 284.665 L 177.800 287.400 177.800 293.639 C 177.800 297.694,177.959 300.074,178.254 300.439 C 178.503 300.747,178.830 301.573,178.980 302.272 C 179.129 302.972,179.510 303.759,179.826 304.021 C 180.142 304.283,180.400 304.675,180.400 304.891 C 180.400 306.834,189.044 314.400,191.263 314.400 C 191.571 314.400,192.267 314.715,192.811 315.100 C 193.651 315.694,194.739 315.800,200.017 315.800 C 205.265 315.800,206.401 315.691,207.303 315.100 C 207.891 314.715,208.580 314.400,208.834 314.400 C 210.242 314.400,218.400 308.129,218.400 307.046 C 218.400 306.933,218.903 306.066,219.519 305.120 C 226.346 294.623,222.049 279.619,210.400 273.276 C 206.613 271.214,198.612 270.129,195.000 271.187 " stroke="none" fill="#c8c9ca" fill-rule="evenodd"></path></g></svg>