<?xml version="1.0" standalone="no"?>
<!DOCTYPE svg PUBLIC "-//W3C//DTD SVG 20010904//EN"
 "http://www.w3.org/TR/2001/REC-SVG-20010904/DTD/svg10.dtd">
<svg version="1.0" xmlns="http://www.w3.org/2000/svg"
 width="225.000000pt" height="225.000000pt" viewBox="0 0 225.000000 225.000000"
 preserveAspectRatio="xMidYMid meet">

<g transform="translate(0.000000,225.000000) scale(0.100000,-0.100000)"
fill="#000000" stroke="none">
<path d="M126 2085 c-50 -18 -92 -59 -111 -109 -14 -36 -15 -117 -13 -632 l3
-590 27 -41 c47 -71 86 -83 283 -83 l168 0 -20 22 c-11 13 -26 33 -32 46 -9
17 -20 22 -52 22 -45 0 -98 19 -118 43 -8 10 -28 17 -51 17 -21 0 -42 6 -48
13 -11 13 -24 140 -23 225 0 28 1 84 1 122 0 363 11 785 22 797 8 10 98 13
433 13 367 0 428 2 461 16 28 12 55 15 96 10 52 -5 58 -4 58 13 0 19 44 90 64
103 6 4 -241 8 -549 7 -450 0 -568 -3 -599 -14z"/>
<path d="M1714 2070 c14 -17 31 -48 37 -70 11 -35 14 -38 36 -29 35 13 94 10
123 -6 15 -9 53 -14 96 -15 45 0 75 -5 82 -12 10 -12 23 -194 22 -305 0 -29 0
-98 0 -153 0 -55 0 -124 0 -152 -1 -223 -13 -524 -22 -535 -8 -10 -115 -13
-513 -13 -455 0 -504 -2 -516 -17 -20 -24 -73 -43 -118 -43 -35 0 -43 -4 -56
-30 -8 -16 -31 -42 -50 -57 -31 -25 -35 -34 -35 -73 l0 -45 -51 -18 c-101 -36
-159 -129 -159 -254 0 -40 5 -58 20 -73 19 -19 33 -20 515 -20 482 0 496 1
515 20 15 15 20 33 20 73 0 125 -58 218 -159 254 l-51 18 0 57 0 58 327 0
c308 0 329 1 369 20 24 12 54 39 70 62 l29 41 3 584 c2 410 -1 596 -9 625 -14
53 -72 112 -124 127 -23 6 -123 11 -233 11 l-194 0 26 -30z m-210 -1699 c30
-28 53 -88 39 -102 -5 -5 -181 -8 -424 -7 l-414 3 2 30 c3 35 30 75 64 93 18
9 107 11 366 10 l341 -3 26 -24z"/>
<path d="M1342 1997 c-17 -18 -22 -36 -22 -74 0 -51 -1 -52 -47 -78 l-48 -27
-37 21 c-20 12 -53 21 -72 21 -32 0 -39 -5 -66 -47 -105 -167 -110 -205 -35
-251 25 -15 45 -30 45 -33 0 -4 16 -31 36 -60 71 -106 97 -168 91 -222 -2 -28
-13 -61 -27 -79 -19 -26 -20 -32 -8 -45 13 -12 18 -12 44 3 28 16 30 16 77
-12 46 -28 47 -30 47 -80 0 -40 5 -55 23 -72 21 -20 34 -22 139 -22 143 0 156
7 165 92 6 55 8 59 49 83 l44 26 39 -21 c60 -30 95 -27 124 13 43 57 100 168
100 193 0 29 -33 68 -72 84 -26 10 -28 15 -28 69 l0 58 43 22 c68 37 72 65 23
159 -79 149 -104 165 -190 122 l-39 -21 -45 27 c-39 22 -45 30 -45 58 0 46
-19 95 -40 106 -10 6 -70 10 -133 10 -106 0 -115 -2 -135 -23z m269 -283 c84
-46 137 -133 138 -230 3 -200 -210 -335 -386 -246 -48 25 -109 91 -131 141
-24 56 -21 157 7 213 27 57 97 121 154 142 63 23 153 15 218 -20z"/>
<path d="M1405 1654 c-68 -35 -115 -106 -115 -174 0 -70 59 -155 123 -179 60
-23 153 -6 200 37 74 67 74 217 0 284 -51 46 -152 62 -208 32z"/>
<path d="M550 1550 c-13 -13 -20 -33 -20 -59 0 -34 -4 -42 -37 -61 -36 -21
-40 -22 -66 -6 -51 29 -83 21 -113 -26 -81 -128 -85 -155 -25 -193 34 -21 37
-27 36 -66 -1 -37 -5 -45 -37 -65 -58 -37 -55 -64 25 -191 31 -50 55 -57 105
-32 39 20 40 20 76 -2 31 -18 36 -26 36 -58 0 -20 7 -47 16 -59 14 -20 23 -22
110 -22 111 0 134 13 134 79 0 34 4 42 36 60 l37 22 39 -20 c55 -27 75 -17
125 65 55 92 56 125 4 158 -34 22 -38 29 -38 66 0 37 4 44 38 66 52 33 51 66
-5 159 -47 78 -73 91 -130 60 -30 -16 -33 -16 -69 5 -33 19 -37 27 -37 61 0
65 -23 79 -130 79 -77 0 -93 -3 -110 -20z m191 -273 c51 -34 79 -82 79 -135 0
-97 -77 -168 -174 -160 -92 8 -146 68 -146 161 0 119 144 200 241 134z"/>
</g>
</svg>
