<svg id="svg" version="1.1" xmlns="http://www.w3.org/2000/svg" xmlns:xlink="http://www.w3.org/1999/xlink" width="400" height="400" viewBox="0, 0, 400,400"><g id="svgg"><path id="path0" d="M71.200 0.290 C 70.430 0.382,69.629 0.624,69.420 0.829 C 69.211 1.033,68.536 1.200,67.920 1.200 C 67.304 1.200,66.800 1.380,66.800 1.600 C 66.800 1.820,66.361 2.000,65.824 2.000 C 65.287 2.000,64.736 2.180,64.600 2.400 C 64.464 2.620,64.003 2.800,63.576 2.800 C 63.149 2.800,62.800 2.946,62.800 3.125 C 62.800 3.304,62.170 3.698,61.400 4.000 C 60.630 4.302,60.000 4.696,60.000 4.875 C 60.000 5.054,59.680 5.200,59.288 5.200 C 58.897 5.200,58.317 5.560,58.000 6.000 C 57.683 6.440,57.143 6.800,56.800 6.800 C 56.457 6.800,55.917 7.160,55.600 7.600 C 55.283 8.040,54.793 8.400,54.512 8.400 C 54.230 8.400,54.000 8.580,54.000 8.800 C 54.000 9.020,53.775 9.202,53.500 9.205 C 53.225 9.207,51.740 10.530,50.200 12.144 C 47.293 15.191,47.199 15.302,45.582 17.589 C 45.042 18.353,44.375 19.221,44.100 19.518 C 43.825 19.814,43.600 20.404,43.600 20.829 C 43.600 21.253,43.420 21.600,43.200 21.600 C 42.980 21.600,42.800 21.960,42.800 22.400 C 42.800 22.840,42.620 23.200,42.400 23.200 C 42.180 23.200,42.000 23.560,42.000 24.000 C 42.000 24.440,41.820 24.800,41.600 24.800 C 41.380 24.800,41.200 25.340,41.200 26.000 C 41.200 26.660,41.020 27.200,40.800 27.200 C 40.580 27.200,40.400 27.560,40.400 28.000 C 40.400 28.440,40.220 28.800,40.000 28.800 C 39.780 28.800,39.600 29.430,39.600 30.200 C 39.600 30.970,39.420 31.600,39.200 31.600 C 38.980 31.600,38.800 32.399,38.800 33.376 C 38.800 34.353,38.620 35.264,38.400 35.400 C 38.142 35.559,38.000 42.671,38.000 55.424 L 38.000 75.200 58.400 75.200 C 71.733 75.200,78.800 75.339,78.800 75.600 C 78.800 75.820,79.509 76.000,80.376 76.000 C 81.243 76.000,82.064 76.180,82.200 76.400 C 82.336 76.620,82.797 76.800,83.224 76.800 C 83.651 76.800,84.000 76.980,84.000 77.200 C 84.000 77.420,84.360 77.600,84.800 77.600 C 85.240 77.600,85.600 77.780,85.600 78.000 C 85.600 78.220,85.873 78.400,86.207 78.400 C 86.999 78.400,92.000 83.401,92.000 84.193 C 92.000 84.527,92.180 84.800,92.400 84.800 C 92.620 84.800,92.800 85.160,92.800 85.600 C 92.800 86.040,92.974 86.400,93.186 86.400 C 93.399 86.400,93.692 87.304,93.839 88.409 C 93.986 89.514,94.262 90.515,94.453 90.633 C 94.904 90.911,94.906 95.887,94.456 96.165 C 94.267 96.282,94.004 97.148,93.872 98.089 C 93.613 99.934,92.786 101.992,92.300 101.997 C 92.135 101.999,92.000 102.320,92.000 102.712 C 92.000 103.103,91.640 103.683,91.200 104.000 C 90.760 104.317,90.400 104.820,90.400 105.117 C 90.400 105.733,89.441 106.800,88.888 106.800 C 88.685 106.800,87.954 107.340,87.263 108.000 C 86.572 108.660,85.736 109.200,85.404 109.200 C 85.072 109.200,84.800 109.369,84.800 109.575 C 84.800 109.782,83.988 110.073,82.995 110.222 C 82.002 110.371,81.092 110.652,80.971 110.846 C 80.849 111.044,71.337 111.200,59.376 111.200 L 38.000 111.200 38.000 147.200 L 38.000 183.200 58.576 183.200 C 71.863 183.200,79.240 183.342,79.400 183.600 C 79.536 183.820,80.166 184.000,80.800 184.000 C 81.434 184.000,82.064 184.180,82.200 184.400 C 82.336 184.620,82.797 184.800,83.224 184.800 C 83.651 184.800,84.000 184.980,84.000 185.200 C 84.000 185.420,84.360 185.600,84.800 185.600 C 85.240 185.600,85.600 185.768,85.600 185.973 C 85.600 186.178,85.961 186.461,86.402 186.600 C 87.280 186.879,91.200 190.543,91.200 191.086 C 91.200 191.271,91.560 191.683,92.000 192.000 C 92.440 192.317,92.800 192.882,92.800 193.255 C 92.800 193.628,93.025 194.008,93.300 194.100 C 93.674 194.225,93.800 196.009,93.800 201.200 C 93.800 206.391,93.674 208.175,93.300 208.300 C 93.025 208.392,92.800 208.768,92.800 209.137 C 92.800 209.506,92.440 210.032,92.000 210.307 C 91.560 210.582,91.200 211.001,91.200 211.238 C 91.200 211.854,86.800 216.000,86.146 216.000 C 85.846 216.000,85.600 216.180,85.600 216.400 C 85.600 216.620,85.240 216.800,84.800 216.800 C 84.360 216.800,84.000 216.980,84.000 217.200 C 84.000 217.420,83.640 217.600,83.200 217.600 C 82.760 217.600,82.400 217.780,82.400 218.000 C 82.400 218.220,81.781 218.400,81.024 218.400 C 80.267 218.400,79.536 218.580,79.400 218.800 C 79.240 219.058,71.863 219.200,58.576 219.200 L 38.000 219.200 38.000 254.400 L 38.000 289.600 58.805 289.600 C 70.248 289.600,79.923 289.756,80.305 289.946 C 81.227 290.406,83.578 291.230,84.700 291.487 C 85.195 291.601,85.600 291.852,85.600 292.047 C 85.600 292.241,85.874 292.400,86.209 292.400 C 86.951 292.400,90.783 296.194,91.568 297.706 C 91.880 298.308,92.285 298.800,92.468 298.800 C 92.650 298.800,92.800 299.145,92.800 299.567 C 92.800 299.988,92.963 300.393,93.161 300.467 C 94.326 300.896,94.351 313.933,93.188 314.333 C 92.974 314.407,92.800 314.812,92.800 315.233 C 92.800 315.655,92.650 316.000,92.468 316.000 C 92.285 316.000,91.880 316.492,91.568 317.094 C 90.783 318.606,86.951 322.400,86.209 322.400 C 85.874 322.400,85.600 322.580,85.600 322.800 C 85.600 323.020,85.240 323.200,84.800 323.200 C 84.360 323.200,84.000 323.380,84.000 323.600 C 84.000 323.820,83.640 324.000,83.200 324.000 C 82.760 324.000,82.400 324.180,82.400 324.400 C 82.400 324.620,81.770 324.800,81.000 324.800 C 80.230 324.800,79.600 324.980,79.600 325.200 C 79.600 325.462,72.400 325.600,58.800 325.600 L 38.000 325.600 38.000 344.600 C 38.000 357.000,38.139 363.600,38.400 363.600 C 38.620 363.600,38.800 364.500,38.800 365.600 C 38.800 366.700,38.980 367.600,39.200 367.600 C 39.420 367.600,39.600 368.219,39.600 368.976 C 39.600 369.733,39.780 370.464,40.000 370.600 C 40.220 370.736,40.400 371.197,40.400 371.624 C 40.400 372.051,40.580 372.400,40.800 372.400 C 41.020 372.400,41.200 372.724,41.200 373.120 C 41.200 374.014,42.094 375.993,42.500 375.997 C 42.665 375.999,42.800 376.360,42.800 376.800 C 42.800 377.240,42.966 377.600,43.168 377.600 C 43.371 377.600,43.655 378.140,43.800 378.800 C 43.945 379.460,44.217 380.000,44.405 380.000 C 44.593 380.000,44.850 380.315,44.977 380.700 C 45.104 381.085,45.746 382.009,46.404 382.754 C 47.062 383.499,47.600 384.247,47.600 384.417 C 47.600 384.816,52.778 390.000,53.176 390.000 C 53.441 390.000,54.065 390.459,55.883 391.993 C 56.149 392.217,56.604 392.400,56.895 392.400 C 57.186 392.400,57.683 392.760,58.000 393.200 C 58.317 393.640,58.897 394.000,59.288 394.000 C 59.680 394.000,60.000 394.146,60.000 394.325 C 60.000 394.504,60.630 394.898,61.400 395.200 C 62.170 395.502,62.800 395.896,62.800 396.075 C 62.800 396.254,63.149 396.400,63.576 396.400 C 64.003 396.400,64.464 396.580,64.600 396.800 C 64.736 397.020,65.287 397.200,65.824 397.200 C 66.361 397.200,66.800 397.380,66.800 397.600 C 66.800 397.820,67.329 398.000,67.976 398.000 C 68.623 398.000,69.264 398.180,69.400 398.400 C 69.536 398.620,70.447 398.800,71.424 398.800 C 72.401 398.800,73.200 398.980,73.200 399.200 C 73.200 399.466,122.059 399.600,218.976 399.600 C 315.729 399.600,364.836 399.465,365.000 399.200 C 365.136 398.980,365.957 398.800,366.824 398.800 C 367.691 398.800,368.400 398.620,368.400 398.400 C 368.400 398.180,368.940 398.000,369.600 398.000 C 370.260 398.000,370.800 397.820,370.800 397.600 C 370.800 397.380,371.239 397.200,371.776 397.200 C 372.313 397.200,372.864 397.020,373.000 396.800 C 373.136 396.580,373.597 396.400,374.024 396.400 C 374.451 396.400,374.800 396.254,374.800 396.075 C 374.800 395.896,375.430 395.502,376.200 395.200 C 376.970 394.898,377.600 394.504,377.600 394.325 C 377.600 394.146,377.960 394.000,378.400 394.000 C 378.840 394.000,379.200 393.820,379.200 393.600 C 379.200 393.380,379.494 393.200,379.853 393.200 C 380.212 393.200,380.797 392.867,381.153 392.459 C 381.509 392.052,382.377 391.422,383.081 391.059 C 384.739 390.205,390.205 384.739,391.059 383.081 C 391.422 382.377,392.052 381.509,392.459 381.153 C 392.867 380.797,393.200 380.212,393.200 379.853 C 393.200 379.494,393.380 379.200,393.600 379.200 C 393.820 379.200,394.000 378.840,394.000 378.400 C 394.000 377.960,394.180 377.600,394.400 377.600 C 394.620 377.600,394.800 377.240,394.800 376.800 C 394.800 376.360,394.980 376.000,395.200 376.000 C 395.420 376.000,395.600 375.730,395.600 375.400 C 395.600 375.070,395.780 374.800,396.000 374.800 C 396.220 374.800,396.400 374.451,396.400 374.024 C 396.400 373.597,396.580 373.136,396.800 373.000 C 397.020 372.864,397.200 372.313,397.200 371.776 C 397.200 371.239,397.380 370.800,397.600 370.800 C 397.820 370.800,398.000 370.260,398.000 369.600 C 398.000 368.940,398.180 368.400,398.400 368.400 C 398.620 368.400,398.800 367.691,398.800 366.824 C 398.800 365.957,398.980 365.136,399.200 365.000 C 399.755 364.657,399.755 34.543,399.200 34.200 C 398.980 34.064,398.800 33.344,398.800 32.600 C 398.800 31.856,398.620 31.136,398.400 31.000 C 398.180 30.864,398.000 30.223,398.000 29.576 C 398.000 28.929,397.820 28.400,397.600 28.400 C 397.380 28.400,397.200 27.950,397.200 27.400 C 397.200 26.850,397.020 26.400,396.800 26.400 C 396.580 26.400,396.400 26.040,396.400 25.600 C 396.400 25.160,396.220 24.800,396.000 24.800 C 395.780 24.800,395.600 24.566,395.600 24.280 C 395.600 23.544,394.659 21.607,394.300 21.603 C 394.135 21.601,394.000 21.240,394.000 20.800 C 394.000 20.360,393.820 20.000,393.600 20.000 C 393.380 20.000,393.200 19.706,393.200 19.347 C 393.200 18.988,392.884 18.403,392.497 18.047 C 392.111 17.691,391.537 16.899,391.223 16.287 C 390.404 14.694,384.014 8.400,383.214 8.400 C 382.986 8.400,382.800 8.220,382.800 8.000 C 382.800 7.780,382.570 7.600,382.288 7.600 C 382.007 7.600,381.517 7.240,381.200 6.800 C 380.883 6.360,380.303 6.000,379.912 6.000 C 379.520 6.000,379.200 5.820,379.200 5.600 C 379.200 5.380,378.840 5.200,378.400 5.200 C 377.960 5.200,377.600 5.032,377.600 4.826 C 377.600 4.620,376.970 4.224,376.200 3.946 C 375.430 3.667,374.800 3.295,374.800 3.120 C 374.800 2.944,374.451 2.800,374.024 2.800 C 373.597 2.800,373.136 2.620,373.000 2.400 C 372.864 2.180,372.313 2.000,371.776 2.000 C 371.239 2.000,370.800 1.820,370.800 1.600 C 370.800 1.380,370.275 1.200,369.633 1.200 C 368.992 1.200,368.392 0.975,368.300 0.700 C 368.141 0.221,75.173 -0.182,71.200 0.290 M358.400 25.600 C 358.400 25.820,359.199 26.000,360.176 26.000 C 361.153 26.000,362.064 26.180,362.200 26.400 C 362.336 26.620,362.887 26.800,363.424 26.800 C 363.961 26.800,364.400 26.980,364.400 27.200 C 364.400 27.420,364.672 27.600,365.004 27.600 C 365.336 27.600,366.172 28.140,366.863 28.800 C 367.554 29.460,368.296 30.000,368.513 30.000 C 369.003 30.000,370.799 32.051,370.800 32.612 C 370.800 32.838,371.160 33.283,371.600 33.600 C 372.040 33.917,372.400 34.497,372.400 34.888 C 372.400 35.280,372.580 35.600,372.800 35.600 C 373.020 35.600,373.200 35.960,373.200 36.400 C 373.200 36.840,373.380 37.200,373.600 37.200 C 373.820 37.200,374.000 37.794,374.000 38.520 C 374.000 39.246,374.182 40.022,374.404 40.244 C 374.673 40.513,374.739 54.511,374.601 82.224 C 374.488 105.091,374.306 176.172,374.196 240.181 C 374.065 316.704,373.861 356.699,373.599 356.961 C 373.379 357.181,373.200 358.134,373.200 359.080 C 373.200 360.026,373.020 360.800,372.800 360.800 C 372.580 360.800,372.400 361.250,372.400 361.800 C 372.400 362.350,372.220 362.800,372.000 362.800 C 371.780 362.800,371.600 363.120,371.600 363.512 C 371.600 363.903,371.240 364.483,370.800 364.800 C 370.360 365.117,370.000 365.572,370.000 365.810 C 370.000 366.448,367.572 368.916,366.300 369.569 C 365.695 369.881,365.200 370.285,365.200 370.468 C 365.200 370.650,364.840 370.800,364.400 370.800 C 363.960 370.800,363.600 370.980,363.600 371.200 C 363.600 371.420,363.240 371.600,362.800 371.600 C 362.360 371.600,362.000 371.780,362.000 372.000 C 362.000 372.220,361.370 372.400,360.600 372.400 C 359.830 372.400,359.200 372.580,359.200 372.800 C 359.200 373.355,77.743 373.355,77.400 372.800 C 77.264 372.580,76.634 372.400,76.000 372.400 C 75.366 372.400,74.736 372.220,74.600 372.000 C 74.464 371.780,74.003 371.600,73.576 371.600 C 73.149 371.600,72.800 371.420,72.800 371.200 C 72.800 370.980,72.530 370.800,72.200 370.800 C 71.870 370.800,71.600 370.620,71.600 370.400 C 71.600 370.180,71.359 370.000,71.064 370.000 C 70.351 370.000,67.147 366.888,66.432 365.500 C 66.120 364.895,65.715 364.400,65.532 364.400 C 65.350 364.400,65.200 364.040,65.200 363.600 C 65.200 363.160,65.020 362.800,64.800 362.800 C 64.580 362.800,64.400 362.440,64.400 362.000 C 64.400 361.560,64.220 361.200,64.000 361.200 C 63.780 361.200,63.600 360.491,63.600 359.624 C 63.600 358.757,63.420 357.936,63.200 357.800 C 62.980 357.664,62.800 356.303,62.800 354.776 L 62.800 352.000 71.800 352.000 C 77.533 352.000,80.800 351.855,80.800 351.600 C 80.800 351.378,81.867 351.200,83.200 351.200 C 84.533 351.200,85.600 351.022,85.600 350.800 C 85.600 350.580,86.219 350.400,86.976 350.400 C 87.733 350.400,88.464 350.220,88.600 350.000 C 88.736 349.780,89.276 349.600,89.800 349.600 C 90.324 349.600,90.864 349.420,91.000 349.200 C 91.136 348.980,91.687 348.800,92.224 348.800 C 92.761 348.800,93.200 348.620,93.200 348.400 C 93.200 348.180,93.560 348.000,94.000 348.000 C 94.440 348.000,94.800 347.820,94.800 347.600 C 94.800 347.380,95.160 347.200,95.600 347.200 C 96.040 347.200,96.400 347.020,96.400 346.800 C 96.400 346.580,96.720 346.400,97.112 346.400 C 97.503 346.400,98.083 346.040,98.400 345.600 C 98.717 345.160,99.257 344.800,99.600 344.800 C 99.943 344.800,100.483 344.440,100.800 344.000 C 101.117 343.560,101.613 343.200,101.903 343.200 C 102.500 343.200,103.278 342.553,106.400 339.464 C 109.380 336.515,111.200 334.487,111.201 334.111 C 111.201 333.940,111.741 333.170,112.400 332.400 C 113.059 331.630,113.599 330.775,113.599 330.500 C 113.600 330.225,113.780 330.000,114.000 330.000 C 114.220 330.000,114.400 329.640,114.400 329.200 C 114.400 328.760,114.580 328.400,114.800 328.400 C 115.020 328.400,115.200 328.040,115.200 327.600 C 115.200 327.160,115.380 326.800,115.600 326.800 C 115.820 326.800,116.000 326.440,116.000 326.000 C 116.000 325.560,116.180 325.200,116.400 325.200 C 116.620 325.200,116.800 324.750,116.800 324.200 C 116.800 323.650,116.980 323.200,117.200 323.200 C 117.420 323.200,117.600 322.750,117.600 322.200 C 117.600 321.650,117.780 321.200,118.000 321.200 C 118.220 321.200,118.400 320.606,118.400 319.880 C 118.400 319.154,118.563 318.389,118.761 318.180 C 119.641 317.255,120.415 301.455,119.620 300.660 C 119.389 300.429,119.200 299.477,119.200 298.544 C 119.200 297.611,119.020 296.736,118.800 296.600 C 118.580 296.464,118.400 295.733,118.400 294.976 C 118.400 294.219,118.220 293.600,118.000 293.600 C 117.780 293.600,117.600 293.251,117.600 292.824 C 117.600 292.397,117.420 291.936,117.200 291.800 C 116.980 291.664,116.800 291.113,116.800 290.576 C 116.800 290.039,116.620 289.600,116.400 289.600 C 116.180 289.600,116.000 289.240,116.000 288.800 C 116.000 288.360,115.820 288.000,115.600 288.000 C 115.380 288.000,115.200 287.640,115.200 287.200 C 115.200 286.760,115.020 286.400,114.800 286.400 C 114.580 286.400,114.400 286.040,114.400 285.600 C 114.400 285.160,114.220 284.800,114.000 284.800 C 113.780 284.800,113.600 284.564,113.600 284.275 C 113.600 283.987,113.240 283.364,112.800 282.892 C 112.360 282.420,112.000 281.846,112.000 281.617 C 112.000 281.388,111.820 281.200,111.600 281.200 C 111.380 281.200,111.200 281.002,111.200 280.760 C 111.200 280.519,110.660 279.817,110.000 279.200 C 109.340 278.583,108.794 277.926,108.786 277.740 C 108.778 277.553,107.952 276.680,106.951 275.800 C 105.949 274.920,104.522 273.615,103.778 272.900 C 103.035 272.185,102.275 271.600,102.089 271.600 C 101.903 271.600,101.402 271.285,100.975 270.900 C 100.549 270.515,99.705 269.945,99.100 269.632 C 98.495 269.320,98.000 268.915,98.000 268.732 C 98.000 268.550,97.640 268.400,97.200 268.400 C 96.760 268.400,96.400 268.220,96.400 268.000 C 96.400 267.780,96.040 267.600,95.600 267.600 C 95.160 267.600,94.800 267.420,94.800 267.200 C 94.800 266.980,94.440 266.800,94.000 266.800 C 93.560 266.800,93.200 266.620,93.200 266.400 C 93.200 266.180,92.761 266.000,92.224 266.000 C 91.687 266.000,91.136 265.820,91.000 265.600 C 90.864 265.380,90.313 265.200,89.776 265.200 C 89.239 265.200,88.800 265.020,88.800 264.800 C 88.800 264.580,88.080 264.400,87.200 264.400 C 86.320 264.400,85.600 264.220,85.600 264.000 C 85.600 263.780,84.621 263.600,83.424 263.600 C 82.227 263.600,81.136 263.420,81.000 263.200 C 80.848 262.954,77.596 262.800,72.576 262.800 L 64.400 262.800 64.400 253.800 L 64.400 244.800 74.600 244.800 C 81.133 244.800,84.800 244.656,84.800 244.400 C 84.800 244.180,85.599 244.000,86.576 244.000 C 87.553 244.000,88.464 243.820,88.600 243.600 C 88.736 243.380,89.377 243.200,90.024 243.200 C 90.671 243.200,91.200 243.020,91.200 242.800 C 91.200 242.580,91.650 242.400,92.200 242.400 C 92.750 242.400,93.200 242.236,93.200 242.035 C 93.200 241.834,93.920 241.549,94.800 241.400 C 95.680 241.251,96.400 240.966,96.400 240.765 C 96.400 240.564,96.760 240.400,97.200 240.400 C 97.640 240.400,98.000 240.220,98.000 240.000 C 98.000 239.780,98.360 239.600,98.800 239.600 C 99.240 239.600,99.600 239.420,99.600 239.200 C 99.600 238.980,99.836 238.800,100.125 238.800 C 100.413 238.800,100.998 238.480,101.425 238.089 C 101.851 237.698,102.828 236.936,103.595 236.395 C 105.128 235.313,108.800 231.819,108.800 231.442 C 108.800 231.311,109.700 230.285,110.800 229.161 C 111.900 228.038,112.800 226.933,112.800 226.706 C 112.800 226.479,113.116 226.003,113.503 225.647 C 113.889 225.291,114.474 224.460,114.802 223.800 C 115.130 223.140,115.489 222.510,115.599 222.400 C 116.077 221.924,116.800 220.361,116.800 219.805 C 116.800 219.472,116.980 219.200,117.200 219.200 C 117.420 219.200,117.600 218.840,117.600 218.400 C 117.600 217.960,117.780 217.600,118.000 217.600 C 118.220 217.600,118.400 217.060,118.400 216.400 C 118.400 215.740,118.580 215.200,118.800 215.200 C 119.020 215.200,119.200 214.671,119.200 214.024 C 119.200 213.377,119.380 212.736,119.600 212.600 C 119.820 212.464,120.000 211.553,120.000 210.576 C 120.000 209.599,120.187 208.800,120.416 208.800 C 120.696 208.800,120.774 206.151,120.655 200.700 C 120.470 192.188,120.158 188.800,119.560 188.800 C 119.362 188.800,119.200 188.260,119.200 187.600 C 119.200 186.940,119.020 186.400,118.800 186.400 C 118.580 186.400,118.400 185.860,118.400 185.200 C 118.400 184.540,118.220 184.000,118.000 184.000 C 117.780 184.000,117.600 183.755,117.600 183.456 C 117.600 182.799,115.124 177.855,114.700 177.667 C 114.535 177.593,114.400 177.318,114.400 177.055 C 114.400 176.792,114.040 176.317,113.600 176.000 C 113.160 175.683,112.800 175.190,112.800 174.904 C 112.800 174.116,104.212 165.200,103.453 165.200 C 103.191 165.200,102.717 164.840,102.400 164.400 C 102.083 163.960,101.503 163.600,101.112 163.600 C 100.720 163.600,100.400 163.457,100.400 163.281 C 100.400 162.850,94.739 160.000,93.882 160.000 C 93.507 160.000,93.200 159.820,93.200 159.600 C 93.200 159.380,92.660 159.200,92.000 159.200 C 91.340 159.200,90.800 159.020,90.800 158.800 C 90.800 158.580,90.271 158.400,89.624 158.400 C 88.977 158.400,88.336 158.220,88.200 158.000 C 88.064 157.780,87.243 157.600,86.376 157.600 C 85.509 157.600,84.800 157.420,84.800 157.200 C 84.800 156.963,83.333 156.800,81.200 156.800 C 79.067 156.800,77.600 156.637,77.600 156.400 C 77.600 156.149,75.133 156.000,71.000 156.000 L 64.400 156.000 64.400 147.400 L 64.400 138.800 74.176 138.800 C 80.263 138.800,84.046 138.649,84.200 138.400 C 84.336 138.180,85.146 138.000,86.000 138.000 C 86.854 138.000,87.664 137.820,87.800 137.600 C 87.936 137.380,88.566 137.200,89.200 137.200 C 89.834 137.200,90.464 137.020,90.600 136.800 C 90.736 136.580,91.197 136.400,91.624 136.400 C 92.051 136.400,92.400 136.220,92.400 136.000 C 92.400 135.780,92.940 135.600,93.600 135.600 C 94.260 135.600,94.800 135.420,94.800 135.200 C 94.800 134.980,95.160 134.800,95.600 134.800 C 96.040 134.800,96.400 134.620,96.400 134.400 C 96.400 134.180,96.678 134.000,97.017 134.000 C 97.356 134.000,98.020 133.640,98.492 133.200 C 98.964 132.760,99.587 132.400,99.875 132.400 C 100.164 132.400,100.400 132.220,100.400 132.000 C 100.400 131.780,100.688 131.600,101.040 131.600 C 101.391 131.600,102.183 131.060,102.800 130.400 C 103.417 129.740,104.093 129.200,104.303 129.200 C 104.994 129.200,112.000 121.994,112.000 121.284 C 112.000 121.115,112.360 120.717,112.800 120.400 C 113.240 120.083,113.600 119.593,113.600 119.312 C 113.600 119.030,113.780 118.800,114.000 118.800 C 114.220 118.800,114.400 118.530,114.400 118.200 C 114.400 117.870,114.580 117.600,114.800 117.600 C 115.020 117.600,115.200 117.240,115.200 116.800 C 115.200 116.360,115.352 116.000,115.537 116.000 C 115.723 116.000,116.282 115.145,116.781 114.100 C 117.280 113.055,117.848 111.887,118.044 111.505 C 118.240 111.123,118.400 110.538,118.400 110.205 C 118.400 109.872,118.580 109.600,118.800 109.600 C 119.020 109.600,119.200 109.161,119.200 108.624 C 119.200 108.087,119.380 107.536,119.600 107.400 C 119.820 107.264,120.000 106.659,120.000 106.056 C 120.000 105.453,120.162 104.789,120.359 104.580 C 121.269 103.617,122.043 87.483,121.219 86.659 C 120.988 86.428,120.800 85.376,120.800 84.320 C 120.800 83.264,120.620 82.400,120.400 82.400 C 120.180 82.400,120.000 81.770,120.000 81.000 C 120.000 80.230,119.820 79.600,119.600 79.600 C 119.380 79.600,119.200 79.161,119.200 78.624 C 119.200 78.087,119.020 77.536,118.800 77.400 C 118.580 77.264,118.400 76.803,118.400 76.376 C 118.400 75.949,118.220 75.600,118.000 75.600 C 117.780 75.600,117.600 75.240,117.600 74.800 C 117.600 74.360,117.420 74.000,117.200 74.000 C 116.980 74.000,116.800 73.640,116.800 73.200 C 116.800 72.760,116.620 72.400,116.400 72.400 C 116.180 72.400,116.000 72.122,116.000 71.783 C 116.000 71.444,115.640 70.780,115.200 70.308 C 114.760 69.836,114.400 69.213,114.400 68.925 C 114.400 68.636,114.250 68.400,114.068 68.400 C 113.885 68.400,113.480 67.905,113.168 67.300 C 112.465 65.939,105.088 58.400,104.458 58.400 C 104.206 58.400,104.000 58.220,104.000 58.000 C 104.000 57.780,103.770 57.600,103.488 57.600 C 103.207 57.600,102.717 57.240,102.400 56.800 C 102.083 56.360,101.518 56.000,101.145 56.000 C 100.772 56.000,100.407 55.865,100.333 55.700 C 100.145 55.276,95.201 52.800,94.544 52.800 C 94.245 52.800,94.000 52.620,94.000 52.400 C 94.000 52.180,93.460 52.000,92.800 52.000 C 92.140 52.000,91.600 51.820,91.600 51.600 C 91.600 51.380,91.150 51.200,90.600 51.200 C 90.050 51.200,89.600 51.020,89.600 50.800 C 89.600 50.580,88.891 50.400,88.024 50.400 C 87.157 50.400,86.336 50.220,86.200 50.000 C 86.064 49.780,84.624 49.600,83.000 49.600 C 81.376 49.600,79.936 49.420,79.800 49.200 C 79.649 48.956,76.596 48.800,71.976 48.800 L 64.400 48.800 64.400 43.600 C 64.400 40.400,64.554 38.400,64.800 38.400 C 65.020 38.400,65.200 37.950,65.200 37.400 C 65.200 36.850,65.380 36.400,65.600 36.400 C 65.820 36.400,66.000 36.040,66.000 35.600 C 66.000 35.160,66.180 34.800,66.400 34.800 C 66.620 34.800,66.800 34.527,66.800 34.193 C 66.800 33.351,71.572 28.657,73.127 27.968 C 73.827 27.658,74.400 27.269,74.400 27.102 C 74.400 26.936,74.749 26.800,75.176 26.800 C 75.603 26.800,76.064 26.620,76.200 26.400 C 76.336 26.180,77.247 26.000,78.224 26.000 C 79.201 26.000,80.000 25.820,80.000 25.600 C 80.000 25.334,126.667 25.200,219.200 25.200 C 311.733 25.200,358.400 25.334,358.400 25.600 M6.800 82.800 C 6.800 83.020,6.440 83.200,6.000 83.200 C 5.560 83.200,5.200 83.380,5.200 83.600 C 5.200 83.820,4.924 84.000,4.587 84.000 C 3.808 84.000,1.200 86.583,1.200 87.353 C 1.200 87.672,0.976 88.008,0.702 88.099 C -0.198 88.399,-0.240 97.573,0.650 99.454 C 2.102 102.525,5.721 105.200,8.423 105.200 C 9.290 105.200,10.000 105.380,10.000 105.600 C 10.000 105.863,21.267 106.000,43.000 106.000 C 64.733 106.000,76.000 105.863,76.000 105.600 C 76.000 105.380,76.650 105.200,77.446 105.200 C 79.864 105.200,84.800 101.853,84.800 100.213 C 84.800 99.876,84.980 99.600,85.200 99.600 C 85.420 99.600,85.600 99.240,85.600 98.800 C 85.600 98.360,85.780 98.000,86.000 98.000 C 86.241 98.000,86.400 96.333,86.400 93.800 C 86.400 91.267,86.241 89.600,86.000 89.600 C 85.780 89.600,85.600 89.240,85.600 88.800 C 85.600 88.360,85.420 88.000,85.200 88.000 C 84.980 88.000,84.800 87.748,84.800 87.440 C 84.800 86.712,82.088 84.000,81.360 84.000 C 81.052 84.000,80.800 83.820,80.800 83.600 C 80.800 83.380,80.440 83.200,80.000 83.200 C 79.560 83.200,79.200 83.020,79.200 82.800 C 79.200 82.536,66.867 82.400,43.000 82.400 C 19.133 82.400,6.800 82.536,6.800 82.800 M228.800 87.600 C 228.800 87.833,227.467 88.000,225.600 88.000 C 223.733 88.000,222.400 88.167,222.400 88.400 C 222.400 88.620,221.601 88.800,220.624 88.800 C 219.647 88.800,218.736 88.980,218.600 89.200 C 218.464 89.420,217.823 89.600,217.176 89.600 C 216.529 89.600,216.000 89.780,216.000 90.000 C 216.000 90.220,215.460 90.400,214.800 90.400 C 214.140 90.400,213.600 90.580,213.600 90.800 C 213.600 91.020,213.245 91.200,212.812 91.200 C 212.379 91.200,211.383 91.560,210.600 92.000 C 209.817 92.440,208.821 92.800,208.388 92.800 C 207.955 92.800,207.600 92.980,207.600 93.200 C 207.600 93.420,207.321 93.600,206.980 93.600 C 206.359 93.600,203.976 94.697,203.600 95.156 C 203.490 95.290,202.995 95.625,202.500 95.900 C 202.005 96.175,201.197 96.625,200.704 96.900 C 200.212 97.175,199.516 97.715,199.157 98.100 C 198.799 98.485,198.345 98.800,198.149 98.800 C 197.348 98.800,188.000 107.674,188.000 108.434 C 188.000 108.643,187.415 109.403,186.700 110.123 C 184.827 112.009,183.216 114.121,183.207 114.700 C 183.203 114.975,183.020 115.200,182.800 115.200 C 182.580 115.200,182.400 115.560,182.400 116.000 C 182.400 116.440,182.248 116.800,182.063 116.800 C 181.877 116.800,181.295 117.655,180.768 118.700 C 180.242 119.745,179.703 120.690,179.571 120.800 C 179.439 120.910,179.082 121.855,178.778 122.900 C 178.474 123.945,178.091 124.800,177.926 124.800 C 177.762 124.800,177.508 125.700,177.362 126.800 C 177.216 127.900,176.940 128.800,176.748 128.800 C 176.557 128.800,176.400 129.430,176.400 130.200 C 176.400 130.970,176.220 131.600,176.000 131.600 C 175.780 131.600,175.600 132.320,175.600 133.200 C 175.600 134.080,175.420 134.800,175.200 134.800 C 174.971 134.800,174.800 136.000,174.800 137.600 C 174.800 139.200,174.629 140.400,174.400 140.400 C 174.151 140.400,174.000 142.733,174.000 146.600 C 174.000 150.467,174.151 152.800,174.400 152.800 C 174.626 152.800,174.800 153.933,174.800 155.400 C 174.800 156.867,174.974 158.000,175.200 158.000 C 175.420 158.000,175.600 158.720,175.600 159.600 C 175.600 160.480,175.780 161.200,176.000 161.200 C 176.220 161.200,176.400 161.819,176.400 162.576 C 176.400 163.333,176.556 164.049,176.747 164.168 C 176.939 164.286,177.208 165.088,177.346 165.950 C 177.582 167.427,177.979 168.386,180.060 172.500 C 180.532 173.435,181.117 174.604,181.360 175.097 C 181.602 175.590,181.935 175.995,182.100 175.997 C 182.265 175.999,182.400 176.320,182.400 176.712 C 182.400 177.103,182.760 177.683,183.200 178.000 C 183.640 178.317,184.000 178.857,184.000 179.200 C 184.000 179.543,184.360 180.083,184.800 180.400 C 185.240 180.717,185.600 181.180,185.600 181.429 C 185.600 181.678,186.161 182.468,186.847 183.186 L 188.094 184.491 187.064 185.445 C 186.498 185.970,185.797 186.400,185.506 186.400 C 185.215 186.400,184.717 186.760,184.400 187.200 C 184.083 187.640,183.543 188.000,183.200 188.000 C 182.857 188.000,182.317 188.360,182.000 188.800 C 181.683 189.240,181.220 189.600,180.971 189.600 C 180.722 189.600,179.954 190.140,179.263 190.800 C 178.572 191.460,177.892 192.000,177.751 192.000 C 177.609 192.000,177.203 192.318,176.847 192.706 C 176.491 193.094,175.480 193.878,174.600 194.449 C 173.720 195.020,172.269 196.188,171.376 197.044 C 170.482 197.900,168.772 199.406,167.576 200.390 C 166.379 201.375,164.813 202.815,164.095 203.590 C 160.021 207.993,159.200 208.978,159.200 209.464 C 159.200 209.759,159.028 210.000,158.818 210.000 C 158.294 210.000,155.200 213.256,155.200 213.808 C 155.200 213.918,154.660 214.572,154.000 215.263 C 153.340 215.954,152.800 216.690,152.800 216.899 C 152.800 217.108,152.260 217.783,151.600 218.400 C 150.940 219.017,150.400 219.769,150.400 220.072 C 150.400 220.375,150.040 220.883,149.600 221.200 C 149.160 221.517,148.800 222.057,148.800 222.400 C 148.800 222.743,148.440 223.283,148.000 223.600 C 147.560 223.917,147.200 224.414,147.200 224.705 C 147.200 224.996,146.868 225.590,146.462 226.026 C 146.056 226.462,145.201 227.849,144.562 229.109 C 143.923 230.369,143.265 231.460,143.100 231.533 C 142.935 231.607,142.800 232.012,142.800 232.433 C 142.800 232.855,142.620 233.200,142.400 233.200 C 142.180 233.200,142.000 233.560,142.000 234.000 C 142.000 234.440,141.820 234.800,141.600 234.800 C 141.380 234.800,141.200 235.160,141.200 235.600 C 141.200 236.040,141.020 236.400,140.800 236.400 C 140.580 236.400,140.400 236.760,140.400 237.200 C 140.400 237.640,140.220 238.000,140.000 238.000 C 139.780 238.000,139.600 238.360,139.600 238.800 C 139.600 239.240,139.420 239.600,139.200 239.600 C 138.980 239.600,138.800 239.960,138.800 240.400 C 138.800 240.840,138.620 241.200,138.400 241.200 C 138.180 241.200,138.000 241.560,138.000 242.000 C 138.000 242.440,137.820 242.800,137.600 242.800 C 137.380 242.800,137.200 243.149,137.200 243.576 C 137.200 244.003,137.020 244.464,136.800 244.600 C 136.580 244.736,136.400 245.197,136.400 245.624 C 136.400 246.051,136.220 246.400,136.000 246.400 C 135.780 246.400,135.600 246.762,135.600 247.205 C 135.600 247.648,135.420 248.368,135.200 248.805 C 134.980 249.242,134.620 249.958,134.400 250.395 C 134.180 250.832,134.000 251.552,134.000 251.995 C 134.000 252.438,133.820 252.800,133.600 252.800 C 133.380 252.800,133.200 253.340,133.200 254.000 C 133.200 254.660,133.020 255.200,132.800 255.200 C 132.580 255.200,132.400 255.729,132.400 256.376 C 132.400 257.023,132.220 257.664,132.000 257.800 C 131.780 257.936,131.600 258.566,131.600 259.200 C 131.600 259.834,131.420 260.464,131.200 260.600 C 130.980 260.736,130.800 261.456,130.800 262.200 C 130.800 262.944,130.620 263.664,130.400 263.800 C 130.180 263.936,130.000 264.631,130.000 265.344 C 130.000 266.057,129.837 266.811,129.639 267.020 C 129.440 267.229,129.179 268.210,129.058 269.200 C 128.937 270.190,128.643 272.080,128.404 273.400 C 127.159 280.294,126.876 294.359,127.975 294.725 C 128.209 294.803,128.400 295.392,128.400 296.033 C 128.400 296.675,128.580 297.200,128.800 297.200 C 129.020 297.200,129.200 297.543,129.200 297.962 C 129.200 298.869,130.808 302.000,131.274 302.000 C 131.453 302.000,131.600 302.267,131.600 302.593 C 131.600 303.599,137.082 309.584,138.012 309.594 C 138.348 309.597,138.883 309.960,139.200 310.400 C 139.517 310.840,140.097 311.200,140.488 311.200 C 140.880 311.200,141.200 311.380,141.200 311.600 C 141.200 311.820,141.560 312.000,142.000 312.000 C 142.440 312.000,142.800 312.180,142.800 312.400 C 142.800 312.620,143.239 312.800,143.776 312.800 C 144.313 312.800,144.864 312.980,145.000 313.200 C 145.136 313.420,145.867 313.600,146.624 313.600 C 147.381 313.600,148.000 313.780,148.000 314.000 C 148.000 314.265,176.867 314.400,233.800 314.400 C 290.733 314.400,319.600 314.265,319.600 314.000 C 319.600 313.780,320.320 313.600,321.200 313.600 C 322.080 313.600,322.800 313.420,322.800 313.200 C 322.800 312.980,323.239 312.800,323.776 312.800 C 324.313 312.800,324.864 312.620,325.000 312.400 C 325.136 312.180,325.597 312.000,326.024 312.000 C 326.451 312.000,326.800 311.850,326.800 311.668 C 326.800 311.485,327.295 311.081,327.900 310.770 C 328.505 310.460,329.291 309.889,329.647 309.503 C 330.003 309.116,330.463 308.800,330.669 308.800 C 331.166 308.800,334.000 306.192,334.000 305.734 C 334.000 305.538,334.360 305.117,334.800 304.800 C 335.240 304.483,335.600 303.903,335.600 303.512 C 335.600 303.120,335.750 302.800,335.933 302.800 C 336.395 302.800,338.800 298.056,338.800 297.144 C 338.800 296.735,338.980 296.400,339.200 296.400 C 339.420 296.400,339.600 295.806,339.600 295.080 C 339.600 294.354,339.788 293.572,340.018 293.342 C 340.773 292.587,339.954 273.200,339.167 273.200 C 338.965 273.200,338.800 272.221,338.800 271.024 C 338.800 269.827,338.620 268.736,338.400 268.600 C 338.180 268.464,338.000 267.643,338.000 266.776 C 338.000 265.909,337.820 265.200,337.600 265.200 C 337.380 265.200,337.200 264.491,337.200 263.624 C 337.200 262.757,337.020 261.936,336.800 261.800 C 336.580 261.664,336.400 261.023,336.400 260.376 C 336.400 259.729,336.220 259.200,336.000 259.200 C 335.780 259.200,335.600 258.671,335.600 258.024 C 335.600 257.377,335.420 256.736,335.200 256.600 C 334.980 256.464,334.800 255.733,334.800 254.976 C 334.800 254.219,334.620 253.600,334.400 253.600 C 334.180 253.600,334.000 253.161,334.000 252.624 C 334.000 252.087,333.820 251.536,333.600 251.400 C 333.380 251.264,333.200 250.803,333.200 250.376 C 333.200 249.949,333.020 249.600,332.800 249.600 C 332.580 249.600,332.400 249.060,332.400 248.400 C 332.400 247.740,332.220 247.200,332.000 247.200 C 331.780 247.200,331.600 246.750,331.600 246.200 C 331.600 245.650,331.420 245.200,331.200 245.200 C 330.980 245.200,330.800 244.840,330.800 244.400 C 330.800 243.960,330.620 243.600,330.400 243.600 C 330.180 243.600,330.000 243.240,330.000 242.800 C 330.000 242.360,329.820 242.000,329.600 242.000 C 329.380 242.000,329.200 241.728,329.200 241.395 C 329.200 241.062,329.043 240.477,328.850 240.095 C 328.658 239.713,328.149 238.680,327.720 237.800 C 326.739 235.788,325.870 234.259,325.562 234.000 C 325.430 233.890,325.192 233.267,325.033 232.615 C 324.873 231.964,324.215 230.649,323.571 229.695 C 322.927 228.741,322.400 227.789,322.400 227.580 C 322.400 227.371,322.220 227.200,322.000 227.200 C 321.780 227.200,321.600 226.880,321.600 226.488 C 321.600 226.097,321.240 225.517,320.800 225.200 C 320.360 224.883,320.000 224.343,320.000 224.000 C 320.000 223.657,319.640 223.117,319.200 222.800 C 318.760 222.483,318.400 221.943,318.400 221.600 C 318.400 221.257,318.040 220.717,317.600 220.400 C 317.160 220.083,316.800 219.620,316.800 219.371 C 316.800 219.122,316.260 218.354,315.600 217.663 C 314.940 216.972,314.400 216.226,314.400 216.004 C 314.400 215.782,314.220 215.600,314.000 215.600 C 313.780 215.600,313.600 215.414,313.600 215.187 C 313.600 214.959,313.015 214.171,312.300 213.435 C 311.585 212.699,310.460 211.426,309.800 210.607 C 308.030 208.408,295.666 196.000,295.245 196.000 C 295.047 196.000,294.329 195.505,293.651 194.900 C 291.588 193.061,291.247 192.800,290.905 192.800 C 290.724 192.800,290.317 192.440,290.000 192.000 C 289.683 191.560,289.193 191.200,288.912 191.200 C 288.630 191.200,288.400 191.020,288.400 190.800 C 288.400 190.580,288.196 190.400,287.947 190.400 C 287.698 190.400,287.203 190.084,286.847 189.697 C 286.491 189.311,285.705 188.740,285.100 188.430 C 284.495 188.119,284.000 187.715,284.000 187.532 C 284.000 187.350,283.680 187.200,283.288 187.200 C 282.897 187.200,282.317 186.840,282.000 186.400 C 281.683 185.960,281.103 185.600,280.712 185.600 C 279.385 185.600,279.671 183.828,281.234 182.368 C 281.875 181.769,282.400 181.031,282.400 180.728 C 282.400 180.425,282.760 179.917,283.200 179.600 C 283.640 179.283,284.000 178.743,284.000 178.400 C 284.000 178.057,284.360 177.517,284.800 177.200 C 285.240 176.883,285.600 176.318,285.600 175.945 C 285.600 175.572,285.736 175.207,285.902 175.133 C 286.190 175.006,288.458 170.506,289.296 168.400 C 289.514 167.850,289.852 167.087,290.047 166.705 C 290.241 166.323,290.400 165.659,290.400 165.229 C 290.400 164.799,290.562 164.347,290.759 164.225 C 290.957 164.103,291.245 162.742,291.400 161.200 C 291.555 159.658,291.843 158.297,292.041 158.175 C 292.238 158.053,292.400 156.703,292.400 155.176 C 292.400 153.592,292.572 152.400,292.800 152.400 C 293.046 152.400,293.200 150.408,293.200 147.224 C 293.200 144.204,293.033 141.944,292.800 141.800 C 292.580 141.664,292.400 140.213,292.400 138.576 C 292.400 136.939,292.246 135.600,292.057 135.600 C 291.869 135.600,291.594 134.299,291.446 132.709 C 291.298 131.119,291.003 129.643,290.789 129.429 C 290.575 129.215,290.400 128.626,290.400 128.120 C 290.400 127.614,290.220 127.200,290.000 127.200 C 289.780 127.200,289.600 126.660,289.600 126.000 C 289.600 125.340,289.420 124.800,289.200 124.800 C 288.980 124.800,288.800 124.440,288.800 124.000 C 288.800 123.560,288.620 123.200,288.400 123.200 C 288.180 123.200,288.000 122.920,288.000 122.578 C 288.000 121.875,285.561 117.072,285.100 116.867 C 284.935 116.793,284.800 116.428,284.800 116.055 C 284.800 115.682,284.440 115.117,284.000 114.800 C 283.560 114.483,283.200 113.943,283.200 113.600 C 283.200 113.257,282.840 112.717,282.400 112.400 C 281.960 112.083,281.600 111.669,281.600 111.480 C 281.600 111.292,280.880 110.446,280.000 109.600 C 279.120 108.754,278.400 107.865,278.400 107.624 C 278.400 107.196,273.418 102.000,273.008 102.000 C 272.894 102.000,272.059 101.280,271.152 100.400 C 270.245 99.520,269.321 98.800,269.099 98.800 C 268.876 98.800,268.402 98.485,268.046 98.100 C 267.309 97.304,265.342 96.059,264.300 95.729 C 263.915 95.607,263.600 95.348,263.600 95.153 C 263.600 94.959,263.240 94.800,262.800 94.800 C 262.360 94.800,262.000 94.634,262.000 94.432 C 262.000 94.229,261.460 93.945,260.800 93.800 C 260.140 93.655,259.600 93.371,259.600 93.168 C 259.600 92.966,259.150 92.800,258.600 92.800 C 258.050 92.800,257.600 92.620,257.600 92.400 C 257.600 92.180,257.251 92.000,256.824 92.000 C 256.397 92.000,255.936 91.820,255.800 91.600 C 255.664 91.380,255.113 91.200,254.576 91.200 C 254.039 91.200,253.600 91.020,253.600 90.800 C 253.600 90.580,253.060 90.400,252.400 90.400 C 251.740 90.400,251.200 90.220,251.200 90.000 C 251.200 89.780,250.581 89.600,249.824 89.600 C 249.067 89.600,248.336 89.420,248.200 89.200 C 248.064 88.980,247.243 88.800,246.376 88.800 C 245.509 88.800,244.800 88.620,244.800 88.400 C 244.800 88.167,243.467 88.000,241.600 88.000 C 239.733 88.000,238.400 87.833,238.400 87.600 C 238.400 87.356,236.533 87.200,233.600 87.200 C 230.667 87.200,228.800 87.356,228.800 87.600 M239.400 114.800 C 239.536 115.020,240.357 115.200,241.224 115.200 C 242.091 115.200,242.800 115.380,242.800 115.600 C 242.800 115.820,243.250 116.000,243.800 116.000 C 244.350 116.000,244.800 116.180,244.800 116.400 C 244.800 116.620,245.053 116.800,245.362 116.800 C 246.028 116.800,249.341 118.468,249.533 118.900 C 249.607 119.065,249.972 119.200,250.345 119.200 C 250.718 119.200,251.283 119.560,251.600 120.000 C 251.917 120.440,252.382 120.800,252.634 120.800 C 252.886 120.800,254.107 121.745,255.347 122.900 C 256.588 124.055,258.137 125.450,258.790 126.000 C 259.442 126.550,259.981 127.302,259.988 127.671 C 259.995 128.041,260.228 128.581,260.506 128.871 C 261.289 129.690,263.600 134.235,263.600 134.956 C 263.600 135.310,263.780 135.600,264.000 135.600 C 264.220 135.600,264.400 136.039,264.400 136.576 C 264.400 137.113,264.580 137.664,264.800 137.800 C 265.020 137.936,265.200 138.667,265.200 139.424 C 265.200 140.181,265.380 140.800,265.600 140.800 C 265.849 140.800,266.000 143.125,266.000 146.976 C 266.000 150.663,265.839 153.252,265.600 153.400 C 265.380 153.536,265.200 154.166,265.200 154.800 C 265.200 155.434,265.020 156.064,264.800 156.200 C 264.580 156.336,264.400 156.799,264.400 157.229 C 264.400 157.659,264.235 158.323,264.034 158.705 C 263.832 159.087,263.388 160.030,263.047 160.800 C 262.706 161.570,261.882 163.010,261.215 164.000 C 260.549 164.990,260.003 165.938,260.002 166.106 C 259.999 166.568,253.272 173.200,252.806 173.200 C 252.583 173.200,252.400 173.380,252.400 173.600 C 252.400 173.820,252.130 174.000,251.800 174.000 C 251.470 174.000,251.200 174.180,251.200 174.400 C 251.200 174.620,250.930 174.800,250.600 174.800 C 250.270 174.800,250.000 174.980,250.000 175.200 C 250.000 175.420,249.730 175.600,249.400 175.600 C 249.070 175.600,248.800 175.780,248.800 176.000 C 248.800 176.220,248.440 176.400,248.000 176.400 C 247.560 176.400,247.200 176.560,247.200 176.755 C 247.200 176.951,246.556 177.232,245.770 177.379 C 244.983 177.527,243.718 177.997,242.958 178.424 C 242.198 178.851,241.311 179.200,240.988 179.200 C 240.665 179.200,240.400 179.380,240.400 179.600 C 240.400 179.820,240.040 180.000,239.600 180.000 C 239.160 180.000,238.800 180.180,238.800 180.400 C 238.800 180.620,238.564 180.800,238.275 180.800 C 237.986 180.800,237.005 181.160,236.094 181.600 C 234.330 182.452,232.400 182.661,232.400 182.000 C 232.400 181.780,232.040 181.600,231.600 181.600 C 231.160 181.600,230.800 181.420,230.800 181.200 C 230.800 180.980,230.440 180.800,230.000 180.800 C 229.560 180.800,229.200 180.620,229.200 180.400 C 229.200 180.180,228.958 180.000,228.661 180.000 C 228.365 180.000,227.600 179.747,226.961 179.438 C 224.055 178.033,221.994 177.200,221.422 177.200 C 221.080 177.200,220.800 177.020,220.800 176.800 C 220.800 176.580,220.440 176.400,220.000 176.400 C 219.560 176.400,219.200 176.220,219.200 176.000 C 219.200 175.780,218.840 175.600,218.400 175.600 C 217.960 175.600,217.600 175.420,217.600 175.200 C 217.600 174.980,217.280 174.800,216.888 174.800 C 216.497 174.800,215.917 174.440,215.600 174.000 C 215.283 173.560,214.807 173.200,214.542 173.200 C 213.642 173.200,207.139 166.381,206.315 164.573 C 206.071 164.038,205.754 163.600,205.610 163.600 C 205.467 163.600,205.102 162.970,204.800 162.200 C 204.498 161.430,204.104 160.800,203.925 160.800 C 203.746 160.800,203.600 160.440,203.600 160.000 C 203.600 159.560,203.459 159.200,203.287 159.200 C 203.115 159.200,202.743 158.345,202.461 157.300 C 202.178 156.255,201.779 155.087,201.573 154.705 C 201.368 154.323,201.200 153.378,201.200 152.605 C 201.200 151.832,201.020 151.200,200.800 151.200 C 200.558 151.200,200.400 149.467,200.400 146.800 C 200.400 144.133,200.558 142.400,200.800 142.400 C 201.020 142.400,201.200 141.590,201.200 140.600 C 201.200 139.610,201.380 138.800,201.600 138.800 C 201.820 138.800,202.000 138.260,202.000 137.600 C 202.000 136.940,202.180 136.400,202.400 136.400 C 202.620 136.400,202.800 135.961,202.800 135.424 C 202.800 134.887,202.980 134.336,203.200 134.200 C 203.420 134.064,203.600 133.603,203.600 133.176 C 203.600 132.749,203.780 132.400,204.000 132.400 C 204.220 132.400,204.400 132.040,204.400 131.600 C 204.400 131.160,204.550 130.800,204.732 130.800 C 204.915 130.800,205.320 130.305,205.632 129.700 C 205.945 129.095,206.605 128.152,207.100 127.604 C 207.595 127.056,208.000 126.460,208.000 126.278 C 208.000 125.808,212.406 121.600,212.898 121.600 C 213.122 121.600,213.597 121.284,213.953 120.897 C 214.309 120.511,215.095 119.940,215.700 119.630 C 216.305 119.319,216.800 118.915,216.800 118.732 C 216.800 118.550,217.160 118.400,217.600 118.400 C 218.040 118.400,218.400 118.220,218.400 118.000 C 218.400 117.780,218.760 117.600,219.200 117.600 C 219.640 117.600,220.000 117.420,220.000 117.200 C 220.000 116.980,220.450 116.800,221.000 116.800 C 221.550 116.800,222.000 116.620,222.000 116.400 C 222.000 116.180,222.540 116.000,223.200 116.000 C 223.860 116.000,224.400 115.820,224.400 115.600 C 224.400 115.380,225.120 115.200,226.000 115.200 C 226.880 115.200,227.600 115.020,227.600 114.800 C 227.600 114.552,229.792 114.400,233.376 114.400 C 236.796 114.400,239.254 114.563,239.400 114.800 M6.800 190.000 C 6.800 190.220,6.260 190.400,5.600 190.400 C 4.940 190.400,4.400 190.580,4.400 190.800 C 4.400 191.020,4.109 191.200,3.754 191.200 C 2.599 191.200,0.452 193.977,0.174 195.832 C -0.264 198.754,0.131 208.110,0.700 208.300 C 0.975 208.392,1.200 208.656,1.200 208.887 C 1.200 209.437,3.257 211.199,3.900 211.200 C 4.175 211.200,4.400 211.380,4.400 211.600 C 4.400 211.820,4.929 212.000,5.576 212.000 C 6.223 212.000,6.864 212.180,7.000 212.400 C 7.162 212.662,19.537 212.800,42.824 212.800 C 66.275 212.800,78.400 212.664,78.400 212.400 C 78.400 212.180,79.030 212.000,79.800 212.000 C 80.570 212.000,81.200 211.820,81.200 211.600 C 81.200 211.380,81.470 211.200,81.800 211.200 C 82.130 211.200,82.400 211.020,82.400 210.800 C 82.400 210.580,82.715 210.398,83.100 210.395 C 83.839 210.390,85.600 208.019,85.600 207.029 C 85.600 206.709,85.780 206.336,86.000 206.200 C 86.536 205.869,86.536 196.000,86.000 196.000 C 85.780 196.000,85.600 195.728,85.600 195.395 C 85.600 194.058,83.295 191.200,82.218 191.200 C 81.878 191.200,81.600 191.020,81.600 190.800 C 81.600 190.580,81.060 190.400,80.400 190.400 C 79.740 190.400,79.200 190.220,79.200 190.000 C 79.200 189.736,66.867 189.600,43.000 189.600 C 19.133 189.600,6.800 189.736,6.800 190.000 M236.200 196.800 C 236.336 197.020,236.977 197.200,237.624 197.200 C 238.271 197.200,238.800 197.380,238.800 197.600 C 238.800 197.820,239.520 198.000,240.400 198.000 C 241.280 198.000,242.000 198.180,242.000 198.400 C 242.000 198.620,242.619 198.800,243.376 198.800 C 244.133 198.800,244.864 198.980,245.000 199.200 C 245.136 199.420,245.777 199.600,246.424 199.600 C 247.071 199.600,247.600 199.780,247.600 200.000 C 247.600 200.220,248.052 200.400,248.605 200.400 C 249.158 200.400,250.013 200.608,250.505 200.862 C 252.431 201.858,252.817 202.000,253.595 202.000 C 254.038 202.000,254.400 202.180,254.400 202.400 C 254.400 202.620,254.760 202.800,255.200 202.800 C 255.640 202.800,256.000 202.980,256.000 203.200 C 256.000 203.420,256.281 203.600,256.625 203.600 C 257.394 203.600,261.839 205.721,264.776 207.490 C 265.974 208.210,267.239 208.800,267.588 208.800 C 267.938 208.800,268.483 209.160,268.800 209.600 C 269.117 210.040,269.657 210.400,270.000 210.400 C 270.343 210.400,270.883 210.760,271.200 211.200 C 271.517 211.640,272.009 212.000,272.292 212.000 C 272.575 212.000,273.372 212.540,274.063 213.200 C 274.754 213.860,275.490 214.400,275.699 214.400 C 275.908 214.400,276.583 214.940,277.200 215.600 C 277.817 216.260,278.419 216.800,278.538 216.800 C 279.018 216.800,292.000 229.418,292.000 229.885 C 292.001 230.058,292.447 230.740,292.993 231.400 C 294.439 233.151,294.389 233.081,297.103 237.068 C 298.476 239.085,299.600 240.848,299.600 240.985 C 299.600 241.121,299.960 241.620,300.400 242.092 C 300.840 242.564,301.200 243.187,301.200 243.475 C 301.200 243.764,301.380 244.000,301.600 244.000 C 301.820 244.000,302.000 244.360,302.000 244.800 C 302.000 245.240,302.180 245.600,302.400 245.600 C 302.620 245.600,302.800 245.960,302.800 246.400 C 302.800 246.840,302.980 247.200,303.200 247.200 C 303.420 247.200,303.600 247.560,303.600 248.000 C 303.600 248.440,303.780 248.800,304.000 248.800 C 304.220 248.800,304.400 249.160,304.400 249.600 C 304.400 250.040,304.580 250.400,304.800 250.400 C 305.020 250.400,305.200 250.760,305.200 251.200 C 305.200 251.640,305.380 252.000,305.600 252.000 C 305.820 252.000,306.000 252.349,306.000 252.776 C 306.000 253.203,306.180 253.664,306.400 253.800 C 306.620 253.936,306.800 254.487,306.800 255.024 C 306.800 255.561,306.980 256.000,307.200 256.000 C 307.420 256.000,307.600 256.349,307.600 256.776 C 307.600 257.203,307.780 257.664,308.000 257.800 C 308.220 257.936,308.400 258.397,308.400 258.824 C 308.400 259.251,308.580 259.600,308.800 259.600 C 309.020 259.600,309.200 260.140,309.200 260.800 C 309.200 261.460,309.354 262.000,309.543 262.000 C 309.732 262.000,310.003 263.117,310.146 264.482 C 310.288 265.848,310.584 267.144,310.802 267.362 C 311.021 267.581,311.200 268.433,311.200 269.256 C 311.200 270.079,311.380 270.864,311.600 271.000 C 311.820 271.136,312.000 272.036,312.000 273.000 C 312.000 273.964,312.180 274.864,312.400 275.000 C 312.620 275.136,312.800 276.486,312.800 278.000 C 312.800 279.514,312.980 280.864,313.200 281.000 C 313.420 281.136,313.600 282.587,313.600 284.224 L 313.600 287.200 234.000 287.200 L 154.400 287.200 154.400 283.624 C 154.400 281.657,154.580 279.936,154.800 279.800 C 155.020 279.664,155.200 278.404,155.200 277.000 C 155.200 275.596,155.380 274.336,155.600 274.200 C 155.820 274.064,156.000 273.164,156.000 272.200 C 156.000 271.236,156.180 270.336,156.400 270.200 C 156.620 270.064,156.800 269.331,156.800 268.571 C 156.800 267.811,156.958 266.877,157.151 266.495 C 157.723 265.363,158.330 263.131,158.621 261.095 C 158.770 260.047,159.052 259.092,159.246 258.971 C 159.441 258.851,159.600 258.403,159.600 257.976 C 159.600 257.549,159.780 257.200,160.000 257.200 C 160.220 257.200,160.400 256.750,160.400 256.200 C 160.400 255.650,160.580 255.200,160.800 255.200 C 161.020 255.200,161.200 254.851,161.200 254.424 C 161.200 253.997,161.380 253.536,161.600 253.400 C 161.820 253.264,162.000 252.713,162.000 252.176 C 162.000 251.639,162.180 251.200,162.400 251.200 C 162.620 251.200,162.800 250.840,162.800 250.400 C 162.800 249.960,162.980 249.600,163.200 249.600 C 163.420 249.600,163.600 249.240,163.600 248.800 C 163.600 248.360,163.780 248.000,164.000 248.000 C 164.220 248.000,164.400 247.640,164.400 247.200 C 164.400 246.760,164.580 246.400,164.800 246.400 C 165.020 246.400,165.200 246.040,165.200 245.600 C 165.200 245.160,165.380 244.800,165.600 244.800 C 165.820 244.800,166.000 244.564,166.000 244.275 C 166.000 243.987,166.315 243.402,166.700 242.975 C 167.085 242.549,167.670 241.660,168.000 241.000 C 168.330 240.340,168.915 239.451,169.300 239.025 C 169.685 238.598,170.000 238.096,170.000 237.908 C 170.000 237.720,170.360 237.180,170.800 236.708 C 171.240 236.236,171.600 235.613,171.600 235.325 C 171.600 235.036,171.735 234.799,171.900 234.797 C 172.065 234.796,172.650 234.121,173.200 233.297 C 174.539 231.293,174.787 230.981,176.300 229.392 C 177.015 228.641,177.605 227.796,177.612 227.513 C 177.619 227.231,178.170 226.550,178.838 226.000 C 179.505 225.450,181.448 223.650,183.155 222.000 C 184.863 220.350,186.858 218.550,187.589 218.000 C 188.320 217.450,189.423 216.550,190.039 216.000 C 190.655 215.450,191.711 214.505,192.386 213.900 C 193.061 213.295,193.815 212.800,194.060 212.800 C 194.305 212.800,194.797 212.484,195.153 212.097 C 195.509 211.711,196.295 211.140,196.900 210.830 C 197.505 210.519,198.000 210.115,198.000 209.932 C 198.000 209.750,198.360 209.600,198.800 209.600 C 199.240 209.600,199.600 209.458,199.600 209.283 C 199.600 209.109,200.185 208.692,200.900 208.356 C 201.615 208.020,203.974 206.813,206.143 205.673 C 208.311 204.533,210.336 203.600,210.643 203.600 C 210.949 203.600,211.200 203.420,211.200 203.200 C 211.200 202.980,211.560 202.800,212.000 202.800 C 212.440 202.800,212.800 202.620,212.800 202.400 C 212.800 202.180,213.239 202.000,213.776 202.000 C 214.313 202.000,214.864 201.820,215.000 201.600 C 215.136 201.380,215.597 201.200,216.024 201.200 C 216.451 201.200,216.800 201.020,216.800 200.800 C 216.800 200.580,217.329 200.400,217.976 200.400 C 218.623 200.400,219.264 200.220,219.400 200.000 C 219.536 199.780,220.256 199.600,221.000 199.600 C 221.744 199.600,222.464 199.420,222.600 199.200 C 222.736 198.980,223.377 198.800,224.024 198.800 C 224.671 198.800,225.200 198.620,225.200 198.400 C 225.200 198.180,225.920 198.000,226.800 198.000 C 227.680 198.000,228.400 197.820,228.400 197.600 C 228.400 197.380,229.120 197.200,230.000 197.200 C 230.880 197.200,231.600 197.020,231.600 196.800 C 231.600 196.580,232.579 196.400,233.776 196.400 C 234.973 196.400,236.064 196.580,236.200 196.800 M7.600 296.800 C 7.600 297.020,7.184 297.200,6.675 297.200 C 6.167 297.200,5.364 297.560,4.892 298.000 C 4.420 298.440,3.855 298.800,3.637 298.800 C 3.419 298.800,2.738 299.475,2.123 300.300 C 1.508 301.125,0.824 301.928,0.602 302.085 C -0.272 302.706,0.105 313.848,1.028 314.666 C 1.483 315.070,1.972 315.715,2.115 316.100 C 2.258 316.485,2.611 316.800,2.899 316.800 C 3.187 316.800,3.683 317.160,4.000 317.600 C 4.317 318.040,4.897 318.400,5.288 318.400 C 5.680 318.400,6.000 318.580,6.000 318.800 C 6.000 319.020,6.349 319.200,6.776 319.200 C 7.203 319.200,7.664 319.380,7.800 319.600 C 8.141 320.152,77.459 320.152,77.800 319.600 C 77.936 319.380,78.487 319.200,79.024 319.200 C 79.561 319.200,80.000 319.020,80.000 318.800 C 80.000 318.580,80.286 318.400,80.635 318.400 C 81.633 318.400,85.600 314.043,85.600 312.946 C 85.600 312.426,85.780 312.000,86.000 312.000 C 86.529 312.000,86.529 304.527,86.000 304.200 C 85.780 304.064,85.600 303.592,85.600 303.150 C 85.600 301.750,80.557 297.200,79.005 297.200 C 78.672 297.200,78.400 297.020,78.400 296.800 C 78.400 296.536,66.333 296.400,43.000 296.400 C 19.667 296.400,7.600 296.536,7.600 296.800 " stroke="none" fill="#c8c9ca" fill-rule="evenodd"></path><path id="path1" d="" stroke="none" fill="#080404" fill-rule="evenodd"></path><path id="path2" d="" stroke="none" fill="#080404" fill-rule="evenodd"></path><path id="path3" d="" stroke="none" fill="#c8c9ca" fill-rule="evenodd"></path><path id="path4" d="" stroke="none" fill="#c8c9ca" fill-rule="evenodd"></path></g></svg>