<?xml version="1.0" standalone="no"?>
<!DOCTYPE svg PUBLIC "-//W3C//DTD SVG 20010904//EN"
 "http://www.w3.org/TR/2001/REC-SVG-20010904/DTD/svg10.dtd">
<svg version="1.0" xmlns="http://www.w3.org/2000/svg"
 width="225.000000pt" height="225.000000pt" viewBox="0 0 225.000000 225.000000"
 preserveAspectRatio="xMidYMid meet">

<g transform="translate(0.000000,225.000000) scale(0.100000,-0.100000)"
fill="#000000" stroke="none">
<path d="M1100 2223 c-8 -3 -40 -29 -70 -56 -161 -147 -437 -277 -685 -322
-171 -31 -171 -30 -162 -275 17 -427 120 -781 310 -1065 76 -112 227 -265 331
-335 100 -66 262 -144 301 -144 17 0 70 19 119 42 424 200 694 598 790 1167
23 134 38 340 35 448 -5 127 -8 130 -165 162 -266 54 -515 170 -680 318 -70
62 -91 72 -124 60z m158 -281 c152 -106 374 -199 567 -239 l85 -18 0 -107 c0
-59 -7 -160 -15 -224 -72 -548 -298 -928 -667 -1119 -47 -25 -94 -45 -103 -45
-27 0 -185 86 -256 139 -139 105 -267 265 -350 438 -109 227 -179 546 -179
813 l0 105 85 18 c231 48 499 172 664 308 l34 28 29 -22 c16 -12 64 -46 106
-75z" fill="#c8c9ca"/>
<path d="M1293 1178 l-203 -203 -118 117 c-64 64 -127 121 -139 127 -47 24
-106 -15 -106 -70 0 -26 21 -52 144 -175 224 -225 208 -227 517 79 200 199
222 224 222 254 0 45 -30 73 -77 73 -35 0 -49 -12 -240 -202z" fill="#c8c9ca"/>
</g>
</svg>
