<?xml version="1.0" standalone="no"?>
<!DOCTYPE svg PUBLIC "-//W3C//DTD SVG 20010904//EN"
 "http://www.w3.org/TR/2001/REC-SVG-20010904/DTD/svg10.dtd">
<svg version="1.0" xmlns="http://www.w3.org/2000/svg"
 width="258.000000pt" height="195.000000pt" viewBox="0 0 258.000000 195.000000"
 preserveAspectRatio="xMidYMid meet">

<g transform="translate(0.000000,195.000000) scale(0.100000,-0.100000)"
fill="#000000" stroke="none">
<path d="M234 1939 c-41 -12 -91 -69 -99 -111 -3 -18 -5 -383 -3 -810 3 -766
3 -777 24 -804 11 -15 33 -37 48 -48 27 -21 33 -21 1081 -21 1048 0 1054 0
1081 21 15 11 37 33 48 48 21 27 21 35 21 831 0 796 0 804 -21 831 -11 15 -33
37 -48 48 -27 20 -39 21 -469 21 l-442 0 -51 -27 c-29 -15 -67 -45 -86 -67
l-33 -39 -33 39 c-19 22 -57 52 -85 67 l-52 27 -425 2 c-241 1 -439 -2 -456
-8z m912 -94 c37 -23 56 -44 77 -84 l27 -55 0 -713 0 -714 -33 25 c-80 62 -73
61 -544 64 -419 3 -432 4 -450 24 -17 19 -18 56 -20 717 -2 547 0 701 10 721
25 50 32 50 473 48 l411 -3 49 -30z m1196 7 l23 -23 3 -677 c2 -372 0 -691 -3
-708 -3 -17 -12 -39 -19 -50 -14 -18 -35 -19 -448 -24 -471 -6 -465 -5 -545
-66 l-33 -25 2 723 c3 711 3 724 24 763 24 45 85 93 135 105 19 5 215 8 436 7
l402 -2 23 -23z m-1666 -1562 l441 -5 41 -29 c23 -16 42 -33 42 -38 0 -5 -201
-7 -475 -6 -459 3 -475 4 -494 23 -11 11 -23 33 -27 49 -6 26 -5 28 12 20 10
-5 217 -11 460 -14z m1688 -7 c-4 -16 -15 -37 -25 -48 -19 -19 -34 -20 -494
-23 -316 -2 -475 1 -475 8 0 5 19 22 42 37 l41 28 443 5 c243 3 446 8 450 13
16 15 24 6 18 -20z"/>
<path d="M373 1634 c-3 -9 -2 -24 4 -33 9 -14 47 -16 338 -16 291 0 329 2 338
16 6 9 7 24 4 33 -6 14 -40 16 -342 16 -302 0 -336 -2 -342 -16z"/>
<path d="M388 1459 c-21 -12 -23 -40 -6 -57 15 -15 420 -17 449 -2 10 6 19 19
19 30 0 11 -9 24 -19 30 -26 13 -420 13 -443 -1z"/>
<path d="M929 1463 c-23 -6 -30 -40 -12 -58 18 -18 114 -20 131 -3 18 18 14
46 -7 58 -19 10 -80 12 -112 3z"/>
<path d="M380 1265 c-6 -8 -10 -22 -8 -32 3 -17 24 -18 343 -18 319 0 340 1
343 18 9 46 -1 47 -343 47 -270 0 -325 -2 -335 -15z"/>
<path d="M382 1081 c-8 -4 -12 -19 -10 -32 l3 -24 320 -3 c176 -1 330 0 343 3
24 6 29 34 10 53 -14 14 -644 17 -666 3z"/>
<path d="M373 884 c-3 -9 -2 -24 4 -33 9 -14 47 -16 338 -16 291 0 329 2 338
16 6 9 7 24 4 33 -6 14 -40 16 -342 16 -302 0 -336 -2 -342 -16z"/>
<path d="M382 708 c-18 -18 -14 -46 7 -58 27 -14 625 -14 652 0 10 6 19 19 19
30 0 11 -9 24 -19 30 -29 15 -643 14 -659 -2z"/>
<path d="M1800 1716 c-117 -25 -209 -98 -258 -205 -21 -43 -28 -75 -30 -141
-4 -79 -1 -93 33 -180 20 -52 41 -119 46 -149 5 -31 9 -177 9 -324 0 -239 2
-268 16 -274 9 -3 24 -2 33 4 14 9 16 46 16 324 l-1 314 -28 70 c-15 39 -34
86 -41 105 -18 45 -18 144 -1 193 31 85 100 153 183 182 21 7 39 12 41 10 1
-1 -16 -38 -39 -82 -33 -63 -41 -89 -41 -130 2 -138 133 -221 257 -164 51 23
68 43 115 133 46 87 55 79 55 -52 0 -105 -16 -138 -110 -230 -84 -82 -112
-125 -95 -145 7 -8 19 -15 27 -15 23 0 191 177 218 230 33 66 47 157 34 228
-19 101 -68 180 -103 166 -9 -3 -40 -52 -68 -108 -58 -112 -85 -143 -133 -152
-62 -11 -125 45 -125 111 0 14 25 75 55 135 30 60 55 116 55 124 0 16 -30 37
-52 35 -7 0 -38 -6 -68 -13z"/>
<path d="M1902 888 c-21 -27 -33 -137 -30 -288 l3 -155 30 0 30 0 6 180 c4 99
10 197 14 219 6 28 4 40 -6 47 -20 12 -35 11 -47 -3z"/>
<path d="M13 1603 c-10 -4 -13 -162 -13 -746 0 -705 1 -744 19 -777 37 -70 56
-75 328 -78 253 -3 283 1 283 39 0 34 -42 40 -283 39 -224 -1 -230 -1 -253 21
l-24 22 0 732 c0 555 -3 734 -12 743 -13 13 -24 14 -45 5z"/>
<path d="M2512 1598 c-9 -9 -12 -187 -12 -739 l0 -728 -24 -28 -24 -28 -879
-5 -878 -5 -3 -24 c-2 -13 2 -28 10 -32 7 -5 402 -9 878 -9 l866 0 44 23 c85
42 80 -7 80 833 0 667 -2 742 -16 748 -22 8 -28 8 -42 -6z"/>
</g>
</svg>
