<?xml version="1.0" standalone="no"?>
<!DOCTYPE svg PUBLIC "-//W3C//DTD SVG 20010904//EN"
 "http://www.w3.org/TR/2001/REC-SVG-20010904/DTD/svg10.dtd">
<svg version="1.0" xmlns="http://www.w3.org/2000/svg"
 width="247.000000pt" height="204.000000pt" viewBox="0 0 247.000000 204.000000"
 preserveAspectRatio="xMidYMid meet">

<g transform="translate(0.000000,204.000000) scale(0.100000,-0.100000)"
fill="#000000" stroke="none">
<path d="M25 2015 l-25 -24 0 -791 c0 -777 0 -790 20 -810 20 -20 33 -20 1215
-20 1182 0 1195 0 1215 20 20 20 20 33 20 810 l0 791 -25 24 -24 25 -1186 0
-1186 0 -24 -25z m2319 -96 l26 -20 0 -650 c0 -636 0 -649 -20 -669 -20 -20
-33 -20 -790 -20 l-770 0 20 40 c20 39 22 40 73 40 29 0 58 5 65 12 16 16 16
160 0 176 -7 7 -35 12 -64 12 l-51 0 -20 54 -20 53 39 41 c21 23 38 48 38 57
0 9 -23 41 -51 71 -63 66 -90 70 -138 20 l-33 -34 -48 22 -48 21 -4 58 c-2 31
-10 63 -17 70 -14 14 -164 17 -178 4 -4 -5 -10 -33 -13 -64 l-5 -55 -53 -20
-54 -20 -38 37 c-30 29 -44 37 -64 33 l-26 -5 0 356 c0 196 4 361 8 367 22 33
42 33 1128 34 1079 0 1081 0 1108 -21z m-1819 -948 c146 -66 187 -249 84 -374
l-30 -37 -148 0 -147 0 -32 33 c-17 17 -38 49 -46 69 -21 50 -20 143 3 193 20
44 78 100 125 121 45 19 143 17 191 -5z"/>
<path d="M262 1768 c-6 -6 -12 -21 -12 -32 0 -42 12 -47 106 -44 l89 3 0 40 0
40 -85 3 c-58 2 -89 -1 -98 -10z"/>
<path d="M514 1766 c-3 -8 -4 -27 -2 -43 l3 -28 315 0 315 0 3 28 c7 57 7 57
-325 57 -253 0 -305 -2 -309 -14z"/>
<path d="M254 1535 c-4 -8 -3 -26 0 -40 7 -26 7 -26 99 -23 l92 3 3 38 3 37
-96 0 c-76 0 -97 -3 -101 -15z"/>
<path d="M510 1510 l0 -40 95 0 95 0 0 40 0 40 -95 0 -95 0 0 -40z"/>
<path d="M752 1513 l3 -38 510 0 510 0 3 38 3 37 -516 0 -516 0 3 -37z"/>
<path d="M1475 1096 l-150 -93 0 -63 0 -64 155 -93 155 -93 3 61 c2 34 1 67
-1 73 -3 6 -46 34 -96 61 -50 28 -91 52 -91 55 0 3 43 29 95 58 l95 53 0 70
c0 38 -3 69 -7 68 -5 0 -75 -42 -158 -93z"/>
<path d="M1840 1121 l0 -69 95 -53 c52 -28 95 -55 95 -59 0 -3 -43 -30 -95
-59 l-95 -52 0 -71 c0 -38 4 -68 9 -66 5 2 77 44 160 93 l150 90 1 65 0 65
-154 93 c-85 50 -157 92 -160 92 -3 0 -6 -31 -6 -69z"/>
<path d="M926 221 c-7 -57 -56 -136 -114 -188 l-37 -32 459 -1 460 0 -43 36
c-53 46 -99 125 -107 187 l-7 47 -302 0 -302 0 -7 -49z"/>
</g>
</svg>
