<?xml version="1.0" standalone="no"?>
<!DOCTYPE svg PUBLIC "-//W3C//DTD SVG 20010904//EN"
 "http://www.w3.org/TR/2001/REC-SVG-20010904/DTD/svg10.dtd">
<svg version="1.0" xmlns="http://www.w3.org/2000/svg"
 width="162.000000pt" height="122.000000pt" viewBox="0 0 162.000000 122.000000"
 preserveAspectRatio="xMidYMid meet">

<g transform="translate(0.000000,122.000000) scale(0.100000,-0.100000)"
fill="#000000" stroke="none">
<path d="M410 1211 c-13 -4 -33 -21 -43 -39 -17 -28 -18 -37 -6 -63 22 -55
102 -68 140 -23 8 10 35 14 95 14 l84 0 0 -150 0 -150 25 0 25 0 -2 178 -3
177 -103 3 c-94 2 -105 5 -125 27 -26 27 -52 35 -87 26z" fill="#c8c9ca"/>
<path d="M839 1191 c-34 -27 -32 -86 4 -117 27 -23 27 -25 27 -149 l0 -125 25
0 25 0 0 128 c0 117 2 128 20 140 46 28 45 108 -1 132 -28 16 -75 12 -100 -9z" fill="#c8c9ca"/>
<path d="M1205 1028 c-11 -6 -26 -20 -33 -30 -10 -14 -27 -18 -78 -18 l-64 0
0 -90 c0 -89 0 -90 25 -90 24 0 25 2 25 65 l0 65 38 0 c28 0 45 -7 62 -25 33
-35 91 -35 119 1 35 45 24 96 -26 122 -27 15 -42 15 -68 0z" fill="#c8c9ca"/>
<path d="M325 965 c-50 -49 -15 -135 54 -135 17 0 42 11 59 25 17 14 41 25 55
25 23 0 26 -5 29 -37 3 -33 6 -38 28 -38 23 0 25 4 28 53 4 68 -7 82 -69 82
-38 0 -53 5 -73 25 -33 33 -79 33 -111 0z" fill="#c8c9ca"/>
<path d="M197 743 c-4 -3 -7 -154 -7 -335 l0 -328 -83 0 c-81 0 -107 -9 -107
-36 0 -7 7 -20 16 -28 14 -14 100 -16 794 -16 694 0 780 2 794 16 9 8 16 21
16 28 0 28 -26 36 -110 36 l-85 0 3 321 c2 231 -1 325 -9 335 -10 12 -113 14
-614 14 -331 0 -605 -3 -608 -7z m1191 -335 l2 -298 -580 0 -580 0 0 300 0
300 578 -2 577 -3 3 -297z m-518 -363 c0 -12 -13 -15 -60 -15 -47 0 -60 3 -60
15 0 12 13 15 60 15 47 0 60 -3 60 -15z" fill="#c8c9ca"/>
<path d="M436 644 c-19 -19 -22 -104 -4 -122 7 -7 27 -12 45 -12 28 0 35 -5
48 -36 19 -46 19 -46 -5 -74 -29 -33 -25 -58 16 -96 41 -40 52 -41 88 -13 25
20 27 20 71 3 40 -15 45 -20 45 -48 0 -44 16 -56 71 -56 51 0 63 9 76 59 7 26
17 37 46 48 34 14 38 14 63 -6 36 -29 50 -27 90 13 40 40 42 61 12 93 -21 23
-21 26 -8 66 13 37 19 42 50 45 49 5 60 18 60 73 0 69 -14 79 -114 79 l-83 0
0 -67 c1 -133 -75 -213 -200 -213 -62 0 -118 32 -158 88 -27 39 -30 51 -30
118 l0 74 -82 0 c-61 0 -86 -4 -97 -16z" fill="#c8c9ca"/>
<path d="M686 644 c-11 -28 -6 -94 8 -123 46 -87 186 -87 232 0 14 29 19 95 8
123 -9 24 -239 24 -248 0z" fill="#c8c9ca"/>
</g>
</svg>
