<svg id="svg" version="1.1" xmlns="http://www.w3.org/2000/svg" xmlns:xlink="http://www.w3.org/1999/xlink" width="400" height="400" viewBox="0, 0, 400,400"><g id="svgg"><path id="path0" d="M185.700 0.274 C 183.885 0.361,182.400 0.605,182.400 0.816 C 182.400 1.027,181.230 1.200,179.800 1.200 C 178.333 1.200,177.200 1.374,177.200 1.600 C 177.200 1.820,176.300 2.000,175.200 2.000 C 174.100 2.000,173.200 2.180,173.200 2.400 C 173.200 2.620,172.300 2.800,171.200 2.800 C 170.100 2.800,169.200 2.980,169.200 3.200 C 169.200 3.420,168.581 3.600,167.824 3.600 C 167.067 3.600,166.336 3.780,166.200 4.000 C 166.064 4.220,165.243 4.400,164.376 4.400 C 163.509 4.400,162.800 4.580,162.800 4.800 C 162.800 5.020,162.260 5.200,161.600 5.200 C 160.940 5.200,160.400 5.380,160.400 5.600 C 160.400 5.820,159.770 6.000,159.000 6.000 C 158.230 6.000,157.600 6.180,157.600 6.400 C 157.600 6.620,157.060 6.800,156.400 6.800 C 155.740 6.800,155.200 6.980,155.200 7.200 C 155.200 7.420,154.660 7.600,154.000 7.600 C 153.340 7.600,152.800 7.780,152.800 8.000 C 152.800 8.220,152.260 8.400,151.600 8.400 C 150.940 8.400,150.400 8.580,150.400 8.800 C 150.400 9.020,150.051 9.200,149.624 9.200 C 149.197 9.200,148.736 9.380,148.600 9.600 C 148.464 9.820,147.986 10.000,147.537 10.000 C 146.790 10.000,144.839 10.719,143.105 11.634 C 142.723 11.835,142.138 12.000,141.805 12.000 C 141.472 12.000,141.200 12.180,141.200 12.400 C 141.200 12.620,140.840 12.800,140.400 12.800 C 139.960 12.800,139.600 12.980,139.600 13.200 C 139.600 13.420,139.328 13.600,138.995 13.600 C 138.662 13.600,138.077 13.757,137.695 13.950 C 137.313 14.142,136.235 14.682,135.300 15.150 C 131.856 16.872,130.197 17.807,130.067 18.100 C 129.993 18.265,129.588 18.400,129.167 18.400 C 128.745 18.400,128.400 18.580,128.400 18.800 C 128.400 19.020,128.130 19.200,127.800 19.200 C 127.470 19.200,127.200 19.380,127.200 19.600 C 127.200 19.820,126.880 20.000,126.488 20.000 C 126.097 20.000,125.517 20.360,125.200 20.800 C 124.883 21.240,124.303 21.600,123.912 21.600 C 123.520 21.600,123.200 21.780,123.200 22.000 C 123.200 22.220,122.880 22.400,122.488 22.400 C 122.097 22.400,121.517 22.760,121.200 23.200 C 120.883 23.640,120.343 24.000,120.000 24.000 C 119.657 24.000,119.117 24.360,118.800 24.800 C 118.483 25.240,117.943 25.600,117.600 25.600 C 117.257 25.600,116.717 25.960,116.400 26.400 C 116.083 26.840,115.585 27.200,115.295 27.200 C 115.004 27.200,113.761 27.965,112.532 28.900 C 111.303 29.835,109.916 30.868,109.449 31.195 C 108.982 31.522,108.123 32.287,107.540 32.895 C 106.956 33.503,106.270 34.000,106.014 34.000 C 105.758 34.000,104.671 34.900,103.600 36.000 C 102.529 37.100,101.460 38.000,101.226 38.000 C 100.992 38.000,100.800 38.180,100.800 38.400 C 100.800 39.379,99.689 38.508,95.571 34.300 C 87.016 25.558,85.358 24.000,84.611 24.000 C 84.275 24.000,84.000 23.820,84.000 23.600 C 84.000 23.380,83.640 23.200,83.200 23.200 C 82.760 23.200,82.400 23.020,82.400 22.800 C 82.400 22.580,81.860 22.400,81.200 22.400 C 80.540 22.400,80.000 22.220,80.000 22.000 C 80.000 21.739,72.924 21.600,59.571 21.600 C 37.644 21.600,38.406 21.673,37.867 19.524 C 37.719 18.937,37.329 18.186,36.999 17.857 C 36.670 17.527,36.400 17.083,36.400 16.869 C 36.400 16.367,32.521 12.400,32.031 12.400 C 31.825 12.400,31.412 12.175,31.113 11.900 C 30.063 10.935,28.766 10.380,26.991 10.137 C 26.006 10.002,25.200 9.736,25.200 9.546 C 25.200 9.356,23.130 9.200,20.600 9.200 C 17.800 9.200,16.000 9.357,16.000 9.600 C 16.000 9.820,15.495 10.000,14.879 10.000 C 12.360 10.000,5.200 15.153,5.200 16.965 C 5.200 17.314,5.053 17.600,4.874 17.600 C 4.415 17.600,2.800 20.725,2.800 21.614 C 2.800 22.020,2.620 22.464,2.400 22.600 C 1.863 22.932,1.863 33.200,2.400 33.200 C 2.620 33.200,2.800 33.740,2.800 34.400 C 2.800 35.060,2.980 35.600,3.200 35.600 C 3.420 35.600,3.600 35.960,3.600 36.400 C 3.600 36.840,3.780 37.200,4.000 37.200 C 4.220 37.200,4.400 37.448,4.400 37.752 C 4.400 38.505,10.019 44.000,10.789 44.000 C 11.015 44.000,11.200 44.180,11.200 44.400 C 11.200 44.620,11.560 44.800,12.000 44.800 C 12.440 44.800,12.800 44.980,12.800 45.200 C 12.800 45.420,13.340 45.600,14.000 45.600 C 14.660 45.600,15.200 45.780,15.200 46.000 C 15.200 46.247,17.267 46.400,20.600 46.400 C 23.933 46.400,26.000 46.247,26.000 46.000 C 26.000 45.780,26.540 45.600,27.200 45.600 C 27.860 45.600,28.400 45.420,28.400 45.200 C 28.400 44.980,28.760 44.800,29.200 44.800 C 29.640 44.800,30.000 44.620,30.000 44.400 C 30.000 44.180,30.276 44.000,30.613 44.000 C 30.951 44.000,31.841 43.415,32.592 42.700 C 33.343 41.985,34.462 40.948,35.078 40.396 C 36.289 39.313,37.390 37.652,38.058 35.900 L 38.478 34.800 57.700 34.800 L 76.921 34.800 81.054 38.873 C 83.328 41.113,85.325 43.053,85.494 43.185 C 85.662 43.317,86.852 44.522,88.138 45.863 L 90.477 48.301 88.438 50.438 C 87.317 51.613,86.400 52.730,86.400 52.919 C 86.400 53.108,85.719 53.924,84.887 54.731 C 84.055 55.539,82.939 56.830,82.406 57.600 C 81.874 58.370,81.159 59.270,80.819 59.600 C 79.699 60.686,77.200 64.122,77.200 64.577 C 77.200 64.823,76.840 65.283,76.400 65.600 C 75.960 65.917,75.600 66.457,75.600 66.800 C 75.600 67.143,75.240 67.683,74.800 68.000 C 74.360 68.317,74.000 68.857,74.000 69.200 C 74.000 69.543,73.640 70.083,73.200 70.400 C 72.760 70.717,72.400 71.257,72.400 71.600 C 72.400 71.943,72.040 72.483,71.600 72.800 C 71.160 73.117,70.800 73.697,70.800 74.088 C 70.800 74.480,70.620 74.800,70.400 74.800 C 70.180 74.800,70.000 75.094,70.000 75.453 C 70.000 75.812,69.671 76.397,69.270 76.753 C 68.868 77.109,68.284 77.985,67.972 78.700 C 67.660 79.415,67.269 80.000,67.102 80.000 C 66.936 80.000,66.800 80.360,66.800 80.800 C 66.800 81.240,66.620 81.600,66.400 81.600 C 66.180 81.600,66.000 81.945,66.000 82.367 C 66.000 82.788,65.865 83.193,65.700 83.267 C 65.276 83.455,62.800 88.399,62.800 89.056 C 62.800 89.355,62.620 89.600,62.400 89.600 C 62.180 89.600,62.000 89.960,62.000 90.400 C 62.000 90.840,61.820 91.200,61.600 91.200 C 61.380 91.200,61.200 91.560,61.200 92.000 C 61.200 92.440,61.031 92.800,60.825 92.800 C 60.618 92.800,60.328 93.610,60.179 94.600 C 60.031 95.590,59.750 96.400,59.555 96.400 C 59.360 96.400,59.200 96.760,59.200 97.200 C 59.200 97.640,59.020 98.000,58.800 98.000 C 58.580 98.000,58.400 98.540,58.400 99.200 C 58.400 99.860,58.220 100.400,58.000 100.400 C 57.780 100.400,57.600 100.940,57.600 101.600 C 57.600 102.260,57.420 102.800,57.200 102.800 C 56.980 102.800,56.800 103.149,56.800 103.576 C 56.800 104.003,56.620 104.464,56.400 104.600 C 56.180 104.736,56.000 105.287,56.000 105.824 C 56.000 106.361,55.820 106.800,55.600 106.800 C 55.380 106.800,55.200 107.520,55.200 108.400 C 55.200 109.280,55.020 110.000,54.800 110.000 C 54.580 110.000,54.400 110.439,54.400 110.976 C 54.400 111.513,54.220 112.064,54.000 112.200 C 53.780 112.336,53.600 112.966,53.600 113.600 C 53.600 114.234,53.420 114.864,53.200 115.000 C 52.980 115.136,52.800 115.856,52.800 116.600 C 52.800 117.344,52.620 118.064,52.400 118.200 C 52.180 118.336,52.000 119.157,52.000 120.024 C 52.000 120.891,51.820 121.600,51.600 121.600 C 51.380 121.600,51.200 122.309,51.200 123.176 C 51.200 124.043,51.020 124.864,50.800 125.000 C 50.580 125.136,50.400 126.126,50.400 127.200 C 50.400 128.274,50.220 129.264,50.000 129.400 C 49.780 129.536,49.600 130.807,49.600 132.224 C 49.600 133.675,49.425 134.800,49.200 134.800 C 48.963 134.800,48.800 136.267,48.800 138.400 C 48.800 140.533,48.637 142.000,48.400 142.000 C 48.180 142.000,48.000 142.996,48.000 144.213 L 48.000 146.425 43.309 146.313 L 38.618 146.200 38.216 145.000 C 37.994 144.340,37.495 143.509,37.107 143.153 C 36.718 142.797,36.400 142.298,36.400 142.044 C 36.400 141.409,32.140 137.200,31.497 137.200 C 31.211 137.200,30.717 136.840,30.400 136.400 C 30.083 135.960,29.591 135.600,29.306 135.600 C 29.022 135.600,28.477 135.442,28.095 135.249 C 25.690 134.034,16.026 133.388,15.400 134.400 C 15.264 134.620,14.820 134.800,14.414 134.800 C 12.407 134.800,4.400 141.334,4.400 142.973 C 4.400 143.318,4.220 143.600,4.000 143.600 C 3.780 143.600,3.600 143.960,3.600 144.400 C 3.600 144.840,3.420 145.200,3.200 145.200 C 2.980 145.200,2.800 145.740,2.800 146.400 C 2.800 147.060,2.620 147.600,2.400 147.600 C 2.154 147.600,2.000 149.600,2.000 152.800 C 2.000 156.000,2.154 158.000,2.400 158.000 C 2.620 158.000,2.800 158.540,2.800 159.200 C 2.800 159.860,2.980 160.400,3.200 160.400 C 3.420 160.400,3.600 160.760,3.600 161.200 C 3.600 161.640,3.750 162.000,3.932 162.000 C 4.115 162.000,4.520 162.492,4.832 163.094 C 5.505 164.389,9.404 168.400,9.991 168.400 C 10.216 168.400,10.400 168.580,10.400 168.800 C 10.400 169.020,10.670 169.200,11.000 169.200 C 11.330 169.200,11.600 169.380,11.600 169.600 C 11.600 169.820,11.949 170.000,12.376 170.000 C 12.803 170.000,13.264 170.180,13.400 170.400 C 13.536 170.620,14.076 170.800,14.600 170.800 C 15.124 170.800,15.664 170.980,15.800 171.200 C 16.130 171.734,25.200 171.734,25.200 171.200 C 25.200 170.980,25.740 170.800,26.400 170.800 C 27.060 170.800,27.600 170.620,27.600 170.400 C 27.600 170.180,28.016 170.000,28.525 170.000 C 29.033 170.000,29.836 169.640,30.308 169.200 C 30.780 168.760,31.358 168.400,31.592 168.400 C 32.146 168.400,36.400 164.146,36.400 163.592 C 36.400 163.358,36.760 162.780,37.200 162.308 C 37.640 161.836,38.000 161.110,38.000 160.696 C 38.000 159.110,38.912 158.800,43.571 158.800 L 48.000 158.800 48.000 164.576 C 48.000 167.996,48.163 170.454,48.400 170.600 C 48.620 170.736,48.800 172.367,48.800 174.224 C 48.800 176.081,48.965 177.600,49.166 177.600 C 49.367 177.600,49.633 178.725,49.756 180.100 C 50.252 185.636,50.490 187.200,50.837 187.200 C 51.037 187.200,51.200 188.010,51.200 189.000 C 51.200 189.990,51.380 190.800,51.600 190.800 C 51.820 190.800,52.000 191.520,52.000 192.400 C 52.000 193.280,52.180 194.000,52.400 194.000 C 52.620 194.000,52.800 194.720,52.800 195.600 C 52.800 196.480,52.980 197.200,53.200 197.200 C 53.420 197.200,53.600 197.920,53.600 198.800 C 53.600 199.680,53.780 200.400,54.000 200.400 C 54.220 200.400,54.400 200.940,54.400 201.600 C 54.400 202.260,54.580 202.800,54.800 202.800 C 55.020 202.800,55.200 203.340,55.200 204.000 C 55.200 204.660,55.380 205.200,55.600 205.200 C 55.820 205.200,56.000 205.740,56.000 206.400 C 56.000 207.060,56.180 207.600,56.400 207.600 C 56.620 207.600,56.800 208.050,56.800 208.600 C 56.800 209.150,56.980 209.600,57.200 209.600 C 57.420 209.600,57.600 210.140,57.600 210.800 C 57.600 211.460,57.780 212.000,58.000 212.000 C 58.220 212.000,58.400 212.349,58.400 212.776 C 58.400 213.203,58.580 213.664,58.800 213.800 C 59.020 213.936,59.200 214.487,59.200 215.024 C 59.200 215.561,59.360 216.000,59.555 216.000 C 59.751 216.000,60.033 216.652,60.183 217.449 C 60.476 219.013,63.555 225.714,64.080 225.933 C 64.256 226.007,64.400 226.412,64.400 226.833 C 64.400 227.255,64.580 227.600,64.800 227.600 C 65.020 227.600,65.200 227.960,65.200 228.400 C 65.200 228.840,65.380 229.200,65.600 229.200 C 65.820 229.200,66.000 229.560,66.000 230.000 C 66.000 230.440,66.180 230.800,66.400 230.800 C 66.620 230.800,66.800 231.078,66.800 231.417 C 66.800 231.756,67.160 232.420,67.600 232.892 C 68.040 233.364,68.400 233.987,68.400 234.275 C 68.400 234.564,68.580 234.800,68.800 234.800 C 69.020 234.800,69.200 235.160,69.200 235.600 C 69.200 236.040,69.380 236.400,69.600 236.400 C 69.820 236.400,70.000 236.636,70.000 236.925 C 70.000 237.213,70.315 237.798,70.700 238.225 C 71.085 238.651,71.655 239.495,71.968 240.100 C 72.280 240.705,72.685 241.200,72.868 241.200 C 73.050 241.200,73.200 241.470,73.200 241.800 C 73.200 242.130,73.350 242.400,73.532 242.400 C 73.715 242.400,74.119 242.895,74.430 243.500 C 74.740 244.105,75.311 244.891,75.697 245.247 C 76.084 245.603,76.400 246.188,76.400 246.547 C 76.400 246.906,76.558 247.200,76.751 247.200 C 76.945 247.200,77.316 247.714,77.576 248.343 C 77.837 248.972,78.669 250.142,79.425 250.944 C 80.181 251.746,80.800 252.560,80.800 252.753 C 80.800 252.946,81.520 253.845,82.400 254.752 C 83.280 255.659,84.000 256.516,84.000 256.657 C 84.000 256.798,84.540 257.429,85.200 258.060 C 86.577 259.376,86.686 259.842,85.700 260.200 C 85.315 260.339,83.290 262.244,81.200 264.433 C 77.187 268.635,70.906 274.970,64.100 281.682 C 61.845 283.905,60.000 286.017,60.000 286.374 C 60.000 286.731,59.640 287.283,59.200 287.600 C 58.760 287.917,58.400 288.497,58.400 288.888 C 58.400 289.280,58.220 289.600,58.000 289.600 C 57.780 289.600,57.600 290.140,57.600 290.800 C 57.600 291.460,57.423 292.000,57.207 292.000 C 56.964 292.000,56.773 295.679,56.707 301.668 L 56.600 311.335 55.400 312.038 C 54.740 312.425,53.925 312.755,53.588 312.771 C 53.252 312.787,52.717 313.160,52.400 313.600 C 52.083 314.040,51.638 314.401,51.412 314.402 C 50.809 314.405,48.559 316.607,47.738 317.998 C 47.347 318.659,46.886 319.200,46.714 319.200 C 46.541 319.200,46.400 319.560,46.400 320.000 C 46.400 320.440,46.220 320.800,46.000 320.800 C 45.780 320.800,45.600 321.072,45.600 321.405 C 45.600 321.738,45.442 322.323,45.249 322.705 C 44.041 325.096,43.421 333.195,44.400 333.800 C 44.620 333.936,44.800 334.399,44.800 334.829 C 44.800 335.259,44.968 335.923,45.174 336.305 C 45.379 336.687,45.783 337.585,46.071 338.300 C 46.360 339.015,46.731 339.600,46.898 339.600 C 47.064 339.600,47.200 339.804,47.200 340.054 C 47.200 340.716,52.316 345.600,53.010 345.600 C 53.334 345.600,53.600 345.780,53.600 346.000 C 53.600 346.220,53.960 346.400,54.400 346.400 C 54.840 346.400,55.200 346.580,55.200 346.800 C 55.200 347.020,55.740 347.200,56.400 347.200 C 57.060 347.200,57.600 347.380,57.600 347.600 C 57.600 347.848,59.733 348.000,63.200 348.000 C 66.667 348.000,68.800 347.848,68.800 347.600 C 68.800 347.380,69.250 347.200,69.800 347.200 C 70.350 347.200,70.800 347.020,70.800 346.800 C 70.800 346.580,71.160 346.400,71.600 346.400 C 72.040 346.400,72.400 346.220,72.400 346.000 C 72.400 345.780,72.720 345.600,73.112 345.600 C 73.503 345.600,74.083 345.240,74.400 344.800 C 74.717 344.360,75.164 344.000,75.393 344.000 C 75.623 344.000,76.156 343.539,76.579 342.976 C 77.002 342.413,77.764 341.468,78.273 340.876 C 78.782 340.284,79.199 339.575,79.200 339.300 C 79.200 339.025,79.380 338.800,79.600 338.800 C 79.820 338.800,80.000 338.440,80.000 338.000 C 80.000 337.560,80.180 337.200,80.400 337.200 C 80.620 337.200,80.800 336.761,80.800 336.224 C 80.800 335.687,80.980 335.136,81.200 335.000 C 81.435 334.855,81.600 332.529,81.600 329.376 C 81.600 326.059,81.447 324.000,81.200 324.000 C 80.980 324.000,80.800 323.460,80.800 322.800 C 80.800 322.140,80.620 321.600,80.400 321.600 C 80.180 321.600,80.000 321.240,80.000 320.800 C 80.000 320.360,79.850 320.000,79.668 320.000 C 79.485 320.000,79.080 319.508,78.768 318.906 C 77.802 317.046,74.255 313.784,72.093 312.768 L 70.033 311.800 70.016 303.508 L 70.000 295.217 82.943 282.272 C 95.262 269.952,95.913 269.367,96.432 270.163 C 98.028 272.612,98.000 272.155,98.000 296.046 C 98.000 308.781,98.137 319.200,98.305 319.200 C 98.473 319.200,98.788 319.605,99.005 320.100 C 99.222 320.595,99.805 321.178,100.300 321.395 C 100.795 321.612,101.200 321.927,101.200 322.095 C 101.200 322.263,102.605 322.400,104.322 322.400 C 107.886 322.400,110.400 320.857,110.400 318.670 C 110.400 318.107,110.580 317.536,110.800 317.400 C 111.350 317.060,111.350 271.340,110.800 271.000 C 110.580 270.864,110.400 269.964,110.400 269.000 C 110.400 268.036,110.220 267.136,110.000 267.000 C 109.780 266.864,109.600 266.403,109.600 265.976 C 109.600 265.549,109.442 265.200,109.250 265.200 C 109.058 265.200,108.796 264.681,108.669 264.046 C 108.542 263.411,107.755 262.196,106.919 261.346 L 105.400 259.800 115.354 249.862 L 125.308 239.923 129.132 243.662 C 131.236 245.718,133.258 247.715,133.625 248.100 C 133.993 248.485,134.667 248.800,135.123 248.800 C 135.580 248.800,136.064 248.980,136.200 249.200 C 136.526 249.728,143.200 249.728,143.200 249.200 C 143.200 248.980,143.560 248.800,144.000 248.800 C 144.440 248.800,144.800 248.620,144.800 248.400 C 144.800 248.180,145.082 248.000,145.427 248.000 C 145.772 248.000,150.021 244.041,154.869 239.203 C 159.718 234.364,163.801 230.458,163.942 230.521 C 164.084 230.585,164.740 230.875,165.400 231.166 C 166.060 231.456,166.913 231.852,167.295 232.047 C 167.677 232.241,168.262 232.400,168.595 232.400 C 168.928 232.400,169.200 232.580,169.200 232.800 C 169.200 233.020,169.560 233.200,170.000 233.200 C 170.440 233.200,170.800 233.380,170.800 233.600 C 170.800 233.820,171.340 234.000,172.000 234.000 C 172.660 234.000,173.200 234.180,173.200 234.400 C 173.200 234.620,173.740 234.800,174.400 234.800 C 175.060 234.800,175.600 234.980,175.600 235.200 C 175.600 235.420,175.960 235.600,176.400 235.600 C 177.184 235.600,177.200 235.867,177.200 249.040 C 177.200 260.501,177.294 262.677,177.837 263.821 C 178.794 265.838,181.461 268.400,182.605 268.400 C 182.932 268.400,183.200 268.580,183.200 268.800 C 183.200 269.061,190.200 269.200,203.400 269.200 C 216.600 269.200,223.600 269.061,223.600 268.800 C 223.600 268.580,223.875 268.400,224.211 268.400 C 225.004 268.400,228.400 265.004,228.400 264.211 C 228.400 263.875,228.580 263.600,228.800 263.600 C 229.020 263.600,229.200 263.240,229.200 262.800 C 229.200 262.360,229.380 262.000,229.600 262.000 C 229.859 262.000,230.000 257.333,230.000 248.800 C 230.000 235.867,230.016 235.600,230.800 235.600 C 231.240 235.600,231.600 235.420,231.600 235.200 C 231.600 234.980,232.140 234.800,232.800 234.800 C 233.460 234.800,234.000 234.620,234.000 234.400 C 234.000 234.180,234.349 234.000,234.776 234.000 C 235.203 234.000,235.664 233.820,235.800 233.600 C 235.936 233.380,236.487 233.200,237.024 233.200 C 237.561 233.200,238.000 233.020,238.000 232.800 C 238.000 232.580,238.360 232.400,238.800 232.400 C 239.240 232.400,239.600 232.220,239.600 232.000 C 239.600 231.780,239.960 231.600,240.400 231.600 C 240.840 231.600,241.200 231.420,241.200 231.200 C 241.200 230.980,241.470 230.800,241.800 230.800 C 242.130 230.800,242.400 230.620,242.400 230.400 C 242.400 230.180,242.670 230.000,243.000 230.000 C 243.330 230.000,243.600 230.178,243.600 230.396 C 243.600 230.783,251.606 238.812,257.166 244.000 C 258.698 245.430,260.065 246.915,260.203 247.300 C 260.341 247.685,260.802 248.000,261.227 248.000 C 261.652 248.000,262.000 248.180,262.000 248.400 C 262.000 248.620,262.360 248.800,262.800 248.800 C 263.240 248.800,263.600 248.980,263.600 249.200 C 263.600 249.437,265.067 249.600,267.200 249.600 C 269.333 249.600,270.800 249.437,270.800 249.200 C 270.800 248.980,271.160 248.800,271.600 248.800 C 272.040 248.800,272.400 248.620,272.400 248.400 C 272.400 248.180,272.639 248.000,272.930 248.000 C 273.222 248.000,273.755 247.685,274.115 247.300 C 274.475 246.915,275.948 245.430,277.388 244.000 C 279.953 241.452,288.851 232.560,294.000 227.399 C 295.430 225.966,297.095 224.318,297.700 223.738 C 298.305 223.158,298.800 222.439,298.800 222.141 C 298.800 221.844,298.980 221.600,299.200 221.600 C 299.420 221.600,299.600 221.251,299.600 220.824 C 299.600 220.397,299.780 219.936,300.000 219.800 C 300.494 219.495,300.532 214.248,300.047 213.295 C 299.852 212.913,299.447 212.064,299.147 211.409 C 298.846 210.753,296.932 208.503,294.893 206.409 C 287.220 198.526,282.455 193.781,281.641 193.212 C 280.771 192.603,280.497 191.600,281.200 191.600 C 281.420 191.600,281.600 191.330,281.600 191.000 C 281.600 190.670,281.780 190.400,282.000 190.400 C 282.220 190.400,282.400 190.040,282.400 189.600 C 282.400 189.160,282.580 188.800,282.800 188.800 C 283.020 188.800,283.200 188.451,283.200 188.024 C 283.200 187.597,283.380 187.136,283.600 187.000 C 283.820 186.864,284.000 186.313,284.000 185.776 C 284.000 185.239,284.180 184.800,284.400 184.800 C 284.620 184.800,284.800 184.451,284.800 184.024 C 284.800 183.597,284.980 183.136,285.200 183.000 C 285.420 182.864,285.600 182.439,285.600 182.056 C 285.600 181.673,285.825 180.875,286.100 180.283 L 286.600 179.206 299.700 179.203 C 308.165 179.201,312.800 179.058,312.800 178.800 C 312.800 178.580,313.250 178.400,313.800 178.400 C 314.350 178.400,314.800 178.220,314.800 178.000 C 314.800 177.780,314.985 177.600,315.211 177.600 C 315.844 177.600,319.200 174.096,319.200 173.434 C 319.200 173.111,319.380 172.736,319.600 172.600 C 320.505 172.041,320.104 133.410,319.177 131.758 C 317.867 129.427,315.322 127.200,313.967 127.200 C 313.325 127.200,312.800 127.020,312.800 126.800 C 312.800 126.541,308.133 126.400,299.600 126.400 C 286.667 126.400,286.400 126.384,286.400 125.600 C 286.400 125.160,286.220 124.800,286.000 124.800 C 285.780 124.800,285.600 124.260,285.600 123.600 C 285.600 122.940,285.420 122.400,285.200 122.400 C 284.980 122.400,284.800 122.040,284.800 121.600 C 284.800 121.160,284.620 120.800,284.400 120.800 C 284.180 120.800,284.000 120.260,284.000 119.600 C 284.000 118.940,283.820 118.400,283.600 118.400 C 283.380 118.400,283.200 118.040,283.200 117.600 C 283.200 117.160,283.020 116.800,282.800 116.800 C 282.580 116.800,282.400 116.440,282.400 116.000 C 282.400 115.560,282.220 115.200,282.000 115.200 C 281.780 115.200,281.600 114.855,281.600 114.433 C 281.600 114.012,281.400 113.600,281.156 113.519 C 280.912 113.437,284.782 109.293,289.756 104.310 C 294.730 99.326,298.800 94.968,298.800 94.624 C 298.800 94.281,298.980 94.000,299.200 94.000 C 299.420 94.000,299.600 93.651,299.600 93.224 C 299.600 92.797,299.780 92.336,300.000 92.200 C 300.220 92.064,300.400 90.523,300.400 88.776 C 300.400 86.925,300.233 85.600,300.000 85.600 C 299.780 85.600,299.600 85.240,299.600 84.800 C 299.600 84.360,299.420 84.000,299.200 84.000 C 298.980 84.000,298.800 83.721,298.800 83.381 C 298.800 83.040,297.495 81.509,295.900 79.979 C 294.305 78.449,292.665 76.858,292.255 76.444 C 287.761 71.899,275.934 60.098,275.527 59.754 C 275.237 59.508,274.735 58.923,274.412 58.454 C 274.088 57.984,273.593 57.600,273.312 57.600 C 273.030 57.600,272.800 57.420,272.800 57.200 C 272.800 56.980,272.350 56.800,271.800 56.800 C 271.250 56.800,270.800 56.620,270.800 56.400 C 270.800 56.163,269.333 56.000,267.200 56.000 C 265.067 56.000,263.600 56.163,263.600 56.400 C 263.600 56.620,263.150 56.800,262.600 56.800 C 262.050 56.800,261.600 56.980,261.600 57.200 C 261.600 57.420,261.342 57.600,261.027 57.600 C 260.712 57.600,260.352 57.920,260.228 58.311 C 260.104 58.702,259.615 59.287,259.140 59.611 C 257.910 60.451,244.199 74.121,243.667 75.037 C 243.424 75.457,243.219 75.575,243.212 75.300 C 243.205 75.025,242.851 74.800,242.424 74.800 C 241.997 74.800,241.536 74.620,241.400 74.400 C 241.264 74.180,240.803 74.000,240.376 74.000 C 239.949 74.000,239.600 73.820,239.600 73.600 C 239.600 73.380,239.240 73.200,238.800 73.200 C 238.360 73.200,238.000 73.020,238.000 72.800 C 238.000 72.580,237.651 72.400,237.224 72.400 C 236.797 72.400,236.336 72.220,236.200 72.000 C 236.064 71.780,235.513 71.600,234.976 71.600 C 234.439 71.600,234.000 71.420,234.000 71.200 C 234.000 70.980,233.460 70.800,232.800 70.800 C 232.140 70.800,231.600 70.620,231.600 70.400 C 231.600 70.180,231.240 70.000,230.800 70.000 C 230.016 70.000,230.000 69.733,230.000 56.800 C 230.000 48.267,229.859 43.600,229.600 43.600 C 229.380 43.600,229.200 43.328,229.200 42.995 C 229.200 40.588,224.391 36.400,221.629 36.400 C 220.759 36.400,219.936 36.220,219.800 36.000 C 219.461 35.452,186.939 35.452,186.600 36.000 C 186.464 36.220,185.731 36.400,184.971 36.400 C 183.775 36.400,182.258 36.940,181.600 37.601 C 181.490 37.711,180.908 38.055,180.307 38.365 C 179.705 38.675,179.108 39.258,178.980 39.662 C 178.852 40.065,178.444 40.698,178.074 41.069 C 177.472 41.670,177.387 43.257,177.281 55.871 C 177.165 69.611,177.140 70.000,176.376 70.000 C 175.943 70.000,175.232 70.180,174.795 70.400 C 174.358 70.620,173.642 70.980,173.205 71.200 C 172.768 71.420,172.048 71.600,171.605 71.600 C 171.162 71.600,170.800 71.780,170.800 72.000 C 170.800 72.220,170.528 72.400,170.195 72.400 C 169.862 72.400,169.232 72.580,168.795 72.800 C 168.358 73.020,167.642 73.380,167.205 73.600 C 166.768 73.820,166.138 74.000,165.805 74.000 C 165.472 74.000,165.200 74.180,165.200 74.400 C 165.200 75.929,162.906 74.583,159.656 71.146 C 152.159 63.218,146.241 57.600,145.385 57.600 C 145.063 57.600,144.800 57.420,144.800 57.200 C 144.800 56.980,144.440 56.800,144.000 56.800 C 143.560 56.800,143.200 56.620,143.200 56.400 C 143.200 56.163,141.741 56.000,139.624 56.000 C 137.657 56.000,135.936 56.180,135.800 56.400 C 135.664 56.620,135.243 56.800,134.865 56.800 C 134.486 56.800,133.917 57.160,133.600 57.600 C 133.283 58.040,132.838 58.401,132.612 58.403 C 132.385 58.404,130.870 59.754,129.245 61.403 C 126.568 64.117,125.200 65.011,125.200 64.046 C 125.200 63.852,124.377 62.907,123.372 61.946 C 118.868 57.643,109.600 48.399,109.600 48.210 C 109.600 48.094,109.852 48.000,110.159 48.000 C 110.467 48.000,111.638 47.100,112.761 46.000 C 113.885 44.900,114.983 44.000,115.202 44.000 C 115.421 44.000,115.600 43.820,115.600 43.600 C 115.600 43.380,115.804 43.200,116.053 43.200 C 116.302 43.200,116.797 42.877,117.153 42.483 C 117.509 42.088,118.655 41.233,119.699 40.583 C 120.744 39.932,121.599 39.265,121.599 39.100 C 121.600 38.935,121.842 38.800,122.138 38.800 C 122.434 38.800,123.002 38.440,123.400 38.000 C 123.798 37.560,124.326 37.200,124.574 37.200 C 124.821 37.200,125.283 36.840,125.600 36.400 C 125.917 35.960,126.457 35.600,126.800 35.600 C 127.143 35.600,127.683 35.240,128.000 34.800 C 128.317 34.360,128.897 34.000,129.288 34.000 C 129.680 34.000,130.000 33.820,130.000 33.600 C 130.000 33.380,130.236 33.200,130.525 33.200 C 130.813 33.200,131.436 32.840,131.908 32.400 C 132.380 31.960,133.044 31.600,133.383 31.600 C 133.722 31.600,134.000 31.420,134.000 31.200 C 134.000 30.980,134.360 30.800,134.800 30.800 C 135.240 30.800,135.600 30.620,135.600 30.400 C 135.600 30.180,135.870 30.000,136.200 30.000 C 136.530 30.000,136.800 29.820,136.800 29.600 C 136.800 29.380,137.145 29.200,137.567 29.200 C 137.988 29.200,138.393 29.065,138.467 28.900 C 138.655 28.476,143.599 26.000,144.256 26.000 C 144.555 26.000,144.800 25.820,144.800 25.600 C 144.800 25.380,145.115 25.199,145.500 25.198 C 145.885 25.196,146.716 24.926,147.346 24.598 C 147.976 24.269,148.741 24.000,149.046 24.000 C 149.351 24.000,149.600 23.820,149.600 23.600 C 149.600 23.380,150.039 23.200,150.576 23.200 C 151.113 23.200,151.664 23.020,151.800 22.800 C 151.936 22.580,152.397 22.400,152.824 22.400 C 153.251 22.400,153.600 22.220,153.600 22.000 C 153.600 21.780,154.039 21.600,154.576 21.600 C 155.113 21.600,155.664 21.420,155.800 21.200 C 155.936 20.980,156.476 20.800,157.000 20.800 C 157.524 20.800,158.064 20.620,158.200 20.400 C 158.336 20.180,158.887 20.000,159.424 20.000 C 159.961 20.000,160.400 19.820,160.400 19.600 C 160.400 19.380,160.940 19.200,161.600 19.200 C 162.260 19.200,162.800 19.020,162.800 18.800 C 162.800 18.580,163.419 18.400,164.176 18.400 C 164.933 18.400,165.664 18.220,165.800 18.000 C 165.936 17.780,166.577 17.600,167.224 17.600 C 167.871 17.600,168.400 17.420,168.400 17.200 C 168.400 16.980,169.120 16.800,170.000 16.800 C 170.880 16.800,171.600 16.620,171.600 16.400 C 171.600 16.180,172.309 16.000,173.176 16.000 C 174.043 16.000,174.864 15.820,175.000 15.600 C 175.136 15.380,176.137 15.200,177.224 15.200 C 178.311 15.200,179.200 15.020,179.200 14.800 C 179.200 14.578,180.267 14.400,181.600 14.400 C 182.933 14.400,184.000 14.222,184.000 14.000 C 184.000 13.769,185.267 13.600,187.000 13.600 C 188.733 13.600,190.000 13.431,190.000 13.200 C 190.000 12.946,192.989 12.800,198.167 12.800 C 204.326 12.800,206.383 12.677,206.535 12.300 C 206.696 11.900,206.743 11.900,206.768 12.300 C 206.792 12.677,208.324 12.800,213.000 12.800 C 216.867 12.800,219.200 12.951,219.200 13.200 C 219.200 13.433,220.533 13.600,222.400 13.600 C 224.267 13.600,225.600 13.767,225.600 14.000 C 225.600 14.220,226.579 14.400,227.776 14.400 C 228.973 14.400,230.064 14.580,230.200 14.800 C 230.336 15.020,231.247 15.200,232.224 15.200 C 233.201 15.200,234.000 15.380,234.000 15.600 C 234.000 15.820,234.709 16.000,235.576 16.000 C 236.443 16.000,237.264 16.180,237.400 16.400 C 237.536 16.620,238.346 16.800,239.200 16.800 C 240.054 16.800,240.864 16.980,241.000 17.200 C 241.136 17.420,241.777 17.600,242.424 17.600 C 243.071 17.600,243.600 17.780,243.600 18.000 C 243.600 18.220,244.129 18.400,244.776 18.400 C 245.423 18.400,246.064 18.580,246.200 18.800 C 246.336 19.020,246.977 19.200,247.624 19.200 C 248.271 19.200,248.800 19.380,248.800 19.600 C 248.800 19.820,249.239 20.000,249.776 20.000 C 250.313 20.000,250.842 20.144,250.951 20.321 C 251.060 20.497,252.072 20.893,253.200 21.200 C 254.328 21.507,255.340 21.903,255.449 22.079 C 255.558 22.256,256.087 22.400,256.624 22.400 C 257.161 22.400,257.600 22.580,257.600 22.800 C 257.600 23.020,257.872 23.200,258.205 23.200 C 258.538 23.200,259.123 23.365,259.505 23.566 C 261.102 24.408,263.164 25.200,263.760 25.200 C 264.112 25.200,264.400 25.380,264.400 25.600 C 264.400 25.820,264.760 26.000,265.200 26.000 C 265.640 26.000,266.000 26.180,266.000 26.400 C 266.000 26.620,266.360 26.800,266.800 26.800 C 267.240 26.800,267.600 26.980,267.600 27.200 C 267.600 27.420,267.960 27.600,268.400 27.600 C 268.840 27.600,269.200 27.780,269.200 28.000 C 269.200 28.220,269.560 28.400,270.000 28.400 C 270.440 28.400,270.800 28.580,270.800 28.800 C 270.800 29.020,271.160 29.200,271.600 29.200 C 272.040 29.200,272.400 29.380,272.400 29.600 C 272.400 29.820,272.720 30.000,273.112 30.000 C 273.503 30.000,274.083 30.360,274.400 30.800 C 274.717 31.240,275.297 31.600,275.688 31.600 C 276.080 31.600,276.400 31.780,276.400 32.000 C 276.400 32.220,276.670 32.400,277.000 32.400 C 277.330 32.400,277.600 32.559,277.600 32.753 C 277.600 32.948,277.915 33.207,278.300 33.329 C 279.209 33.617,281.153 34.812,282.158 35.700 C 282.594 36.085,283.187 36.400,283.475 36.400 C 283.764 36.400,284.000 36.550,284.000 36.732 C 284.000 36.915,284.495 37.320,285.100 37.632 C 285.705 37.945,286.613 38.605,287.118 39.100 C 287.623 39.595,288.181 40.000,288.357 40.000 C 288.639 40.000,289.251 40.447,291.083 41.993 C 291.349 42.217,291.761 42.400,291.999 42.400 C 292.237 42.400,293.117 43.120,293.954 44.000 C 294.791 44.880,295.604 45.600,295.760 45.600 C 295.916 45.600,297.070 46.635,298.323 47.900 C 299.577 49.165,301.232 50.681,302.001 51.269 C 303.849 52.681,307.407 56.207,309.400 58.601 C 310.280 59.658,311.543 61.081,312.207 61.762 C 312.870 62.443,313.853 63.630,314.391 64.400 C 314.929 65.170,315.871 66.277,316.485 66.860 C 317.098 67.444,317.600 68.092,317.600 68.301 C 317.600 68.510,318.140 69.246,318.800 69.937 C 319.460 70.628,320.000 71.297,320.000 71.425 C 320.000 71.553,320.225 71.894,320.500 72.184 C 321.555 73.296,322.400 74.422,322.400 74.716 C 322.400 74.885,322.760 75.283,323.200 75.600 C 323.640 75.917,324.000 76.457,324.000 76.800 C 324.000 77.143,324.360 77.683,324.800 78.000 C 325.240 78.317,325.600 78.897,325.600 79.288 C 325.600 79.680,325.735 80.001,325.900 80.003 C 326.065 80.005,326.388 80.410,326.618 80.903 C 327.281 82.327,329.373 86.180,329.602 86.400 C 329.717 86.510,330.258 87.500,330.805 88.600 C 331.352 89.700,331.935 90.660,332.100 90.733 C 332.265 90.807,332.400 91.212,332.400 91.633 C 332.400 92.055,332.580 92.400,332.800 92.400 C 333.020 92.400,333.200 92.760,333.200 93.200 C 333.200 93.640,333.380 94.000,333.600 94.000 C 333.820 94.000,334.000 94.360,334.000 94.800 C 334.000 95.240,334.180 95.600,334.400 95.600 C 334.620 95.600,334.800 95.960,334.800 96.400 C 334.800 96.840,334.980 97.200,335.200 97.200 C 335.420 97.200,335.600 97.560,335.600 98.000 C 335.600 98.440,335.780 98.800,336.000 98.800 C 336.220 98.800,336.400 99.239,336.400 99.776 C 336.400 100.313,336.580 100.864,336.800 101.000 C 337.020 101.136,337.200 101.597,337.200 102.024 C 337.200 102.451,337.380 102.800,337.600 102.800 C 337.820 102.800,338.000 103.250,338.000 103.800 C 338.000 104.350,338.180 104.800,338.400 104.800 C 338.620 104.800,338.800 105.250,338.800 105.800 C 338.800 106.350,338.980 106.800,339.200 106.800 C 339.420 106.800,339.600 107.250,339.600 107.800 C 339.600 108.350,339.780 108.800,340.000 108.800 C 340.220 108.800,340.400 109.340,340.400 110.000 C 340.400 110.660,340.580 111.200,340.800 111.200 C 341.020 111.200,341.200 111.740,341.200 112.400 C 341.200 113.060,341.380 113.600,341.600 113.600 C 341.820 113.600,342.000 114.140,342.000 114.800 C 342.000 115.460,342.180 116.000,342.400 116.000 C 342.620 116.000,342.800 116.619,342.800 117.376 C 342.800 118.133,342.966 118.855,343.169 118.981 C 343.371 119.106,343.663 120.379,343.816 121.810 C 343.969 123.241,344.253 124.509,344.447 124.629 C 344.641 124.749,344.800 125.521,344.800 126.344 C 344.800 127.167,344.963 128.011,345.161 128.220 C 345.513 128.590,345.793 130.286,346.248 134.800 C 346.370 136.010,346.635 137.171,346.835 137.380 C 347.036 137.589,347.200 139.153,347.200 140.856 C 347.200 142.559,347.380 144.064,347.600 144.200 C 347.857 144.359,348.000 150.996,348.000 162.800 C 348.000 174.604,348.143 181.241,348.400 181.400 C 348.620 181.536,348.800 182.357,348.800 183.224 C 348.800 184.091,348.980 184.800,349.200 184.800 C 349.420 184.800,349.600 185.143,349.600 185.562 C 349.600 186.378,351.201 189.712,351.700 189.933 C 351.865 190.007,352.000 190.412,352.000 190.833 C 352.000 191.255,352.158 191.600,352.351 191.600 C 352.545 191.600,352.927 192.140,353.200 192.800 C 353.473 193.460,353.855 194.000,354.049 194.000 C 354.242 194.000,354.400 194.360,354.400 194.800 C 354.400 195.240,354.580 195.600,354.800 195.600 C 355.020 195.600,355.200 195.960,355.200 196.400 C 355.200 196.840,355.380 197.200,355.600 197.200 C 355.820 197.200,356.000 197.560,356.000 198.000 C 356.000 198.440,356.180 198.800,356.400 198.800 C 356.620 198.800,356.800 199.160,356.800 199.600 C 356.800 200.040,356.980 200.400,357.200 200.400 C 357.420 200.400,357.600 200.760,357.600 201.200 C 357.600 201.640,357.780 202.000,358.000 202.000 C 358.220 202.000,358.400 202.360,358.400 202.800 C 358.400 203.240,358.535 203.602,358.700 203.605 C 358.865 203.608,359.540 204.778,360.200 206.205 C 360.860 207.632,361.535 208.800,361.700 208.800 C 361.865 208.800,362.000 209.160,362.000 209.600 C 362.000 210.040,362.180 210.400,362.400 210.400 C 362.620 210.400,362.800 210.760,362.800 211.200 C 362.800 211.640,362.980 212.000,363.200 212.000 C 363.420 212.000,363.600 212.360,363.600 212.800 C 363.600 213.240,363.780 213.600,364.000 213.600 C 364.220 213.600,364.400 213.960,364.400 214.400 C 364.400 214.840,364.580 215.200,364.800 215.200 C 365.020 215.200,365.200 215.560,365.200 216.000 C 365.200 216.440,365.335 216.801,365.500 216.801 C 365.665 216.802,366.250 217.792,366.800 219.000 C 367.350 220.208,367.901 221.198,368.025 221.199 C 368.149 221.199,368.498 221.830,368.800 222.600 C 369.102 223.370,369.496 224.000,369.675 224.000 C 369.854 224.000,370.000 224.270,370.000 224.600 C 370.000 224.930,370.180 225.200,370.400 225.200 C 370.620 225.200,370.800 225.560,370.800 226.000 C 370.800 226.440,370.980 226.800,371.200 226.800 C 371.420 226.800,371.600 227.160,371.600 227.600 C 371.600 228.040,371.780 228.400,372.000 228.400 C 372.220 228.400,372.400 228.760,372.400 229.200 C 372.400 229.640,372.580 230.000,372.800 230.000 C 373.020 230.000,373.200 230.360,373.200 230.800 C 373.200 231.240,373.380 231.600,373.600 231.600 C 373.820 231.600,374.000 231.960,374.000 232.400 C 374.000 232.840,374.180 233.200,374.400 233.200 C 374.620 233.200,374.800 233.560,374.800 234.000 C 374.800 234.440,374.946 234.800,375.125 234.800 C 375.304 234.800,375.698 235.430,376.000 236.200 C 376.302 236.970,376.696 237.600,376.875 237.600 C 377.054 237.600,377.200 237.779,377.200 237.997 C 377.200 238.680,378.573 241.600,378.894 241.600 C 379.062 241.600,379.200 241.960,379.200 242.400 C 379.200 242.840,379.380 243.200,379.600 243.200 C 379.820 243.200,380.000 243.560,380.000 244.000 C 380.000 244.440,380.180 244.800,380.400 244.800 C 380.620 244.800,380.800 245.160,380.800 245.600 C 380.800 246.040,380.980 246.400,381.200 246.400 C 381.420 246.400,381.600 246.760,381.600 247.200 C 381.600 247.640,381.736 248.000,381.902 248.000 C 382.069 248.000,382.457 248.585,382.765 249.300 C 383.073 250.015,383.657 251.078,384.063 251.662 C 385.994 254.443,386.172 254.400,372.800 254.400 C 365.067 254.400,360.800 254.542,360.800 254.800 C 360.800 255.020,360.080 255.200,359.200 255.200 C 358.320 255.200,357.600 255.380,357.600 255.600 C 357.600 255.820,357.240 256.000,356.800 256.000 C 356.360 256.000,356.000 256.180,356.000 256.400 C 356.000 256.620,355.734 256.800,355.409 256.800 C 354.707 256.800,350.400 260.876,350.400 261.540 C 350.400 261.793,350.220 262.000,350.000 262.000 C 349.780 262.000,349.600 262.360,349.600 262.800 C 349.600 263.240,349.420 263.600,349.200 263.600 C 348.980 263.600,348.800 264.320,348.800 265.200 C 348.800 266.080,348.620 266.800,348.400 266.800 C 347.791 266.800,347.880 280.599,348.500 282.372 C 349.114 284.127,351.294 286.400,352.363 286.400 C 352.797 286.400,353.264 286.580,353.400 286.800 C 353.536 287.020,354.267 287.200,355.024 287.200 C 355.781 287.200,356.400 287.020,356.400 286.800 C 356.400 286.580,356.805 286.400,357.300 286.400 C 358.396 286.399,360.400 284.753,360.400 283.853 C 360.400 283.494,360.580 283.200,360.800 283.200 C 361.051 283.200,361.200 280.624,361.200 276.272 C 361.200 266.732,359.740 267.600,375.779 267.600 C 383.730 267.600,388.444 267.453,388.600 267.200 C 388.736 266.980,389.197 266.800,389.624 266.800 C 390.051 266.800,390.400 266.620,390.400 266.400 C 390.400 266.180,390.670 266.000,391.000 266.000 C 391.330 266.000,391.600 265.820,391.600 265.600 C 391.600 265.380,391.852 265.200,392.160 265.200 C 392.888 265.200,395.600 262.488,395.600 261.760 C 395.600 261.452,395.780 261.200,396.000 261.200 C 396.220 261.200,396.400 260.840,396.400 260.400 C 396.400 259.960,396.580 259.600,396.800 259.600 C 397.020 259.600,397.200 259.240,397.200 258.800 C 397.200 258.360,397.380 258.000,397.600 258.000 C 397.843 258.000,398.000 256.200,398.000 253.400 C 398.000 250.600,397.843 248.800,397.600 248.800 C 397.380 248.800,397.200 248.555,397.200 248.256 C 397.200 247.489,394.736 242.800,394.333 242.800 C 394.150 242.800,394.000 242.440,394.000 242.000 C 394.000 241.560,393.820 241.200,393.600 241.200 C 393.380 241.200,393.200 240.840,393.200 240.400 C 393.200 239.960,393.020 239.600,392.800 239.600 C 392.580 239.600,392.400 239.240,392.400 238.800 C 392.400 238.360,392.220 238.000,392.000 238.000 C 391.780 238.000,391.600 237.685,391.600 237.300 C 391.600 236.915,391.061 235.610,390.403 234.400 C 389.745 233.190,388.899 231.570,388.524 230.800 C 388.149 230.030,387.728 229.310,387.589 229.200 C 387.450 229.090,387.081 228.415,386.770 227.700 C 386.459 226.985,386.069 226.400,385.902 226.400 C 385.736 226.400,385.600 226.040,385.600 225.600 C 385.600 225.160,385.420 224.800,385.200 224.800 C 384.980 224.800,384.800 224.440,384.800 224.000 C 384.800 223.560,384.620 223.200,384.400 223.200 C 384.180 223.200,384.000 222.840,384.000 222.400 C 384.000 221.960,383.820 221.600,383.600 221.600 C 383.380 221.600,383.200 221.240,383.200 220.800 C 383.200 220.360,383.020 220.000,382.800 220.000 C 382.580 220.000,382.400 219.640,382.400 219.200 C 382.400 218.760,382.254 218.400,382.075 218.400 C 381.896 218.400,381.502 217.770,381.200 217.000 C 380.898 216.230,380.538 215.600,380.400 215.600 C 380.262 215.600,379.902 214.970,379.600 214.200 C 379.298 213.430,378.904 212.800,378.725 212.800 C 378.546 212.800,378.400 212.440,378.400 212.000 C 378.400 211.560,378.220 211.200,378.000 211.200 C 377.780 211.200,377.600 210.930,377.600 210.600 C 377.600 210.270,377.420 210.000,377.200 210.000 C 376.980 210.000,376.800 209.640,376.800 209.200 C 376.800 208.760,376.620 208.400,376.400 208.400 C 376.180 208.400,376.000 208.040,376.000 207.600 C 376.000 207.160,375.820 206.800,375.600 206.800 C 375.380 206.800,375.200 206.511,375.200 206.158 C 375.200 205.429,372.382 199.870,371.909 199.667 C 371.739 199.593,371.600 199.188,371.600 198.767 C 371.600 198.345,371.420 198.000,371.200 198.000 C 370.980 198.000,370.800 197.640,370.800 197.200 C 370.800 196.760,370.654 196.400,370.475 196.400 C 370.296 196.400,369.902 195.770,369.600 195.000 C 369.298 194.230,368.904 193.600,368.725 193.600 C 368.546 193.600,368.400 193.240,368.400 192.800 C 368.400 192.360,368.220 192.000,368.000 192.000 C 367.780 192.000,367.600 191.640,367.600 191.200 C 367.600 190.760,367.420 190.400,367.200 190.400 C 366.980 190.400,366.800 190.040,366.800 189.600 C 366.800 189.160,366.620 188.800,366.400 188.800 C 366.180 188.800,366.000 188.455,366.000 188.033 C 366.000 187.612,365.865 187.207,365.700 187.133 C 365.324 186.966,364.025 184.836,363.729 183.900 C 363.607 183.515,363.348 183.200,363.153 183.200 C 362.959 183.200,362.800 182.840,362.800 182.400 C 362.800 181.960,362.620 181.600,362.400 181.600 C 362.180 181.600,362.000 181.150,362.000 180.600 C 362.000 180.050,361.820 179.600,361.600 179.600 C 361.339 179.600,361.200 173.333,361.200 161.600 C 361.200 149.867,361.061 143.600,360.800 143.600 C 360.563 143.600,360.400 142.133,360.400 140.000 C 360.400 137.867,360.237 136.400,360.000 136.400 C 359.771 136.400,359.600 135.200,359.600 133.600 C 359.600 132.060,359.446 130.800,359.257 130.800 C 359.069 130.800,358.790 129.142,358.637 127.116 C 358.484 125.090,358.209 123.245,358.027 123.016 C 357.844 122.787,357.596 121.970,357.476 121.200 C 357.356 120.430,357.052 118.990,356.800 118.000 C 356.548 117.010,356.246 115.615,356.127 114.900 C 356.009 114.185,355.752 113.600,355.556 113.600 C 355.360 113.600,355.200 112.970,355.200 112.200 C 355.200 111.430,355.020 110.800,354.800 110.800 C 354.580 110.800,354.400 110.260,354.400 109.600 C 354.400 108.940,354.220 108.400,354.000 108.400 C 353.780 108.400,353.600 107.860,353.600 107.200 C 353.600 106.540,353.420 106.000,353.200 106.000 C 352.980 106.000,352.800 105.460,352.800 104.800 C 352.800 104.140,352.620 103.600,352.400 103.600 C 352.180 103.600,352.000 103.161,352.000 102.624 C 352.000 102.087,351.820 101.536,351.600 101.400 C 351.380 101.264,351.200 100.803,351.200 100.376 C 351.200 99.949,351.020 99.600,350.800 99.600 C 350.580 99.600,350.400 99.161,350.400 98.624 C 350.400 98.087,350.220 97.536,350.000 97.400 C 349.780 97.264,349.600 96.803,349.600 96.376 C 349.600 95.949,349.420 95.600,349.200 95.600 C 348.980 95.600,348.800 95.251,348.800 94.824 C 348.800 94.397,348.620 93.936,348.400 93.800 C 348.180 93.664,348.000 93.203,348.000 92.776 C 348.000 92.349,347.820 92.000,347.600 92.000 C 347.380 92.000,347.200 91.640,347.200 91.200 C 347.200 90.760,347.020 90.400,346.800 90.400 C 346.580 90.400,346.400 90.040,346.400 89.600 C 346.400 89.160,346.220 88.800,346.000 88.800 C 345.780 88.800,345.600 88.440,345.600 88.000 C 345.600 87.560,345.420 87.200,345.200 87.200 C 344.980 87.200,344.800 86.840,344.800 86.400 C 344.800 85.960,344.620 85.600,344.400 85.600 C 344.180 85.600,344.000 85.240,344.000 84.800 C 344.000 84.360,343.820 84.000,343.600 84.000 C 343.380 84.000,343.200 83.640,343.200 83.200 C 343.200 82.760,343.020 82.400,342.800 82.400 C 342.580 82.400,342.400 82.040,342.400 81.600 C 342.400 81.160,342.265 80.799,342.100 80.799 C 341.935 80.798,341.467 79.988,341.060 78.999 C 340.654 78.009,340.159 77.200,339.960 77.200 C 339.762 77.200,339.600 76.840,339.600 76.400 C 339.600 75.960,339.442 75.600,339.249 75.600 C 339.055 75.600,338.673 75.060,338.400 74.400 C 338.127 73.740,337.745 73.200,337.551 73.200 C 337.358 73.200,337.200 72.880,337.200 72.488 C 337.200 72.097,336.840 71.517,336.400 71.200 C 335.960 70.883,335.600 70.343,335.600 70.000 C 335.600 69.657,335.240 69.117,334.800 68.800 C 334.360 68.483,334.000 67.943,334.000 67.600 C 334.000 67.257,333.640 66.717,333.200 66.400 C 332.760 66.083,332.400 65.620,332.400 65.371 C 332.400 65.122,331.860 64.354,331.200 63.663 C 330.540 62.972,330.000 62.226,330.000 62.004 C 330.000 61.782,329.820 61.600,329.600 61.600 C 329.380 61.600,329.200 61.342,329.200 61.027 C 329.200 60.712,328.840 60.340,328.400 60.200 C 327.960 60.060,327.600 59.682,327.600 59.360 C 327.600 59.037,327.015 58.159,326.300 57.408 C 324.791 55.824,324.448 55.396,323.482 53.892 C 322.190 51.878,302.868 33.200,302.077 33.200 C 301.907 33.200,300.972 32.480,300.000 31.600 C 299.028 30.720,298.082 30.000,297.899 30.000 C 297.715 30.000,297.087 29.557,296.504 29.016 C 295.920 28.475,294.938 27.823,294.321 27.567 C 293.705 27.312,293.200 26.945,293.200 26.751 C 293.200 26.558,292.883 26.400,292.496 26.400 C 292.109 26.400,291.568 26.040,291.293 25.600 C 291.018 25.160,290.607 24.800,290.380 24.800 C 290.153 24.800,289.580 24.440,289.108 24.000 C 288.636 23.560,288.013 23.200,287.725 23.200 C 287.436 23.200,287.200 23.020,287.200 22.800 C 287.200 22.580,286.930 22.400,286.600 22.400 C 286.270 22.400,286.000 22.220,286.000 22.000 C 286.000 21.780,285.730 21.600,285.400 21.600 C 285.070 21.600,284.800 21.420,284.800 21.200 C 284.800 20.980,284.440 20.800,284.000 20.800 C 283.560 20.800,283.200 20.620,283.200 20.400 C 283.200 20.180,282.964 20.000,282.675 20.000 C 282.387 20.000,281.764 19.640,281.292 19.200 C 280.820 18.760,280.156 18.400,279.817 18.400 C 279.478 18.400,279.200 18.220,279.200 18.000 C 279.200 17.780,278.840 17.600,278.400 17.600 C 277.960 17.600,277.600 17.420,277.600 17.200 C 277.600 16.980,277.255 16.800,276.833 16.800 C 276.412 16.800,276.007 16.657,275.933 16.482 C 275.739 16.018,267.415 12.000,266.649 12.000 C 266.292 12.000,266.000 11.820,266.000 11.600 C 266.000 11.380,265.651 11.200,265.224 11.200 C 264.797 11.200,264.342 11.030,264.214 10.823 C 264.086 10.616,263.176 10.325,262.191 10.178 C 261.206 10.030,260.400 9.750,260.400 9.555 C 260.400 9.360,259.950 9.200,259.400 9.200 C 258.850 9.200,258.400 9.020,258.400 8.800 C 258.400 8.580,257.961 8.400,257.424 8.400 C 256.887 8.400,256.336 8.220,256.200 8.000 C 256.064 7.780,255.513 7.600,254.976 7.600 C 254.439 7.600,254.000 7.420,254.000 7.200 C 254.000 6.980,253.471 6.800,252.824 6.800 C 252.177 6.800,251.536 6.620,251.400 6.400 C 251.264 6.180,250.623 6.000,249.976 6.000 C 249.329 6.000,248.800 5.820,248.800 5.600 C 248.800 5.380,248.271 5.200,247.624 5.200 C 246.977 5.200,246.336 5.020,246.200 4.800 C 246.064 4.580,245.333 4.400,244.576 4.400 C 243.819 4.400,243.200 4.220,243.200 4.000 C 243.200 3.780,242.491 3.600,241.624 3.600 C 240.757 3.600,239.936 3.420,239.800 3.200 C 239.664 2.980,238.854 2.800,238.000 2.800 C 237.146 2.800,236.336 2.620,236.200 2.400 C 236.064 2.180,235.074 2.000,234.000 2.000 C 232.926 2.000,231.936 1.820,231.800 1.600 C 231.664 1.380,230.498 1.200,229.210 1.200 C 227.729 1.200,226.807 1.021,226.705 0.715 C 226.544 0.233,193.867 -0.119,185.700 0.274 M22.926 22.864 C 28.448 25.799,26.820 33.200,20.653 33.200 C 19.414 33.200,18.400 33.020,18.400 32.800 C 18.400 32.580,18.170 32.400,17.889 32.400 C 17.315 32.400,16.000 31.004,16.000 30.395 C 16.000 30.178,15.820 30.000,15.600 30.000 C 15.377 30.000,15.209 28.979,15.219 27.700 C 15.251 23.903,19.667 21.132,22.926 22.864 M216.800 62.000 C 216.800 70.533,216.941 75.200,217.200 75.200 C 217.420 75.200,217.600 75.560,217.600 76.000 C 217.600 76.440,217.780 76.800,218.000 76.800 C 218.220 76.800,218.400 77.076,218.400 77.413 C 218.400 78.209,220.991 80.800,221.787 80.800 C 222.124 80.800,222.400 80.980,222.400 81.200 C 222.400 81.420,222.760 81.600,223.200 81.600 C 223.640 81.600,224.000 81.780,224.000 82.000 C 224.000 82.220,224.540 82.400,225.200 82.400 C 225.860 82.400,226.400 82.580,226.400 82.800 C 226.400 83.020,226.940 83.200,227.600 83.200 C 228.260 83.200,228.800 83.380,228.800 83.600 C 228.800 83.820,229.250 84.000,229.800 84.000 C 230.350 84.000,230.800 84.180,230.800 84.400 C 230.800 84.620,231.046 84.800,231.347 84.800 C 231.647 84.800,233.724 85.700,235.961 86.800 C 238.198 87.900,240.461 88.800,240.991 88.800 C 241.520 88.800,242.064 88.980,242.200 89.200 C 242.336 89.420,243.056 89.600,243.800 89.600 C 244.544 89.600,245.264 89.420,245.400 89.200 C 245.536 88.980,246.177 88.800,246.824 88.800 C 247.471 88.800,248.000 88.620,248.000 88.400 C 248.000 88.180,248.268 88.000,248.595 88.000 C 249.488 88.000,250.284 87.280,258.871 78.700 C 263.219 74.355,266.936 70.800,267.130 70.800 C 267.468 70.800,274.588 77.764,282.131 85.471 L 285.662 89.078 277.031 97.727 C 272.284 102.484,268.400 106.652,268.400 106.988 C 268.400 107.325,268.220 107.600,268.000 107.600 C 267.780 107.600,267.600 108.140,267.600 108.800 C 267.600 109.460,267.420 110.000,267.200 110.000 C 266.974 110.000,266.800 111.133,266.800 112.600 C 266.800 114.067,266.974 115.200,267.200 115.200 C 267.420 115.200,267.600 115.725,267.600 116.367 C 267.600 117.008,267.737 117.593,267.904 117.667 C 268.071 117.740,268.989 119.420,269.945 121.400 C 270.900 123.380,271.843 125.313,272.041 125.695 C 272.238 126.077,272.400 126.662,272.400 126.995 C 272.400 127.328,272.580 127.600,272.800 127.600 C 273.020 127.600,273.200 128.140,273.200 128.800 C 273.200 129.460,273.380 130.000,273.600 130.000 C 273.820 130.000,274.000 130.540,274.000 131.200 C 274.000 131.860,274.180 132.400,274.400 132.400 C 274.620 132.400,274.800 132.760,274.800 133.200 C 274.800 133.640,274.980 134.000,275.200 134.000 C 275.420 134.000,275.600 134.276,275.600 134.613 C 275.600 135.844,279.251 138.800,280.771 138.800 C 281.201 138.800,281.664 138.980,281.800 139.200 C 281.956 139.453,286.604 139.600,294.424 139.600 L 306.800 139.600 306.800 152.800 L 306.800 166.000 294.224 166.000 C 286.271 166.000,281.556 166.147,281.400 166.400 C 281.264 166.620,280.713 166.800,280.176 166.800 C 279.639 166.800,279.200 166.980,279.200 167.200 C 279.200 167.420,278.974 167.600,278.697 167.600 C 278.025 167.600,275.600 170.273,275.600 171.013 C 275.600 171.336,275.420 171.600,275.200 171.600 C 274.980 171.600,274.800 171.960,274.800 172.400 C 274.800 172.840,274.620 173.200,274.400 173.200 C 274.180 173.200,274.000 173.740,274.000 174.400 C 274.000 175.060,273.820 175.600,273.600 175.600 C 273.380 175.600,273.200 176.050,273.200 176.600 C 273.200 177.150,273.020 177.600,272.800 177.600 C 272.580 177.600,272.400 178.050,272.400 178.600 C 272.400 179.150,272.220 179.600,272.000 179.600 C 271.780 179.600,271.600 180.050,271.600 180.600 C 271.600 181.150,271.420 181.600,271.200 181.600 C 270.980 181.600,270.800 181.960,270.800 182.400 C 270.800 182.840,270.620 183.200,270.400 183.200 C 270.180 183.200,270.000 183.560,270.000 184.000 C 270.000 184.440,269.820 184.800,269.600 184.800 C 269.380 184.800,269.200 185.160,269.200 185.600 C 269.200 186.040,269.020 186.400,268.800 186.400 C 268.580 186.400,268.400 186.760,268.400 187.200 C 268.400 187.640,268.220 188.000,268.000 188.000 C 267.780 188.000,267.600 188.540,267.600 189.200 C 267.600 189.860,267.420 190.400,267.200 190.400 C 266.974 190.400,266.800 191.533,266.800 193.000 C 266.800 194.467,266.974 195.600,267.200 195.600 C 267.420 195.600,267.600 196.140,267.600 196.800 C 267.600 197.460,267.780 198.000,268.000 198.000 C 268.220 198.000,268.400 198.266,268.400 198.591 C 268.400 198.916,272.265 203.053,276.990 207.785 L 285.579 216.388 282.290 219.837 C 277.843 224.498,274.782 227.570,270.657 231.510 L 267.192 234.820 264.132 231.910 C 260.589 228.542,257.333 225.294,253.451 221.258 C 251.938 219.686,250.453 218.400,250.151 218.400 C 249.848 218.400,249.599 218.265,249.597 218.100 C 249.592 217.653,247.574 216.800,246.520 216.800 C 246.014 216.800,245.600 216.603,245.600 216.361 C 245.600 216.074,244.944 215.998,243.700 216.140 C 240.388 216.519,238.800 216.877,238.800 217.244 C 238.800 217.440,238.440 217.600,238.000 217.600 C 237.560 217.600,237.200 217.780,237.200 218.000 C 237.200 218.220,236.840 218.400,236.400 218.400 C 235.960 218.400,235.600 218.580,235.600 218.800 C 235.600 219.020,235.240 219.200,234.800 219.200 C 234.360 219.200,234.000 219.380,234.000 219.600 C 234.000 219.820,233.640 220.000,233.200 220.000 C 232.760 220.000,232.400 220.180,232.400 220.400 C 232.400 220.620,232.040 220.800,231.600 220.800 C 231.160 220.800,230.800 220.980,230.800 221.200 C 230.800 221.420,230.361 221.600,229.824 221.600 C 229.287 221.600,228.736 221.780,228.600 222.000 C 228.464 222.220,227.913 222.400,227.376 222.400 C 226.839 222.400,226.400 222.580,226.400 222.800 C 226.400 223.020,225.860 223.200,225.200 223.200 C 224.540 223.200,224.000 223.380,224.000 223.600 C 224.000 223.820,223.640 224.000,223.200 224.000 C 222.760 224.000,222.400 224.180,222.400 224.400 C 222.400 224.620,222.124 224.800,221.787 224.800 C 221.101 224.800,218.400 227.342,218.400 227.987 C 218.400 228.214,218.220 228.400,218.000 228.400 C 217.780 228.400,217.600 228.749,217.600 229.176 C 217.600 229.603,217.420 230.064,217.200 230.200 C 216.946 230.357,216.800 235.271,216.800 243.624 L 216.800 256.800 203.600 256.800 L 190.400 256.800 190.400 244.728 C 190.400 236.640,190.247 232.186,189.935 231.228 C 189.121 228.727,188.613 227.600,188.302 227.600 C 188.136 227.600,188.000 227.396,188.000 227.147 C 188.000 226.571,185.963 224.801,185.300 224.800 C 185.025 224.800,184.800 224.620,184.800 224.400 C 184.800 224.180,184.528 224.000,184.195 224.000 C 183.862 224.000,183.277 223.832,182.895 223.627 C 182.513 223.421,181.345 223.022,180.300 222.739 C 179.255 222.457,178.400 222.085,178.400 221.913 C 178.400 221.741,177.860 221.600,177.200 221.600 C 176.540 221.600,176.000 221.420,176.000 221.200 C 176.000 220.980,175.640 220.800,175.200 220.800 C 174.760 220.800,174.400 220.620,174.400 220.400 C 174.400 220.180,174.051 220.000,173.624 220.000 C 173.197 220.000,172.736 219.820,172.600 219.600 C 172.464 219.380,172.003 219.200,171.576 219.200 C 171.149 219.200,170.800 219.020,170.800 218.800 C 170.800 218.580,170.440 218.400,170.000 218.400 C 169.560 218.400,169.200 218.220,169.200 218.000 C 169.200 217.780,168.840 217.600,168.400 217.600 C 167.960 217.600,167.600 217.420,167.600 217.200 C 167.600 216.980,167.060 216.800,166.400 216.800 C 165.740 216.800,165.200 216.620,165.200 216.400 C 165.200 216.180,164.311 216.000,163.224 216.000 C 162.137 216.000,161.136 216.180,161.000 216.400 C 160.864 216.620,160.223 216.800,159.576 216.800 C 158.929 216.800,158.400 216.980,158.400 217.200 C 158.400 217.420,158.127 217.600,157.794 217.600 C 157.460 217.600,153.304 221.470,148.559 226.200 C 143.813 230.930,139.763 234.800,139.560 234.800 C 138.922 234.800,122.457 218.510,121.453 216.886 C 121.258 216.570,124.001 213.555,129.276 208.291 C 138.025 199.559,138.800 198.705,138.800 197.795 C 138.800 197.468,138.980 197.200,139.200 197.200 C 139.441 197.200,139.600 195.533,139.600 193.000 C 139.600 190.467,139.441 188.800,139.200 188.800 C 138.980 188.800,138.800 188.440,138.800 188.000 C 138.800 187.560,138.620 187.200,138.400 187.200 C 138.180 187.200,138.000 186.840,138.000 186.400 C 138.000 185.960,137.820 185.600,137.600 185.600 C 137.380 185.600,137.200 185.240,137.200 184.800 C 137.200 184.360,137.020 184.000,136.800 184.000 C 136.580 184.000,136.400 183.640,136.400 183.200 C 136.400 182.760,136.220 182.400,136.000 182.400 C 135.780 182.400,135.600 182.045,135.600 181.612 C 135.600 181.179,135.240 180.183,134.800 179.400 C 134.360 178.617,134.000 177.621,134.000 177.188 C 134.000 176.755,133.820 176.400,133.600 176.400 C 133.380 176.400,133.200 175.860,133.200 175.200 C 133.200 174.540,133.020 174.000,132.800 174.000 C 132.580 174.000,132.400 173.460,132.400 172.800 C 132.400 172.140,132.220 171.600,132.000 171.600 C 131.780 171.600,131.600 171.348,131.600 171.040 C 131.600 170.312,128.888 167.600,128.160 167.600 C 127.852 167.600,127.600 167.420,127.600 167.200 C 127.600 166.980,127.060 166.800,126.400 166.800 C 125.740 166.800,125.200 166.620,125.200 166.400 C 125.200 166.142,120.667 166.000,112.400 166.000 L 99.600 166.000 99.600 152.800 L 99.600 139.600 112.400 139.600 C 120.667 139.600,125.200 139.458,125.200 139.200 C 125.200 138.980,125.573 138.800,126.028 138.800 C 127.184 138.800,130.221 136.627,131.067 135.194 C 131.455 134.537,131.914 134.000,132.086 134.000 C 132.259 134.000,132.400 133.460,132.400 132.800 C 132.400 132.140,132.580 131.600,132.800 131.600 C 133.020 131.600,133.200 131.060,133.200 130.400 C 133.200 129.740,133.380 129.200,133.600 129.200 C 133.820 129.200,134.000 128.660,134.000 128.000 C 134.000 127.340,134.180 126.800,134.400 126.800 C 134.620 126.800,134.800 126.440,134.800 126.000 C 134.800 125.560,134.980 125.200,135.200 125.200 C 135.420 125.200,135.600 124.876,135.600 124.480 C 135.600 123.586,136.494 121.607,136.900 121.603 C 137.065 121.601,137.200 121.240,137.200 120.800 C 137.200 120.360,137.380 120.000,137.600 120.000 C 137.820 120.000,138.000 119.640,138.000 119.200 C 138.000 118.760,138.180 118.400,138.400 118.400 C 138.620 118.400,138.800 118.040,138.800 117.600 C 138.800 117.160,138.980 116.800,139.200 116.800 C 139.441 116.800,139.600 115.133,139.600 112.600 C 139.600 110.067,139.441 108.400,139.200 108.400 C 138.980 108.400,138.800 108.040,138.800 107.600 C 138.800 107.160,138.632 106.800,138.427 106.800 C 138.222 106.800,137.944 106.453,137.809 106.029 C 137.675 105.605,135.548 103.283,133.082 100.869 C 125.518 93.461,123.038 90.996,122.079 89.928 L 121.157 88.903 123.079 86.837 C 125.205 84.551,133.564 76.176,136.989 72.900 C 139.835 70.177,138.844 69.642,148.101 78.903 C 156.416 87.222,158.380 88.800,160.423 88.800 C 161.070 88.800,161.600 88.980,161.600 89.200 C 161.600 89.420,162.219 89.600,162.976 89.600 C 163.733 89.600,164.464 89.420,164.600 89.200 C 164.736 88.980,165.467 88.800,166.224 88.800 C 166.981 88.800,167.600 88.620,167.600 88.400 C 167.600 88.180,167.960 88.000,168.400 88.000 C 168.840 88.000,169.200 87.820,169.200 87.600 C 169.200 87.380,169.560 87.200,170.000 87.200 C 170.440 87.200,170.800 87.020,170.800 86.800 C 170.800 86.580,171.160 86.400,171.600 86.400 C 172.040 86.400,172.400 86.220,172.400 86.000 C 172.400 85.780,172.749 85.600,173.176 85.600 C 173.603 85.600,174.064 85.420,174.200 85.200 C 174.336 84.980,174.797 84.800,175.224 84.800 C 175.651 84.800,176.000 84.620,176.000 84.400 C 176.000 84.180,176.349 84.000,176.776 84.000 C 177.203 84.000,177.664 83.820,177.800 83.600 C 177.936 83.380,178.487 83.200,179.024 83.200 C 179.561 83.200,180.000 83.020,180.000 82.800 C 180.000 82.580,180.540 82.400,181.200 82.400 C 181.860 82.400,182.400 82.220,182.400 82.000 C 182.400 81.780,182.858 81.600,183.417 81.600 C 183.976 81.600,184.820 81.240,185.292 80.800 C 185.764 80.360,186.356 80.000,186.608 80.000 C 186.859 80.000,187.320 79.505,187.632 78.900 C 187.944 78.295,188.338 77.697,188.508 77.571 C 190.023 76.449,190.400 73.130,190.400 60.906 L 190.400 48.800 203.600 48.800 L 216.800 48.800 216.800 62.000 M105.950 63.658 C 108.068 65.780,111.285 69.024,113.101 70.867 L 116.402 74.219 112.812 77.809 C 110.838 79.784,109.218 81.585,109.211 81.812 C 109.205 82.038,108.840 82.483,108.400 82.800 C 107.960 83.117,107.600 83.697,107.600 84.088 C 107.600 84.480,107.420 84.800,107.200 84.800 C 106.959 84.800,106.800 86.467,106.800 89.000 C 106.800 91.533,106.959 93.200,107.200 93.200 C 107.420 93.200,107.600 93.475,107.600 93.811 C 107.600 94.148,108.185 95.051,108.900 95.819 C 111.260 98.352,121.530 108.566,123.562 110.400 C 125.448 112.102,126.389 114.400,125.200 114.400 C 124.980 114.400,124.800 114.760,124.800 115.200 C 124.800 115.640,124.620 116.000,124.400 116.000 C 124.180 116.000,124.000 116.349,124.000 116.776 C 124.000 117.203,123.820 117.664,123.600 117.800 C 123.380 117.936,123.200 118.487,123.200 119.024 C 123.200 119.561,123.020 120.000,122.800 120.000 C 122.580 120.000,122.400 120.360,122.400 120.800 C 122.400 121.240,122.220 121.600,122.000 121.600 C 121.780 121.600,121.600 122.140,121.600 122.800 C 121.600 123.460,121.420 124.000,121.200 124.000 C 120.980 124.000,120.800 124.540,120.800 125.200 L 120.800 126.400 107.424 126.400 C 100.067 126.400,93.950 126.557,93.832 126.748 C 93.714 126.940,93.044 127.211,92.344 127.351 C 90.984 127.623,88.000 130.416,88.000 131.417 C 88.000 131.738,87.820 132.000,87.600 132.000 C 87.380 132.000,87.200 132.619,87.200 133.376 C 87.200 134.133,87.020 134.864,86.800 135.000 C 86.564 135.146,86.400 137.537,86.400 140.824 L 86.400 146.400 73.800 146.400 L 61.200 146.400 61.200 144.624 C 61.200 143.647,61.380 142.736,61.600 142.600 C 61.820 142.464,62.000 141.024,62.000 139.400 C 62.000 137.776,62.180 136.336,62.400 136.200 C 62.620 136.064,62.800 134.984,62.800 133.800 C 62.800 132.616,62.980 131.536,63.200 131.400 C 63.420 131.264,63.600 130.173,63.600 128.976 C 63.600 127.779,63.780 126.800,64.000 126.800 C 64.220 126.800,64.400 126.080,64.400 125.200 C 64.400 124.320,64.580 123.600,64.800 123.600 C 65.020 123.600,65.200 122.981,65.200 122.224 C 65.200 121.467,65.380 120.736,65.600 120.600 C 65.820 120.464,66.000 119.733,66.000 118.976 C 66.000 118.219,66.180 117.600,66.400 117.600 C 66.620 117.600,66.800 116.981,66.800 116.224 C 66.800 115.467,66.980 114.736,67.200 114.600 C 67.420 114.464,67.600 113.823,67.600 113.176 C 67.600 112.529,67.780 112.000,68.000 112.000 C 68.220 112.000,68.400 111.460,68.400 110.800 C 68.400 110.140,68.580 109.600,68.800 109.600 C 69.020 109.600,69.200 109.251,69.200 108.824 C 69.200 108.397,69.380 107.936,69.600 107.800 C 69.820 107.664,70.000 107.113,70.000 106.576 C 70.000 106.039,70.180 105.600,70.400 105.600 C 70.620 105.600,70.800 105.150,70.800 104.600 C 70.800 104.050,70.980 103.600,71.200 103.600 C 71.420 103.600,71.600 103.251,71.600 102.824 C 71.600 102.397,71.780 101.936,72.000 101.800 C 72.220 101.664,72.400 101.113,72.400 100.576 C 72.400 100.039,72.580 99.600,72.800 99.600 C 73.020 99.600,73.200 99.361,73.200 99.068 C 73.200 98.775,73.649 97.650,74.198 96.568 C 74.747 95.486,75.197 94.285,75.198 93.900 C 75.199 93.515,75.380 93.200,75.600 93.200 C 75.820 93.200,76.000 92.840,76.000 92.400 C 76.000 91.960,76.180 91.600,76.400 91.600 C 76.620 91.600,76.800 91.240,76.800 90.800 C 76.800 90.360,76.946 90.000,77.125 90.000 C 77.304 90.000,77.698 89.370,78.000 88.600 C 78.302 87.830,78.696 87.200,78.875 87.200 C 79.054 87.200,79.200 86.840,79.200 86.400 C 79.200 85.960,79.380 85.600,79.600 85.600 C 79.820 85.600,80.000 85.364,80.000 85.075 C 80.000 84.787,80.360 84.164,80.800 83.692 C 81.240 83.220,81.600 82.556,81.600 82.217 C 81.600 81.878,81.780 81.600,82.000 81.600 C 82.220 81.600,82.400 81.364,82.400 81.075 C 82.400 80.787,82.760 80.164,83.200 79.692 C 83.640 79.220,84.000 78.596,84.000 78.305 C 84.000 78.014,84.360 77.517,84.800 77.200 C 85.240 76.883,85.600 76.303,85.600 75.912 C 85.600 75.520,85.754 75.200,85.942 75.200 C 86.270 75.200,89.600 70.982,89.600 70.566 C 89.600 70.456,90.050 69.880,90.600 69.287 C 91.150 68.693,91.600 67.981,91.600 67.704 C 91.600 67.427,91.780 67.200,92.000 67.200 C 92.220 67.200,92.400 67.021,92.400 66.802 C 92.400 66.583,93.300 65.485,94.400 64.361 C 95.500 63.238,96.400 62.139,96.400 61.920 C 96.400 61.700,97.241 60.726,98.269 59.755 L 100.138 57.990 101.119 58.895 C 101.659 59.393,103.833 61.536,105.950 63.658 M194.400 88.400 C 194.400 88.620,193.511 88.800,192.424 88.800 C 191.337 88.800,190.336 88.980,190.200 89.200 C 190.064 89.420,189.153 89.600,188.176 89.600 C 187.199 89.600,186.400 89.780,186.400 90.000 C 186.400 90.220,185.860 90.400,185.200 90.400 C 184.540 90.400,184.000 90.580,184.000 90.800 C 184.000 91.020,183.460 91.200,182.800 91.200 C 182.140 91.200,181.600 91.380,181.600 91.600 C 181.600 91.820,181.060 92.000,180.400 92.000 C 179.740 92.000,179.200 92.180,179.200 92.400 C 179.200 92.620,178.840 92.800,178.400 92.800 C 177.960 92.800,177.600 92.980,177.600 93.200 C 177.600 93.420,177.226 93.600,176.768 93.600 C 176.068 93.600,170.624 96.174,170.000 96.801 C 169.890 96.911,169.305 97.256,168.700 97.568 C 168.095 97.880,167.600 98.285,167.600 98.468 C 167.600 98.650,167.357 98.800,167.059 98.800 C 166.762 98.800,165.954 99.340,165.263 100.000 C 164.572 100.660,163.854 101.200,163.667 101.200 C 163.350 101.200,161.324 102.970,158.000 106.150 C 157.230 106.887,155.610 108.612,154.400 109.983 C 153.190 111.354,151.975 112.716,151.700 113.009 C 151.425 113.303,151.200 113.736,151.200 113.971 C 151.200 114.207,151.050 114.400,150.868 114.400 C 150.685 114.400,150.281 114.895,149.970 115.500 C 149.660 116.105,149.089 116.891,148.703 117.247 C 148.316 117.603,148.000 118.173,148.000 118.514 C 148.000 118.854,147.837 119.193,147.638 119.267 C 147.043 119.486,143.600 126.490,143.600 127.482 C 143.600 127.987,143.420 128.400,143.200 128.400 C 142.980 128.400,142.800 128.850,142.800 129.400 C 142.800 129.950,142.620 130.400,142.400 130.400 C 142.180 130.400,142.000 130.839,142.000 131.376 C 142.000 131.913,141.820 132.464,141.600 132.600 C 141.380 132.736,141.200 133.467,141.200 134.224 C 141.200 134.981,141.020 135.600,140.800 135.600 C 140.580 135.600,140.400 136.320,140.400 137.200 C 140.400 138.080,140.220 138.800,140.000 138.800 C 139.780 138.800,139.600 139.790,139.600 141.000 C 139.600 142.210,139.780 143.200,140.000 143.200 C 140.220 143.200,140.400 143.476,140.400 143.813 C 140.400 145.662,143.045 147.200,146.226 147.200 L 149.279 147.200 151.040 145.336 C 152.252 144.053,152.800 143.126,152.800 142.360 C 152.800 141.748,152.980 141.136,153.200 141.000 C 153.420 140.864,153.600 140.144,153.600 139.400 C 153.600 138.656,153.780 137.936,154.000 137.800 C 154.220 137.664,154.400 137.113,154.400 136.576 C 154.400 136.039,154.547 135.600,154.728 135.600 C 154.908 135.600,155.300 134.700,155.600 133.600 C 155.900 132.500,156.292 131.600,156.472 131.600 C 156.653 131.600,156.800 131.240,156.800 130.800 C 156.800 130.360,156.980 130.000,157.200 130.000 C 157.420 130.000,157.600 129.640,157.600 129.200 C 157.600 128.760,157.766 128.400,157.968 128.400 C 158.171 128.400,158.455 127.860,158.600 127.200 C 158.745 126.540,159.029 126.000,159.232 126.000 C 159.434 126.000,159.600 125.730,159.600 125.400 C 159.600 125.070,159.750 124.800,159.932 124.800 C 160.115 124.800,160.520 124.305,160.832 123.700 C 161.145 123.095,161.895 122.123,162.500 121.540 C 163.105 120.956,163.600 120.281,163.600 120.040 C 163.600 119.798,163.780 119.600,164.000 119.600 C 164.220 119.600,164.400 119.416,164.400 119.191 C 164.400 118.657,168.208 114.864,170.000 113.614 C 170.770 113.077,171.670 112.357,172.000 112.015 C 173.885 110.056,182.548 105.200,184.158 105.200 C 184.511 105.200,184.800 105.059,184.800 104.887 C 184.800 104.715,185.655 104.343,186.700 104.061 C 187.745 103.778,188.913 103.379,189.295 103.173 C 189.677 102.968,190.431 102.800,190.971 102.800 C 191.511 102.800,192.064 102.620,192.200 102.400 C 192.336 102.180,193.337 102.000,194.424 102.000 C 195.511 102.000,196.400 101.820,196.400 101.600 C 196.400 101.348,199.067 101.200,203.600 101.200 C 208.133 101.200,210.800 101.348,210.800 101.600 C 210.800 101.820,211.599 102.000,212.576 102.000 C 213.553 102.000,214.464 102.180,214.600 102.400 C 214.736 102.620,215.456 102.800,216.200 102.800 C 216.944 102.800,217.664 102.980,217.800 103.200 C 217.936 103.420,218.476 103.600,219.000 103.600 C 219.524 103.600,220.064 103.780,220.200 104.000 C 220.336 104.220,220.887 104.400,221.424 104.400 C 221.961 104.400,222.400 104.580,222.400 104.800 C 222.400 105.020,222.760 105.200,223.200 105.200 C 223.640 105.200,224.000 105.380,224.000 105.600 C 224.000 105.820,224.288 106.000,224.640 106.000 C 225.187 106.000,226.432 106.619,231.396 109.361 C 231.833 109.602,232.484 110.115,232.843 110.500 C 233.201 110.885,233.702 111.200,233.957 111.200 C 234.212 111.200,235.197 111.965,236.145 112.900 C 237.093 113.835,238.483 115.161,239.234 115.848 C 241.424 117.848,243.630 120.408,245.569 123.200 C 246.563 124.630,247.516 125.860,247.688 125.933 C 247.859 126.007,248.000 126.412,248.000 126.833 C 248.000 127.255,248.180 127.600,248.400 127.600 C 248.620 127.600,248.800 127.960,248.800 128.400 C 248.800 128.840,248.980 129.200,249.200 129.200 C 249.420 129.200,249.600 129.560,249.600 130.000 C 249.600 130.440,249.780 130.800,250.000 130.800 C 250.220 130.800,250.400 131.160,250.400 131.600 C 250.400 132.040,250.580 132.400,250.800 132.400 C 251.020 132.400,251.200 132.749,251.200 133.176 C 251.200 133.603,251.380 134.064,251.600 134.200 C 251.820 134.336,252.000 134.887,252.000 135.424 C 252.000 135.961,252.180 136.400,252.400 136.400 C 252.620 136.400,252.800 136.929,252.800 137.576 C 252.800 138.223,252.980 138.864,253.200 139.000 C 253.420 139.136,253.600 139.766,253.600 140.400 C 253.600 141.034,253.780 141.664,254.000 141.800 C 254.220 141.936,254.400 143.027,254.400 144.224 C 254.400 145.421,254.580 146.400,254.800 146.400 C 255.049 146.400,255.200 148.725,255.200 152.576 C 255.200 156.263,255.039 158.852,254.800 159.000 C 254.580 159.136,254.400 160.126,254.400 161.200 C 254.400 162.274,254.220 163.264,254.000 163.400 C 253.780 163.536,253.600 164.267,253.600 165.024 C 253.600 165.781,253.420 166.400,253.200 166.400 C 252.980 166.400,252.800 167.030,252.800 167.800 C 252.800 168.570,252.620 169.200,252.400 169.200 C 252.180 169.200,252.000 169.549,252.000 169.976 C 252.000 170.403,251.820 170.864,251.600 171.000 C 251.380 171.136,251.200 171.687,251.200 172.224 C 251.200 172.761,251.020 173.200,250.800 173.200 C 250.580 173.200,250.400 173.560,250.400 174.000 C 250.400 174.440,250.220 174.800,250.000 174.800 C 249.780 174.800,249.600 175.160,249.600 175.600 C 249.600 176.040,249.464 176.400,249.298 176.400 C 249.131 176.400,248.741 176.985,248.430 177.700 C 248.119 178.415,247.735 179.090,247.577 179.200 C 247.419 179.310,246.955 179.957,246.545 180.637 C 244.611 183.847,243.094 185.705,239.302 189.508 C 237.049 191.769,234.799 193.799,234.302 194.019 C 233.491 194.380,231.240 195.859,230.200 196.715 C 229.980 196.896,229.215 197.303,228.500 197.620 C 227.785 197.936,227.200 198.331,227.200 198.498 C 227.200 198.664,226.840 198.800,226.400 198.800 C 225.960 198.800,225.600 198.980,225.600 199.200 C 225.600 199.420,225.240 199.600,224.800 199.600 C 224.360 199.600,224.000 199.780,224.000 200.000 C 224.000 200.220,223.640 200.400,223.200 200.400 C 222.760 200.400,222.400 200.580,222.400 200.800 C 222.400 201.020,221.860 201.200,221.200 201.200 C 220.540 201.200,220.000 201.380,220.000 201.600 C 220.000 201.820,219.460 202.000,218.800 202.000 C 218.140 202.000,217.600 202.180,217.600 202.400 C 217.600 202.620,216.880 202.800,216.000 202.800 C 215.120 202.800,214.400 202.980,214.400 203.200 C 214.400 203.420,213.511 203.600,212.424 203.600 C 211.337 203.600,210.336 203.780,210.200 204.000 C 210.051 204.241,207.263 204.400,203.176 204.400 C 198.925 204.400,196.400 204.251,196.400 204.000 C 196.400 203.780,195.500 203.600,194.400 203.600 C 193.300 203.600,192.400 203.420,192.400 203.200 C 192.400 202.980,191.781 202.800,191.024 202.800 C 190.267 202.800,189.536 202.620,189.400 202.400 C 189.264 202.180,188.623 202.000,187.976 202.000 C 187.329 202.000,186.800 201.820,186.800 201.600 C 186.800 201.380,186.350 201.200,185.800 201.200 C 185.250 201.200,184.800 201.020,184.800 200.800 C 184.800 200.580,184.506 200.400,184.146 200.400 C 183.294 200.400,176.800 197.153,176.800 196.727 C 176.800 196.547,176.440 196.400,176.000 196.400 C 175.560 196.400,175.200 196.259,175.200 196.086 C 175.200 195.914,174.705 195.478,174.100 195.117 C 173.495 194.757,172.640 194.128,172.200 193.720 C 171.760 193.312,170.770 192.535,170.000 191.994 C 168.276 190.782,164.400 186.949,164.400 186.457 C 164.400 186.259,163.680 185.355,162.800 184.448 C 161.920 183.541,161.200 182.569,161.200 182.288 C 161.200 182.007,160.840 181.517,160.400 181.200 C 159.960 180.883,159.600 180.303,159.600 179.912 C 159.600 179.520,159.440 179.200,159.243 179.200 C 159.047 179.200,158.774 178.750,158.636 178.200 C 158.498 177.650,158.208 177.200,157.992 177.200 C 157.777 177.200,157.600 176.840,157.600 176.400 C 157.600 175.960,157.420 175.600,157.200 175.600 C 156.980 175.600,156.800 175.328,156.800 174.995 C 156.800 174.662,156.641 174.077,156.447 173.695 C 156.252 173.313,155.871 172.460,155.600 171.800 C 155.329 171.140,154.948 170.287,154.753 169.905 C 154.559 169.523,154.400 168.859,154.400 168.429 C 154.400 167.999,154.220 167.536,154.000 167.400 C 153.780 167.264,153.600 166.634,153.600 166.000 C 153.600 165.366,153.420 164.736,153.200 164.600 C 152.980 164.464,152.800 163.940,152.800 163.436 C 152.800 162.290,150.665 160.000,149.597 160.000 C 149.158 160.000,148.800 159.820,148.800 159.600 C 148.800 159.378,147.733 159.200,146.400 159.200 C 145.067 159.200,144.000 159.378,144.000 159.600 C 144.000 159.820,143.732 160.000,143.403 160.000 C 141.531 160.000,140.400 162.358,140.400 166.259 C 140.400 168.486,140.562 170.000,140.800 170.000 C 141.020 170.000,141.200 170.630,141.200 171.400 C 141.200 172.170,141.380 172.800,141.600 172.800 C 141.820 172.800,142.000 173.250,142.000 173.800 C 142.000 174.350,142.180 174.800,142.400 174.800 C 142.620 174.800,142.800 175.250,142.800 175.800 C 142.800 176.350,142.980 176.800,143.200 176.800 C 143.420 176.800,143.600 177.197,143.600 177.682 C 143.600 178.735,146.380 184.800,146.863 184.800 C 147.048 184.800,147.200 185.160,147.200 185.600 C 147.200 186.040,147.380 186.400,147.600 186.400 C 147.820 186.400,148.000 186.636,148.000 186.925 C 148.000 187.213,148.360 187.836,148.800 188.308 C 149.240 188.780,149.600 189.354,149.600 189.583 C 149.600 189.812,149.780 190.000,150.000 190.000 C 150.220 190.000,150.400 190.178,150.400 190.395 C 150.400 190.854,151.264 191.956,153.100 193.840 C 153.815 194.573,154.400 195.271,154.400 195.390 C 154.400 196.185,161.212 202.753,164.114 204.755 C 164.601 205.092,165.238 205.600,165.529 205.884 C 165.819 206.168,166.211 206.400,166.400 206.400 C 166.589 206.400,166.990 206.647,167.291 206.948 C 168.047 207.705,170.230 208.800,170.980 208.800 C 171.321 208.800,171.600 208.938,171.600 209.106 C 171.600 209.274,172.275 209.718,173.100 210.094 C 173.925 210.469,175.140 211.078,175.800 211.448 C 177.763 212.549,178.357 212.800,178.995 212.800 C 179.328 212.800,179.600 212.980,179.600 213.200 C 179.600 213.420,180.050 213.600,180.600 213.600 C 181.150 213.600,181.600 213.780,181.600 214.000 C 181.600 214.220,182.129 214.400,182.776 214.400 C 183.423 214.400,184.064 214.580,184.200 214.800 C 184.336 215.020,184.966 215.200,185.600 215.200 C 186.234 215.200,186.864 215.380,187.000 215.600 C 187.136 215.820,187.957 216.000,188.824 216.000 C 189.691 216.000,190.400 216.180,190.400 216.400 C 190.400 216.621,191.440 216.800,192.720 216.800 C 193.996 216.800,195.228 216.988,195.457 217.217 C 196.242 218.002,216.800 217.182,216.800 216.366 C 216.800 216.165,217.520 216.000,218.400 216.000 C 219.280 216.000,220.000 215.820,220.000 215.600 C 220.000 215.380,220.630 215.200,221.400 215.200 C 222.170 215.200,222.800 215.020,222.800 214.800 C 222.800 214.580,223.340 214.400,224.000 214.400 C 224.660 214.400,225.200 214.220,225.200 214.000 C 225.200 213.780,225.549 213.600,225.976 213.600 C 226.403 213.600,226.864 213.420,227.000 213.200 C 227.136 212.980,227.687 212.800,228.224 212.800 C 228.761 212.800,229.200 212.620,229.200 212.400 C 229.200 212.180,229.560 212.000,230.000 212.000 C 230.440 212.000,230.800 211.820,230.800 211.600 C 230.800 211.380,231.160 211.200,231.600 211.200 C 232.040 211.200,232.400 211.020,232.400 210.800 C 232.400 210.580,232.760 210.400,233.200 210.400 C 233.640 210.400,234.000 210.220,234.000 210.000 C 234.000 209.780,234.360 209.600,234.800 209.600 C 235.240 209.600,235.600 209.420,235.600 209.200 C 235.600 208.980,235.938 208.800,236.351 208.800 C 236.764 208.800,237.326 208.530,237.600 208.200 C 237.874 207.870,238.318 207.600,238.587 207.600 C 238.856 207.600,239.402 207.240,239.800 206.800 C 240.198 206.360,240.678 206.000,240.866 206.000 C 241.054 206.000,241.772 205.460,242.463 204.800 C 243.154 204.140,243.880 203.600,244.077 203.600 C 244.586 203.600,254.400 193.638,254.400 193.121 C 254.400 192.886,254.730 192.403,255.133 192.047 C 256.080 191.211,258.570 187.569,259.259 186.011 C 259.554 185.345,259.931 184.800,260.098 184.800 C 260.264 184.800,260.400 184.440,260.400 184.000 C 260.400 183.560,260.580 183.200,260.800 183.200 C 261.020 183.200,261.200 182.840,261.200 182.400 C 261.200 181.960,261.380 181.600,261.600 181.600 C 261.820 181.600,262.000 181.240,262.000 180.800 C 262.000 180.360,262.180 180.000,262.400 180.000 C 262.620 180.000,262.800 179.640,262.800 179.200 C 262.800 178.760,262.980 178.400,263.200 178.400 C 263.420 178.400,263.600 177.860,263.600 177.200 C 263.600 176.540,263.780 176.000,264.000 176.000 C 264.220 176.000,264.400 175.651,264.400 175.224 C 264.400 174.797,264.580 174.336,264.800 174.200 C 265.020 174.064,265.200 173.524,265.200 173.000 C 265.200 172.476,265.380 171.936,265.600 171.800 C 265.820 171.664,266.000 171.034,266.000 170.400 C 266.000 169.766,266.180 169.136,266.400 169.000 C 266.620 168.864,266.800 167.953,266.800 166.976 C 266.800 165.999,266.980 165.200,267.200 165.200 C 267.422 165.200,267.600 164.141,267.600 162.824 C 267.600 161.517,267.780 160.336,268.000 160.200 C 268.243 160.050,268.400 157.063,268.400 152.576 C 268.400 147.925,268.252 145.200,268.000 145.200 C 267.778 145.200,267.600 144.133,267.600 142.800 C 267.600 141.467,267.422 140.400,267.200 140.400 C 266.980 140.400,266.800 139.500,266.800 138.400 C 266.800 137.300,266.620 136.400,266.400 136.400 C 266.180 136.400,266.000 135.871,266.000 135.224 C 266.000 134.577,265.820 133.936,265.600 133.800 C 265.380 133.664,265.200 133.023,265.200 132.376 C 265.200 131.729,265.020 131.200,264.800 131.200 C 264.580 131.200,264.400 130.750,264.400 130.200 C 264.400 129.650,264.220 129.200,264.000 129.200 C 263.780 129.200,263.600 128.750,263.600 128.200 C 263.600 127.650,263.420 127.200,263.200 127.200 C 262.980 127.200,262.800 126.840,262.800 126.400 C 262.800 125.960,262.620 125.600,262.400 125.600 C 262.180 125.600,262.000 125.240,262.000 124.800 C 262.000 124.360,261.820 124.000,261.600 124.000 C 261.380 124.000,261.200 123.640,261.200 123.200 C 261.200 122.760,261.020 122.400,260.800 122.400 C 260.580 122.400,260.400 122.040,260.400 121.600 C 260.400 121.160,260.220 120.800,260.000 120.800 C 259.780 120.800,259.600 120.440,259.600 120.000 C 259.600 119.560,259.455 119.200,259.277 119.200 C 259.099 119.200,258.636 118.480,258.248 117.600 C 257.860 116.720,257.375 116.000,257.171 116.000 C 256.967 116.000,256.797 115.775,256.793 115.500 C 256.777 114.448,244.146 101.200,243.158 101.200 C 242.941 101.200,242.344 100.795,241.832 100.300 C 240.028 98.557,238.099 97.276,235.500 96.094 C 234.675 95.718,234.000 95.274,234.000 95.106 C 234.000 94.938,233.640 94.800,233.200 94.800 C 232.760 94.800,232.400 94.636,232.400 94.435 C 232.400 94.234,231.680 93.949,230.800 93.800 C 229.920 93.651,229.200 93.366,229.200 93.165 C 229.200 92.964,228.840 92.800,228.400 92.800 C 227.960 92.800,227.600 92.620,227.600 92.400 C 227.600 92.180,227.060 92.000,226.400 92.000 C 225.740 92.000,225.200 91.820,225.200 91.600 C 225.200 91.380,224.761 91.200,224.224 91.200 C 223.687 91.200,223.136 91.020,223.000 90.800 C 222.864 90.580,222.223 90.400,221.576 90.400 C 220.929 90.400,220.400 90.220,220.400 90.000 C 220.400 89.780,219.590 89.600,218.600 89.600 C 217.610 89.600,216.800 89.420,216.800 89.200 C 216.800 88.978,215.733 88.800,214.400 88.800 C 213.067 88.800,212.000 88.622,212.000 88.400 C 212.000 88.145,208.800 88.000,203.200 88.000 C 197.600 88.000,194.400 88.145,194.400 88.400 M24.611 148.989 C 27.222 151.601,27.222 153.999,24.611 156.611 C 19.320 161.901,11.704 154.404,16.900 149.020 C 19.427 146.401,22.012 146.391,24.611 148.989 M86.400 164.576 C 86.400 167.996,86.563 170.454,86.800 170.600 C 87.020 170.736,87.200 171.251,87.200 171.744 C 87.200 172.779,88.057 174.792,88.500 174.797 C 88.665 174.799,88.800 174.993,88.800 175.229 C 88.800 175.786,89.531 176.461,90.900 177.168 C 91.505 177.480,92.000 177.885,92.000 178.068 C 92.000 178.250,92.450 178.400,93.000 178.400 C 93.550 178.400,94.000 178.580,94.000 178.800 C 94.000 179.059,98.733 179.200,107.400 179.200 L 120.800 179.200 120.800 180.400 C 120.800 181.060,120.980 181.600,121.200 181.600 C 121.420 181.600,121.600 182.039,121.600 182.576 C 121.600 183.113,121.780 183.664,122.000 183.800 C 122.220 183.936,122.400 184.397,122.400 184.824 C 122.400 185.251,122.580 185.600,122.800 185.600 C 123.020 185.600,123.200 186.050,123.200 186.600 C 123.200 187.150,123.380 187.600,123.600 187.600 C 123.820 187.600,124.000 187.853,124.000 188.162 C 124.000 188.772,125.617 192.063,126.091 192.418 C 126.251 192.538,125.997 192.898,125.527 193.218 C 124.752 193.745,112.047 206.401,108.900 209.781 C 108.185 210.549,107.600 211.452,107.600 211.789 C 107.600 212.125,107.420 212.400,107.200 212.400 C 106.959 212.400,106.800 214.067,106.800 216.600 C 106.800 219.133,106.959 220.800,107.200 220.800 C 107.420 220.800,107.600 221.083,107.600 221.428 C 107.600 221.773,109.265 223.765,111.300 225.855 C 113.335 227.944,115.055 229.805,115.121 229.991 C 115.301 230.490,106.150 239.996,99.040 246.696 L 95.966 249.593 94.583 248.210 C 93.822 247.449,93.200 246.641,93.200 246.413 C 93.200 246.186,93.020 246.000,92.800 246.000 C 92.580 246.000,92.400 245.730,92.400 245.400 C 92.400 245.070,92.265 244.799,92.100 244.797 C 91.935 244.796,91.375 244.171,90.856 243.408 C 90.337 242.646,89.482 241.522,88.956 240.911 C 88.431 240.300,88.001 239.615,88.000 239.388 C 88.000 239.162,87.640 238.717,87.200 238.400 C 86.760 238.083,86.400 237.627,86.400 237.387 C 86.400 237.147,86.085 236.602,85.700 236.175 C 85.315 235.749,84.745 234.905,84.432 234.300 C 84.120 233.695,83.715 233.200,83.532 233.200 C 83.350 233.200,83.200 232.880,83.200 232.488 C 83.200 232.097,82.840 231.517,82.400 231.200 C 81.960 230.883,81.600 230.303,81.600 229.912 C 81.600 229.520,81.464 229.200,81.298 229.200 C 81.131 229.200,80.740 228.615,80.428 227.900 C 80.116 227.185,79.532 226.309,79.130 225.953 C 78.729 225.597,78.400 225.012,78.400 224.653 C 78.400 224.294,78.220 224.000,78.000 224.000 C 77.780 224.000,77.600 223.640,77.600 223.200 C 77.600 222.760,77.420 222.400,77.200 222.400 C 76.980 222.400,76.800 222.040,76.800 221.600 C 76.800 221.160,76.620 220.800,76.400 220.800 C 76.180 220.800,76.000 220.440,76.000 220.000 C 76.000 219.560,75.820 219.200,75.600 219.200 C 75.380 219.200,75.200 218.903,75.200 218.540 C 75.200 218.177,74.731 216.872,74.158 215.640 C 73.585 214.408,72.981 213.040,72.815 212.600 C 72.649 212.160,72.128 211.018,71.657 210.062 C 71.186 209.106,70.800 207.981,70.800 207.562 C 70.800 207.143,70.620 206.800,70.400 206.800 C 70.180 206.800,70.000 206.260,70.000 205.600 C 70.000 204.940,69.859 204.400,69.687 204.400 C 69.515 204.400,69.143 203.545,68.861 202.500 C 68.578 201.455,68.179 200.287,67.973 199.905 C 67.768 199.523,67.600 198.859,67.600 198.429 C 67.600 197.999,67.420 197.536,67.200 197.400 C 66.980 197.264,66.800 196.724,66.800 196.200 C 66.800 195.676,66.620 195.136,66.400 195.000 C 66.180 194.864,66.000 194.133,66.000 193.376 C 66.000 192.619,65.820 192.000,65.600 192.000 C 65.380 192.000,65.200 191.280,65.200 190.400 C 65.200 189.520,65.020 188.800,64.800 188.800 C 64.580 188.800,64.400 188.001,64.400 187.024 C 64.400 186.047,64.220 185.136,64.000 185.000 C 63.780 184.864,63.600 183.964,63.600 183.000 C 63.600 182.036,63.420 181.136,63.200 181.000 C 62.980 180.864,62.800 179.773,62.800 178.576 C 62.800 177.379,62.620 176.400,62.400 176.400 C 62.165 176.400,62.000 175.008,62.000 173.024 C 62.000 171.167,61.820 169.536,61.600 169.400 C 61.367 169.256,61.200 166.996,61.200 163.976 L 61.200 158.800 73.800 158.800 L 86.400 158.800 86.400 164.576 M351.300 299.826 C 350.365 300.387,349.600 301.105,349.600 301.423 C 349.600 301.740,349.420 302.000,349.200 302.000 C 348.980 302.000,348.800 302.349,348.800 302.776 C 348.800 303.203,348.620 303.664,348.400 303.800 C 348.163 303.946,348.000 306.396,348.000 309.800 C 348.000 313.204,347.837 315.654,347.600 315.800 C 347.380 315.936,347.200 316.577,347.200 317.224 C 347.200 317.871,347.020 318.400,346.800 318.400 C 346.580 318.400,346.400 318.679,346.400 319.021 C 346.400 320.203,343.427 325.407,341.955 326.800 C 339.159 329.447,337.766 330.601,336.684 331.168 C 336.088 331.480,335.600 331.885,335.600 332.068 C 335.600 332.250,335.240 332.400,334.800 332.400 C 334.360 332.400,334.000 332.580,334.000 332.800 C 334.000 333.020,333.561 333.200,333.024 333.200 C 332.487 333.200,331.936 333.380,331.800 333.600 C 331.664 333.820,331.124 334.000,330.600 334.000 C 330.076 334.000,329.536 334.180,329.400 334.400 C 329.264 334.620,327.993 334.800,326.576 334.800 C 325.125 334.800,324.000 334.975,324.000 335.200 C 324.000 335.462,315.608 335.600,299.624 335.600 C 283.804 335.600,275.160 335.740,275.000 336.000 C 274.864 336.220,274.403 336.400,273.976 336.400 C 273.549 336.400,273.200 336.580,273.200 336.800 C 273.200 337.020,272.926 337.200,272.591 337.200 C 271.799 337.200,267.600 341.399,267.600 342.191 C 267.600 342.526,267.420 342.800,267.200 342.800 C 266.980 342.800,266.800 343.160,266.800 343.600 C 266.800 344.040,266.620 344.400,266.400 344.400 C 266.180 344.400,266.000 345.199,266.000 346.176 C 266.000 347.153,265.820 348.064,265.600 348.200 C 265.342 348.359,265.200 355.337,265.200 367.824 C 265.200 384.780,265.125 387.200,264.600 387.200 C 264.270 387.200,264.000 387.380,264.000 387.600 C 264.000 387.865,238.533 388.000,188.400 388.000 C 138.267 388.000,112.800 387.865,112.800 387.600 C 112.800 387.380,112.440 387.200,112.000 387.200 C 111.209 387.200,111.200 386.933,111.200 364.024 C 111.200 349.004,111.059 340.760,110.800 340.600 C 110.580 340.464,110.400 340.003,110.400 339.576 C 110.400 339.149,110.220 338.800,110.000 338.800 C 109.780 338.800,109.600 338.517,109.600 338.171 C 109.600 335.127,102.629 334.548,99.781 337.356 L 98.000 339.112 98.000 364.932 C 98.000 381.714,98.140 390.839,98.400 391.000 C 98.620 391.136,98.800 391.563,98.800 391.948 C 98.800 392.334,99.160 393.036,99.600 393.508 C 100.040 393.980,100.400 394.560,100.400 394.797 C 100.400 395.303,103.019 398.000,103.511 398.000 C 103.697 398.000,104.284 398.405,104.815 398.900 L 105.781 399.800 188.191 399.800 L 270.600 399.800 272.696 398.400 C 273.849 397.630,274.896 396.685,275.023 396.300 C 275.150 395.915,275.422 395.600,275.627 395.600 C 275.832 395.600,276.000 395.280,276.000 394.888 C 276.000 394.497,276.360 393.917,276.800 393.600 C 277.240 393.283,277.600 392.613,277.600 392.112 C 277.600 391.610,277.780 391.200,278.000 391.200 C 278.261 391.200,278.400 384.057,278.400 370.571 C 278.400 354.249,278.508 349.844,278.915 349.471 C 280.516 348.008,280.657 348.000,306.395 348.000 C 322.932 348.000,331.600 347.862,331.600 347.600 C 331.600 347.380,332.320 347.200,333.200 347.200 C 334.080 347.200,334.800 347.020,334.800 346.800 C 334.800 346.580,335.340 346.400,336.000 346.400 C 336.660 346.400,337.200 346.220,337.200 346.000 C 337.200 345.780,337.650 345.600,338.200 345.600 C 338.750 345.600,339.200 345.420,339.200 345.200 C 339.200 344.980,339.560 344.800,340.000 344.800 C 340.440 344.800,340.800 344.620,340.800 344.400 C 340.800 344.180,341.120 344.000,341.512 344.000 C 341.903 344.000,342.483 343.640,342.800 343.200 C 343.117 342.760,343.697 342.400,344.088 342.400 C 344.480 342.400,344.800 342.242,344.800 342.049 C 344.800 341.855,345.344 341.472,346.009 341.196 C 347.229 340.691,354.000 334.315,354.000 333.672 C 354.000 333.481,354.450 332.801,355.000 332.162 C 355.549 331.523,355.999 330.775,356.000 330.500 C 356.000 330.225,356.135 329.999,356.300 329.997 C 356.659 329.993,357.600 328.056,357.600 327.320 C 357.600 327.034,357.764 326.800,357.965 326.800 C 358.166 326.800,358.451 326.080,358.600 325.200 C 358.749 324.320,359.034 323.600,359.235 323.600 C 359.436 323.600,359.600 323.071,359.600 322.424 C 359.600 321.777,359.780 321.136,360.000 321.000 C 360.220 320.864,360.400 320.043,360.400 319.176 C 360.400 318.309,360.580 317.600,360.800 317.600 C 361.052 317.600,361.200 314.826,361.200 310.078 L 361.200 302.556 359.893 301.178 C 357.301 298.446,354.372 297.985,351.300 299.826 M65.514 324.699 C 70.759 328.076,68.930 334.800,62.766 334.800 C 60.662 334.800,60.559 334.735,58.100 331.825 C 55.018 328.179,61.397 322.048,65.514 324.699 " stroke="none" fill="#c8c9ca" fill-rule="evenodd"></path><path id="path1" d="" stroke="none" fill="#c8c9ca" fill-rule="evenodd"></path><path id="path2" d="" stroke="none" fill="#c8c9ca" fill-rule="evenodd"></path><path id="path3" d="" stroke="none" fill="#c8c9ca" fill-rule="evenodd"></path><path id="path4" d="" stroke="none" fill="#c8c9ca" fill-rule="evenodd"></path></g></svg>