<?xml version="1.0" standalone="no"?>
<!DOCTYPE svg PUBLIC "-//W3C//DTD SVG 20010904//EN"
 "http://www.w3.org/TR/2001/REC-SVG-20010904/DTD/svg10.dtd">
<svg version="1.0" xmlns="http://www.w3.org/2000/svg"
 width="1024.000000pt" height="1024.000000pt" viewBox="0 0 1024.000000 1024.000000"
 preserveAspectRatio="xMidYMid meet">

<g transform="translate(0.000000,1024.000000) scale(0.100000,-0.100000)"
fill="#000000" stroke="none">
<path d="M5190 8604 c-282 -19 -494 -45 -696 -89 -996 -213 -1630 -793 -1857
-1700 -113 -448 -124 -988 -33 -1485 l23 -125 -57 -75 c-31 -41 -100 -138
-152 -215 -362 -533 -444 -845 -255 -974 57 -38 111 -57 251 -86 65 -14 133
-33 150 -43 35 -20 37 -39 21 -174 -11 -96 4 -142 80 -232 l62 -75 5 -111 c9
-187 60 -256 208 -279 36 -6 68 -11 72 -11 17 0 26 -38 18 -76 -5 -21 -14 -82
-21 -135 -20 -177 16 -307 114 -402 97 -95 239 -147 542 -197 243 -40 228 -25
235 -260 5 -183 11 -209 45 -196 12 4 15 11 9 24 -5 9 -10 86 -11 171 -1 85
-7 169 -13 187 -14 41 -60 81 -103 89 -18 3 -90 14 -162 26 -429 69 -583 169
-615 398 -10 74 -2 182 21 293 19 86 -13 116 -141 133 -108 14 -149 75 -156
233 -7 133 -8 135 -65 198 -88 97 -103 153 -74 284 13 59 12 68 -3 99 -23 47
-68 67 -214 97 -122 25 -215 59 -251 92 -78 70 -77 224 3 416 64 154 227 420
411 673 l89 121 -25 136 c-90 491 -79 1028 31 1468 222 883 830 1450 1784
1663 326 73 579 99 975 99 234 0 309 -3 390 -17 208 -37 412 -98 689 -207 185
-73 320 -157 501 -312 601 -517 984 -1191 1081 -1908 23 -169 23 -508 0 -685
-51 -393 -160 -742 -361 -1150 -179 -365 -415 -726 -706 -1082 -38 -47 -76
-98 -84 -113 -26 -51 -36 -203 -29 -433 6 -193 9 -219 25 -227 12 -7 18 -6 21
3 3 6 1 102 -4 212 -9 204 1 386 23 426 6 12 57 79 114 149 180 224 345 460
488 695 105 173 282 535 351 715 358 944 286 1826 -214 2645 -228 373 -641
800 -965 998 -170 104 -622 259 -910 312 -87 17 -508 28 -655 19z"/>
<path d="M5460 8123 c0 -5 9 -32 20 -60 l20 -53 -59 0 -60 0 -43 55 c-29 37
-50 55 -65 55 -34 0 -34 -12 -2 -64 17 -26 29 -49 27 -51 -2 -1 -27 -8 -56
-14 l-53 -11 -55 44 c-50 42 -57 44 -85 34 l-31 -11 41 -41 c23 -23 41 -45 41
-48 0 -4 -21 -17 -47 -28 l-48 -22 -62 34 c-49 26 -67 31 -80 22 -29 -18 -25
-28 22 -57 25 -16 45 -32 44 -35 0 -4 -20 -21 -44 -39 l-44 -32 -65 22 c-63
20 -66 20 -86 2 -21 -19 -26 -35 -11 -35 5 0 30 -9 55 -21 l47 -20 -38 -44
-38 -43 -71 6 c-66 4 -72 3 -88 -19 l-17 -24 58 -13 c31 -7 59 -14 60 -16 2
-2 -8 -24 -23 -49 -27 -49 -21 -46 -131 -63 -28 -4 -53 -27 -53 -48 0 -3 27
-6 60 -6 67 0 68 -1 42 -69 -16 -41 -22 -46 -82 -70 -55 -22 -65 -30 -68 -53
l-3 -26 56 14 c32 9 59 14 61 12 1 -2 0 -29 -3 -61 -6 -57 -6 -57 -64 -93 -51
-30 -59 -40 -59 -65 l0 -29 38 19 c77 39 78 38 85 -26 l6 -58 -51 -45 c-46
-42 -50 -48 -44 -77 l7 -32 50 36 c27 19 51 34 53 32 2 -2 10 -26 19 -52 l16
-49 -40 -59 c-33 -49 -38 -62 -29 -79 15 -28 23 -26 65 21 20 22 38 39 39 37
2 -1 15 -23 29 -48 l26 -45 -24 -55 c-29 -67 -30 -82 -7 -103 17 -16 20 -13
47 38 l30 55 41 -46 40 -47 -13 -65 c-10 -49 -11 -68 -2 -78 19 -23 37 -16 44
19 4 17 11 42 16 54 l8 23 45 -31 c44 -31 44 -32 51 -105 5 -57 11 -76 25 -84
28 -15 29 -14 36 50 4 34 10 59 13 58 4 -2 28 -12 53 -23 53 -22 58 -33 58
-121 0 -118 -1 -116 111 -153 l98 -32 21 -69 c11 -38 38 -105 61 -149 l40 -80
-46 -90 c-25 -50 -45 -95 -45 -101 0 -19 208 -220 227 -219 10 0 56 20 103 43
l85 44 75 -38 c41 -21 108 -48 147 -61 l73 -23 31 -95 c17 -53 35 -100 39
-104 12 -13 300 -11 314 3 6 6 25 52 42 102 l30 92 90 31 c50 17 116 45 148
63 l58 31 89 -44 c49 -25 95 -45 103 -45 16 0 185 161 210 202 17 26 16 28
-29 119 l-47 93 38 75 c20 42 47 108 59 146 l23 70 100 35 100 34 6 44 c8 57
8 196 0 244 -6 37 -7 37 -106 70 l-99 33 -30 90 c-17 49 -45 116 -62 147 l-32
58 48 96 47 95 -37 46 c-20 25 -70 76 -111 113 l-74 68 -66 -32 c-37 -18 -80
-39 -97 -47 -29 -14 -34 -13 -130 32 -55 26 -121 53 -147 59 l-47 12 -31 87
c-17 47 -35 105 -40 129 -4 24 -10 45 -13 48 -3 4 -21 -6 -40 -20 -48 -37 -63
-33 -80 18 l-15 44 40 57 c38 53 40 58 27 82 l-14 25 -41 -46 -41 -47 -27 45
c-31 54 -31 57 -2 126 22 49 23 56 9 77 -9 13 -19 23 -24 23 -5 0 -20 -23 -35
-51 l-26 -52 -41 41 -40 41 13 72 c11 67 11 73 -6 86 -27 19 -29 17 -43 -37
-7 -27 -16 -52 -20 -55 -5 -2 -27 9 -49 26 -32 23 -42 38 -42 58 0 73 -12 119
-35 129 -22 10 -23 9 -30 -53 l-6 -64 -55 27 c-52 25 -54 27 -65 83 -14 70
-17 76 -52 84 -26 7 -28 5 -23 -16 14 -68 16 -99 7 -99 -6 0 -32 5 -60 11 -49
10 -51 12 -80 75 -25 54 -34 64 -55 64 -15 0 -26 -3 -26 -7z m124 -413 c241
-61 417 -233 476 -466 28 -110 21 -122 -88 -157 -48 -15 -114 -43 -147 -61
l-59 -34 -97 49 -98 49 -80 -76 c-45 -42 -95 -94 -113 -116 l-31 -40 47 -95
47 -96 -34 -66 c-19 -36 -42 -90 -52 -118 -19 -59 -15 -58 -120 -26 -151 45
-306 173 -378 310 -97 185 -103 408 -16 590 132 276 451 428 743 353z m836
-769 l25 -7 -30 -8 c-16 -4 -38 -9 -47 -12 -13 -4 -18 0 -18 15 0 22 21 26 70
12z m121 -30 c426 -146 654 -599 513 -1021 -85 -254 -301 -455 -564 -527 -90
-25 -309 -25 -400 0 -324 88 -557 353 -601 684 -6 46 -9 86 -7 88 2 2 22 -20
45 -49 37 -46 45 -52 71 -48 l30 4 -30 48 c-17 27 -27 53 -24 58 3 6 28 13 56
17 47 7 51 5 99 -35 43 -36 54 -41 81 -35 l31 7 -41 44 c-22 24 -40 46 -40 49
0 8 78 45 95 45 8 0 40 -14 70 -31 53 -30 56 -30 81 -14 l25 16 -43 31 c-24
17 -46 34 -51 37 -4 4 13 22 39 40 l46 33 66 -20 c61 -18 69 -18 85 -4 9 8 17
18 17 22 0 4 -25 18 -55 30 l-55 22 38 44 37 44 73 -2 c63 -2 76 0 88 16 19
26 12 32 -44 40 -27 3 -52 9 -55 12 -3 3 6 28 21 54 27 48 27 48 99 60 67 11
83 20 83 51 0 5 -27 9 -61 9 -45 0 -59 3 -55 13 2 6 10 31 17 55 9 33 17 44
38 49 63 15 111 42 111 63 0 25 3 25 71 1z m-502 -73 c-84 -198 -244 -340
-444 -392 -31 -8 -55 -10 -55 -5 0 5 12 33 26 62 88 176 258 331 429 393 72
26 77 20 44 -58z"/>
<path d="M4325 6245 c-3 -14 -7 -35 -10 -48 -3 -19 -14 -25 -62 -34 -61 -12
-73 -6 -103 46 -7 14 -14 13 -55 -7 -40 -19 -46 -26 -41 -45 3 -12 9 -31 12
-42 4 -15 -7 -30 -42 -59 l-47 -40 -41 23 -41 22 -27 -33 c-32 -38 -34 -51
-12 -68 33 -28 35 -46 9 -103 l-25 -55 -44 5 c-44 5 -44 5 -55 -33 -16 -58
-14 -63 29 -80 l40 -16 0 -63 0 -62 -40 -16 c-43 -17 -45 -22 -29 -81 l11 -38
43 6 43 7 26 -56 26 -57 -25 -32 c-14 -18 -25 -36 -25 -41 0 -4 13 -22 28 -39
l28 -33 41 20 41 20 47 -38 c36 -30 45 -43 41 -59 -3 -12 -9 -31 -12 -43 -5
-20 0 -26 37 -43 l44 -19 30 35 30 35 55 -12 c61 -14 70 -22 70 -62 0 -32 37
-51 81 -42 23 5 30 14 36 47 8 41 9 42 68 55 65 15 58 18 100 -40 12 -18 15
-18 56 3 24 13 45 23 47 25 1 1 -4 20 -12 42 l-14 40 51 38 51 38 38 -20 38
-21 30 36 c16 20 30 39 30 42 0 4 -13 19 -29 34 l-30 29 30 59 30 59 43 -6
c44 -7 44 -7 51 27 3 18 9 41 11 50 4 13 -5 22 -35 34 l-41 16 0 64 0 64 40
16 c22 9 40 18 40 21 0 2 -5 25 -11 50 l-12 45 -44 -5 -44 -5 -29 58 -29 57
30 29 c16 15 29 31 29 36 0 4 -14 23 -31 43 l-31 35 -37 -21 -38 -21 -50 38
-50 37 13 44 13 43 -39 20 c-52 26 -55 26 -80 -16 -20 -31 -26 -35 -49 -28
-14 4 -42 10 -61 13 -32 6 -35 10 -44 54 l-8 47 -49 0 c-44 0 -49 -2 -54 -25z
m134 -145 c239 -39 411 -241 411 -485 0 -168 -76 -309 -218 -407 -155 -107
-389 -105 -551 3 -318 213 -280 685 70 848 96 45 183 58 288 41z"/>
</g>
</svg>
