<?xml version="1.0" standalone="no"?>
<!DOCTYPE svg PUBLIC "-//W3C//DTD SVG 20010904//EN"
 "http://www.w3.org/TR/2001/REC-SVG-20010904/DTD/svg10.dtd">
<svg version="1.0" xmlns="http://www.w3.org/2000/svg"
 width="920.000000pt" height="920.000000pt" viewBox="0 0 920.000000 920.000000"
 preserveAspectRatio="xMidYMid meet">

<g transform="translate(0.000000,920.000000) scale(0.100000,-0.100000)"
fill="#000000" stroke="none">
<path d="M2540 8283 c-594 -32 -1128 -142 -1594 -330 -217 -87 -215 -83 -216
-470 l0 -293 -128 0 c-148 0 -213 -14 -313 -66 -136 -71 -254 -233 -278 -381
-9 -50 -11 -728 -9 -2513 l3 -2445 27 -69 c69 -179 216 -307 399 -351 56 -13
292 -15 1892 -15 l1828 0 60 -49 c219 -177 509 -174 709 6 l48 43 1858 2 1859
3 65 23 c173 63 297 191 353 367 l22 70 0 2450 c0 2036 -2 2459 -14 2505 -24
98 -71 180 -146 255 -123 124 -232 165 -442 165 l-122 0 -3 298 c-4 383 0 375
-195 457 -141 59 -394 141 -588 189 -549 137 -1087 181 -1650 135 -433 -35
-903 -137 -1261 -275 l-140 -54 -89 35 c-232 91 -549 180 -820 229 -354 65
-800 96 -1115 79z m760 -392 c372 -45 690 -121 978 -233 l102 -40 0 -2638 0
-2639 -43 18 c-76 33 -322 110 -444 140 -660 161 -1495 172 -2178 30 -150 -32
-305 -75 -450 -125 -71 -25 -139 -48 -151 -50 l-21 -6 1 2633 1 2632 62 28
c277 124 770 234 1203 269 189 15 754 4 940 -19z m3451 19 c434 -33 832 -118
1177 -252 l102 -40 0 -2638 0 -2639 -44 19 c-252 108 -692 207 -1091 246 -250
24 -761 24 -1010 0 -358 -35 -671 -100 -955 -197 -80 -28 -154 -52 -165 -55
-20 -5 -20 -1 -17 2630 l2 2635 103 39 c346 135 791 229 1212 255 127 8 564 6
686 -3z m-6021 -3470 c0 -2129 2 -2395 15 -2427 20 -48 41 -71 87 -94 53 -27
108 -24 191 12 402 172 876 283 1369 320 200 15 685 7 868 -15 453 -54 856
-156 1171 -297 115 -52 146 -51 268 5 291 132 718 239 1166 293 188 22 816 25
990 5 478 -55 894 -158 1224 -301 118 -51 167 -54 232 -12 27 17 53 44 65 67
19 38 19 92 22 2438 l2 2398 118 -3 c109 -4 122 -6 160 -32 23 -15 51 -45 62
-67 20 -39 20 -51 20 -2456 l0 -2418 -21 -43 c-14 -29 -35 -52 -63 -68 l-43
-25 -4080 2 -4080 3 -35 27 c-19 15 -44 44 -54 65 -18 37 -19 105 -19 2458 0
2233 1 2422 17 2450 43 79 102 104 246 105 l102 0 0 -2390z"/>
<path d="M6290 6995 c-295 -82 -359 -490 -102 -653 151 -97 340 -75 462 54 77
82 95 128 95 249 0 121 -18 167 -95 249 -91 97 -232 136 -360 101z"/>
<path d="M5737 5709 c-47 -25 -88 -86 -94 -142 -7 -59 23 -125 72 -163 37 -28
42 -29 172 -32 l133 -4 0 -914 0 -914 365 0 365 0 0 1025 c0 849 -2 1031 -14
1058 -16 39 -61 82 -99 96 -18 7 -174 11 -445 11 -396 -1 -419 -2 -455 -21z"/>
</g>
</svg>
